# Blender 4.0.2
# www.blender.org
mtllib PlayerDeath.mtl
o Player
v -1.033029 0.329082 7.677577
v -0.000000 0.505072 6.689953
v 0.000000 0.926962 8.762353
v -0.000000 1.481001 7.768689
v -1.393428 0.344613 10.964334
v 0.000000 -0.351257 8.421035
v -0.000000 -0.465117 7.451160
v 1.033029 0.329082 7.677576
v 1.701101 1.410552 7.191085
v -0.608794 1.378653 10.932659
v -0.113714 1.155769 9.582456
v 0.126681 0.963702 11.493707
v 0.365870 -0.125068 9.366687
v -0.556334 0.863202 9.396167
v -0.145811 1.400937 9.898181
v 0.610429 0.622885 10.079154
v 0.061409 0.449736 10.951810
v 0.095718 1.266266 10.677496
v -0.814424 1.324726 10.576741
v 0.293601 0.875706 9.539692
v -0.353365 0.822628 10.511238
v 0.390002 -0.029558 10.135264
v -0.111199 0.387527 9.390486
v 0.289427 1.159836 10.094577
v -0.809109 1.210128 9.886260
v 0.552645 0.351967 10.288129
v 0.383393 0.425799 10.117073
v -0.822952 1.177868 10.964335
v -0.839019 0.475752 9.689734
v -0.364661 0.503038 11.566380
v -1.030056 0.571903 10.028968
v -0.273816 -0.206150 10.209940
v -0.788527 0.437232 10.808284
v -0.590644 0.046673 9.670480
v -0.784353 0.153102 10.253398
v 0.028959 -0.139022 10.365586
v -0.061668 0.008528 10.182900
v -0.000000 0.487181 5.750956
v -1.000000 0.973105 4.895190
v -1.233892 0.971181 5.759272
v 0.000000 0.465817 6.989976
v -0.000000 1.335755 5.616704
v 1.000000 0.973105 4.895190
v 1.233892 0.971181 5.759272
v 1.920322 0.989453 8.004053
v 1.697403 0.320657 7.331586
v 2.664643 1.649230 7.519845
v 2.443008 0.811287 6.565533
v 1.172221 1.554020 7.711334
v 1.724950 2.183043 7.233038
v 1.531246 1.620677 6.411534
v -0.470554 0.164258 10.918818
v -0.976386 -0.600093 10.588525
v -0.924940 0.410700 11.896865
v -1.650033 -0.598157 11.552723
v -1.066368 0.782598 10.442648
v -1.551530 1.053946 11.230641
v -2.218146 0.330770 10.983090
v 2.763812 0.169145 -1.873506
v 2.568959 0.383408 -2.431163
v 0.761863 0.323495 -0.380916
v 1.077266 0.781144 -1.610399
v 2.564706 -0.272118 -2.287111
v 0.882313 -0.218630 -1.279076
v 0.697895 0.247565 -1.833310
v -3.329260 0.313543 -1.876682
v -3.185907 -0.011152 -2.395221
v -1.136891 0.743097 -0.750431
v -1.518101 0.281615 -1.959672
v -3.361898 -0.320333 -1.826084
v -1.590180 -0.178706 -0.995184
v -1.376249 -0.340437 -1.692750
v -1.803649 0.065838 -1.242649
v -1.306277 0.210048 2.804268
v -1.411200 -0.414321 2.807422
v -1.242099 0.524258 1.968881
v -1.192649 -0.398732 1.474430
v -1.915437 -0.266026 1.543578
v 1.235341 0.060004 -1.208439
v 1.079229 -0.025515 2.867591
v 1.083507 -0.657041 2.822744
v 1.001898 0.356643 2.062176
v 0.768581 -0.508106 1.517555
v 1.506421 -0.493311 1.531277
v -0.970178 0.958399 4.867321
v -1.409862 -0.276311 2.908207
v -1.345430 0.039585 2.390155
v -1.443663 -0.757896 2.732982
v -0.815843 0.127178 2.753685
v -1.788357 0.379893 2.828856
v 0.998449 0.954964 4.851921
v 1.110466 -0.491268 2.967044
v 1.059484 -0.209816 2.428059
v 1.051020 -0.983601 2.833455
v 0.580923 -0.005541 2.814762
v 1.584633 0.082745 2.806316
v 2.111100 0.450604 4.312135
v 1.784358 1.547867 6.474782
v 2.019381 0.962872 7.026093
v 1.763170 1.641127 5.841618
v 2.510462 0.598770 5.927404
v 1.782020 0.328420 5.943225
v -2.985347 0.232634 13.481945
v -1.740045 0.642844 11.415853
v -1.308818 -0.066597 11.305680
v -2.131526 0.914405 11.843683
v -1.660390 -0.076871 12.512802
v -2.255544 -0.369636 12.107775
v -2.952070 0.230049 13.452095
v -3.816273 -0.011603 15.050908
v -4.746129 1.118570 14.952603
v -3.878952 -0.503881 15.418211
v -4.151533 0.456232 14.454831
v -3.408341 0.247796 15.140051
v 2.115109 0.459891 4.358839
v 2.632141 -0.160655 2.712923
v 1.939279 0.838085 1.891921
v 2.834220 -0.712022 2.522303
v 1.986719 0.353514 2.787997
v 2.990281 0.131042 2.881133
v 2.964131 -0.163810 1.967376
v 3.190257 0.665174 1.952085
v 3.619398 -0.596149 2.546988
v 3.993250 0.477279 2.581693
v 2.424730 -0.017586 2.629060
v 2.937590 -0.355247 3.217759
v 3.230334 0.479468 3.351769
v -3.503263 -0.236909 15.533181
v -4.257273 -0.610764 15.707193
v -3.455314 0.531495 16.132761
v -4.465428 0.102720 16.431156
v -3.867433 0.233727 14.903860
v -3.891088 0.954229 15.355440
v -4.724782 0.715623 15.575499
vn 0.3750 0.8097 0.4514
vn -0.6090 0.5882 -0.5321
vn -0.5432 -0.5183 -0.6605
vn 0.8530 -0.1346 0.5042
vn -0.5222 -0.8511 -0.0532
vn -0.5938 -0.7991 0.0938
vn -0.7385 0.6690 -0.0841
vn 0.1976 0.8562 0.4774
vn 0.6090 0.5882 -0.5321
vn 0.5432 -0.5183 -0.6605
vn 0.6947 -0.1856 0.6950
vn 0.5810 0.0072 0.8139
vn 0.5938 -0.7991 0.0938
vn -0.3219 -0.2158 -0.9218
vn -0.0845 -0.9768 0.1968
vn -0.5666 0.2837 0.7736
vn 0.4162 -0.6093 -0.6749
vn 0.1582 0.2399 -0.9578
vn 0.1434 0.1786 -0.9734
vn 0.5311 0.7336 -0.4239
vn 0.2988 0.9516 0.0718
vn 0.8405 0.5144 0.1699
vn 0.8800 0.2727 -0.3890
vn -0.2248 0.9678 -0.1128
vn -0.2151 0.7491 -0.6265
vn -0.9962 0.0623 0.0609
vn -0.1219 -0.2377 0.9637
vn 0.6568 -0.5045 0.5604
vn 0.9484 0.0404 0.3146
vn 0.5811 -0.6243 0.5221
vn 0.9476 -0.3193 0.0099
vn 0.1295 0.0415 0.9907
vn 0.7068 -0.0180 -0.7071
vn 0.9986 0.0387 0.0366
vn -0.1299 0.6932 0.7090
vn 0.4744 -0.5549 -0.6835
vn -0.3939 -0.2778 -0.8762
vn -0.3352 -0.2700 -0.9026
vn -0.8174 -0.5306 -0.2245
vn -0.9431 -0.2128 0.2555
vn -0.5248 -0.7657 0.3718
vn -0.3754 -0.9043 -0.2033
vn -0.9606 0.2781 -0.0040
vn -0.8253 0.1771 -0.5363
vn -0.0001 0.9963 -0.0864
vn 0.3908 0.2430 0.8878
vn 0.5507 -0.6040 0.5761
vn -0.0403 -0.8866 0.4608
vn 0.6668 -0.5440 0.5094
vn 0.2671 -0.9573 0.1106
vn 0.1065 0.0199 0.9941
vn -0.1292 -0.8018 -0.5835
vn -0.1845 0.8303 0.5259
vn -0.3639 -0.9260 -0.1006
vn -0.3652 -0.9308 -0.0160
vn -0.2906 0.9538 -0.0765
vn 0.6098 -0.1239 -0.7829
vn 0.1845 0.8303 0.5259
vn 0.3639 -0.9260 -0.1006
vn 0.3652 -0.9308 -0.0160
vn 0.2907 0.9538 -0.0765
vn -0.6098 -0.1239 -0.7829
vn 0.7367 -0.5845 0.3401
vn 0.5616 0.5808 -0.5893
vn -0.8053 0.5603 -0.1937
vn -0.6016 -0.4577 0.6547
vn 0.0718 0.5495 0.8324
vn -0.3792 -0.5663 -0.7318
vn -0.9134 -0.3064 -0.2680
vn 0.6428 -0.6182 0.4524
vn -0.5744 0.1895 0.7963
vn -0.5152 0.6615 -0.5450
vn 0.5940 -0.0461 -0.8031
vn 0.6520 0.7474 0.1277
vn -0.6245 -0.6487 -0.4350
vn -0.3822 -0.1215 -0.9161
vn 0.3673 0.8622 0.3489
vn -0.9789 0.2017 0.0326
vn -0.3447 -0.7717 -0.5344
vn 0.9301 -0.0846 -0.3575
vn 0.3322 -0.7641 0.5529
vn -0.2918 0.5379 -0.7909
vn -0.2845 -0.2040 -0.9367
vn -0.0029 0.9104 -0.4138
vn 0.9800 -0.1980 -0.0213
vn -0.0246 -0.9755 0.2186
vn -0.9590 0.0269 -0.2820
vn -0.4457 0.0276 0.8947
vn 0.2916 -0.3203 -0.9013
vn 0.0228 -0.8814 -0.4718
vn 0.9903 -0.0730 0.1180
vn -0.1843 -0.9820 -0.0417
vn -0.8751 0.4004 0.2717
vn -0.7721 0.6339 0.0445
vn -0.1906 -0.9738 -0.1236
vn 0.9692 0.1545 -0.1915
vn -0.9773 0.0710 0.1995
vn 0.0221 -0.9927 -0.1186
vn 0.9459 0.2400 0.2184
vn 0.8642 0.5029 0.0161
vn 0.0234 -0.9795 -0.2001
vn -0.9442 0.3152 -0.0960
vn 0.0319 -0.3981 -0.9168
vn 0.1861 0.8584 -0.4780
vn -0.3819 -0.3249 -0.8652
vn -0.8549 -0.2950 0.4268
vn 0.2111 0.9148 -0.3443
vn 0.7806 -0.5602 0.2773
vn -0.1670 -0.4561 -0.8741
vn -0.0783 0.8382 -0.5397
vn 0.2559 -0.4508 -0.8552
vn 0.8213 -0.4006 0.4062
vn -0.0833 0.9078 -0.4110
vn -0.8433 -0.3984 0.3607
vn 0.8233 0.5507 0.1373
vn 0.3231 -0.8457 0.4247
vn -0.9826 -0.0726 0.1710
vn -0.9794 -0.0295 -0.1998
vn 0.3479 -0.9375 -0.0000
vn 0.7969 0.5510 -0.2476
vn 0.8056 0.5205 0.2830
vn 0.3815 -0.9186 0.1033
vn -0.6661 -0.1589 -0.7288
vn -0.8850 -0.0103 -0.4655
vn 0.1255 -0.8824 0.4534
vn 0.5486 0.6310 0.5485
vn -0.8888 -0.4280 0.1640
vn 0.5439 0.7583 -0.3593
vn -0.2846 0.1208 0.9510
vn 0.8605 -0.4509 0.2373
vn 0.2260 0.9728 0.0508
vn -0.5491 -0.6645 -0.5069
vn -0.5225 -0.5623 -0.6409
vn 0.1504 0.8729 0.4641
vn 0.4768 -0.0807 -0.8753
vn 0.7619 -0.3679 0.5331
vn 0.2231 0.9712 -0.0840
vn -0.7653 -0.6350 0.1056
vn 0.5830 -0.1758 -0.7932
vn 0.6511 -0.2895 0.7017
vn -0.7069 0.1365 0.6941
vn -0.7400 0.1900 -0.6452
vn -0.4393 -0.8865 -0.1451
vn 0.1307 0.9833 0.1267
vn -0.5982 0.7919 0.1222
vn 0.4443 -0.5696 0.6915
vn -0.1329 0.8104 0.5706
vn -0.3508 0.4890 -0.7986
vn 0.2061 -0.7227 -0.6597
vn 0.9015 0.2397 -0.3604
vn -0.9435 -0.3274 0.0514
vn -0.6879 -0.3077 -0.6573
vt 0.375000 0.500000
vt 0.440405 0.500000
vt 0.375000 0.625000
vt 0.500000 0.625000
vt 0.625000 0.625000
vt 0.625000 0.750000
vt 0.500000 0.750000
vt 0.625000 0.875000
vt 0.561728 0.875000
vt 0.250000 0.625000
vt 0.375000 0.750000
vt 0.500000 0.875000
vt 0.625000 0.500000
vt 0.750000 0.500000
vt 0.750000 0.625000
vt 0.750000 0.750000
vt 0.522410 0.825377
vt 0.509034 0.820007
vt 0.250000 0.500000
vt 0.250000 0.750000
vt 0.500000 0.500000
vt 0.500000 0.375000
vt 0.625000 0.375000
vt 0.375000 0.375000
vt 0.500000 0.816380
vt 0.375000 0.375000
vt 0.625000 0.375000
vt 0.250000 0.500000
vt 0.625000 0.875000
vt 0.375000 0.000000
vt 0.625000 0.000000
vt 0.625000 0.250000
vt 0.375000 0.250000
vt 0.625000 0.645984
vt 0.544393 0.750000
vt 0.625000 1.000000
vt 0.375000 1.000000
vt 0.125000 0.500000
vt 0.125000 0.750000
vt 0.875000 0.500000
vt 0.753578 0.750000
vt 0.625000 0.878578
vt 1.000000 0.750000
vt 1.000000 1.000000
vt 0.666667 1.000000
vt 0.666667 0.750000
vt 0.333333 1.000000
vt 0.333333 0.750000
vt -0.000000 1.000000
vt -0.000000 0.750000
vt 0.333333 0.500000
vt 0.666667 0.500000
vt 1.000000 0.500000
s 0
usemtl Material
f 16/7/17 26/17/17 27/18/17
f 27/18/32 22/25/32 16/7/32
f 22/12/33 27/18/33 26/17/33
f 32/7/36 37/18/36 36/17/36
f 37/18/51 32/7/51 22/25/51
f 22/12/52 36/17/52 37/18/52
usemtl Green
f 6/10/5 5/3/5 1/11/5
f 3/1/8 9/3/8 4/2/8
f 8/7/10 7/9/10 2/8/10
f 25/22/24 19/23/24 10/13/24 15/21/24
f 17/16/26 12/6/26 18/5/26
f 12/6/29 26/17/29 16/7/29
f 22/25/31 13/11/31 16/7/31
f 14/19/37 23/10/37 34/3/37 29/1/37
f 31/21/40 35/4/40 33/5/40 28/13/40
f 33/5/46 21/15/46 19/14/46
f 17/8/49 30/6/49 36/17/49
f 40/1/54 39/6/54 38/11/54
f 41/26/58 44/1/58 42/27/58
f 42/29/62 43/6/62 38/11/62
f 45/30/63 46/31/63 48/32/63 47/33/63
f 52/30/70 54/33/70 55/32/70 53/31/70
f 58/34/76 56/35/76 53/42/76
f 61/38/81 64/1/81 63/11/81 59/39/81
f 65/13/82 62/40/82 60/41/82
f 68/33/85 71/1/85 72/13/85 69/32/85
f 70/35/87 66/37/87 67/36/87
f 72/34/90 70/35/90 67/42/90
f 73/51/94 78/48/94 76/50/94
f 82/43/97 83/46/97 81/45/97 80/44/97
f 88/43/103 86/44/103 87/45/103 89/46/103
f 85/51/106 90/48/106 88/50/106
f 95/46/110 96/48/110 93/47/110
f 91/51/112 94/50/112 96/48/112
f 100/43/115 98/44/115 99/45/115 101/46/115
f 97/52/119 101/46/119 102/48/119
f 108/48/123 106/50/123 104/49/123 105/47/123
f 103/52/125 108/48/125 107/46/125
f 112/43/127 110/44/127 111/45/127 113/46/127
f 113/46/128 111/47/128 114/48/128
f 115/51/136 118/50/136 120/48/136
f 115/52/137 120/48/137 119/46/137
f 123/33/140 124/32/140 127/13/140 126/1/140
f 125/35/142 122/36/142 121/37/142
f 133/1/148 132/11/148 134/34/148
f 134/13/151 129/41/151 131/40/151
usemtl Yellow
f 1/7/3 2/8/3 7/9/3
f 5/3/7 4/2/7 1/4/7
f 8/4/9 2/6/9 4/5/9
f 6/10/12 8/11/12 9/3/12
f 15/21/21 10/13/21 18/5/21 24/4/21
f 14/24/25 25/22/25 15/21/25 11/1/25
f 22/12/28 26/17/28 17/8/28
f 28/13/34 33/5/34 19/14/34
f 33/5/35 17/16/35 21/15/35
f 34/3/42 13/11/42 32/7/42 35/4/42
f 25/22/43 31/21/43 28/13/43 19/23/43
f 30/6/48 32/7/48 36/17/48
f 40/1/56 42/27/56 39/13/56
f 41/28/60 38/11/60 44/1/60
f 50/1/65 51/34/65 49/11/65
f 51/13/68 48/40/68 46/41/68
f 54/38/74 52/39/74 56/11/74 57/1/74
f 58/13/75 53/41/75 55/40/75
f 61/33/78 62/32/78 65/13/78 64/1/78
f 65/34/83 60/42/83 63/35/83
f 68/38/88 66/39/88 70/11/88 71/1/88
f 76/43/91 74/44/91 75/45/91 77/46/91
f 73/52/95 77/46/95 78/48/95
f 79/51/100 82/50/100 84/48/100
f 89/46/104 87/47/104 90/48/104
f 85/53/108 88/43/108 89/46/108
f 91/52/113 96/48/113 95/46/113
f 97/51/118 102/48/118 100/50/118
f 103/51/124 106/50/124 108/48/124
f 109/52/131 113/46/131 114/48/131
f 120/48/135 118/50/135 116/49/135 117/47/135
f 127/13/144 124/40/144 122/41/144
f 130/33/147 133/1/147 134/13/147 131/32/147
f 132/35/149 128/37/149 129/36/149
usemtl Pink
f 3/1/1 4/2/1 5/3/1
f 3/1/4 5/3/4 6/10/4
f 7/9/13 8/7/13 6/12/13
f 10/13/15 19/14/15 18/5/15
f 18/5/16 21/15/16 17/16/16
f 14/19/18 11/1/18 20/3/18 23/10/18
f 20/3/23 24/4/23 16/7/23 13/11/23
f 23/10/38 13/20/38 34/3/38
f 29/1/39 34/3/39 35/4/39 31/21/39
f 35/4/41 32/7/41 30/6/41 33/5/41
f 17/16/45 33/5/45 30/6/45
f 22/12/47 17/8/47 36/17/47
f 41/26/53 42/27/53 40/1/53
f 44/1/59 38/11/59 43/6/59
f 44/1/61 43/13/61 42/27/61
f 47/38/67 50/1/67 49/11/67 45/39/67
f 51/34/69 46/42/69 49/35/69
f 57/1/72 56/11/72 58/34/72
f 56/35/73 52/37/73 53/36/73
f 64/1/79 65/34/79 63/11/79
f 63/35/80 60/36/80 59/37/80
f 66/30/84 68/33/84 69/32/84 67/31/84
f 71/1/86 70/11/86 72/34/86
f 78/48/93 75/47/93 74/49/93 76/50/93
f 73/53/96 76/43/96 77/46/96
f 84/48/99 82/50/99 80/49/99 81/47/99
f 79/52/101 84/48/101 83/46/101
f 85/52/107 89/46/107 90/48/107
f 94/43/109 95/46/109 93/45/109 92/44/109
f 101/46/116 99/47/116 102/48/116
f 97/53/120 100/43/120 101/46/120
f 107/46/122 108/48/122 105/47/122
f 103/53/126 107/46/126 106/43/126
f 109/51/130 114/48/130 112/50/130
f 118/43/133 119/46/133 117/45/133 116/44/133
f 121/30/139 122/31/139 124/32/139 123/33/139
f 126/1/141 127/34/141 125/11/141
f 127/34/145 122/42/145 125/35/145
f 130/38/150 128/39/150 132/11/150 133/1/150
usemtl Violet
f 1/4/2 4/5/2 2/6/2
f 7/9/6 6/12/6 1/7/6
f 3/1/11 6/10/11 9/3/11
f 9/3/14 8/4/14 4/2/14
f 23/10/19 20/3/19 13/20/19
f 11/1/20 15/21/20 24/4/20 20/3/20
f 24/4/22 18/5/22 12/6/22 16/7/22
f 18/5/27 19/14/27 21/15/27
f 17/8/30 26/17/30 12/6/30
f 14/24/44 29/1/44 31/21/44 25/22/44
f 22/25/50 32/7/50 13/11/50
f 41/28/55 40/1/55 38/11/55
f 42/29/57 38/11/57 39/6/57
f 47/33/64 48/32/64 51/13/64 50/1/64
f 49/35/66 46/36/66 45/37/66
f 54/33/71 57/1/71 58/13/71 55/32/71
f 59/30/77 60/31/77 62/32/77 61/33/77
f 72/13/89 67/41/89 69/40/89
f 77/46/92 75/47/92 78/48/92
f 83/46/98 84/48/98 81/47/98
f 79/53/102 83/46/102 82/43/102
f 90/48/105 87/47/105 86/49/105 88/50/105
f 96/48/111 94/50/111 92/49/111 93/47/111
f 91/53/114 95/46/114 94/43/114
f 102/48/117 99/47/117 98/49/117 100/50/117
f 106/43/121 107/46/121 105/45/121 104/44/121
f 114/48/129 111/47/129 110/49/129 112/50/129
f 109/53/132 112/43/132 113/46/132
f 119/46/134 120/48/134 117/47/134
f 115/53/138 119/46/138 118/43/138
f 123/38/143 126/1/143 125/11/143 121/39/143
f 128/30/146 130/33/146 131/32/146 129/31/146
f 134/34/152 132/35/152 129/42/152
o Sword
v 3.963212 -0.156191 3.566423
v 4.075430 0.353844 3.653045
v 3.602600 -0.574648 3.798379
v 5.157235 -0.084264 11.922847
v 2.933873 -0.123856 -0.509238
v 3.227344 -0.161442 3.884659
v 3.228256 0.383233 3.849143
v 3.781423 -0.144416 3.256261
v 3.843150 0.140975 3.299213
v 3.581474 -0.375983 3.390306
v 3.371609 -0.145469 3.434729
v 3.371052 0.157786 3.409404
vn 0.8767 -0.4654 -0.1213
vn -0.9044 -0.3651 0.2206
vn -0.9529 -0.0213 -0.3025
vn 0.8578 -0.1057 -0.5029
vn -0.0796 0.8763 -0.4751
vn 0.0455 0.9979 0.0469
vn 0.5865 -0.7174 -0.3759
vn 0.6989 -0.6968 -0.1611
vn -0.7298 -0.6793 0.0773
vn 0.0183 0.9971 -0.0737
vn 0.9603 -0.1750 -0.2171
vn -0.7401 -0.6197 -0.2612
vn -0.9939 0.0074 0.1103
vt 0.375000 0.000000
vt 0.625000 0.000000
vt 0.625000 0.250000
vt 0.375000 0.250000
vt 0.625000 0.500000
vt 0.375000 0.500000
vt 0.753578 0.750000
vt 0.875000 0.500000
s 0
usemtl Yellow
f 135/54/153 136/55/153 138/56/153 137/57/153
f 137/57/154 138/56/154 141/58/154 140/59/154
f 140/59/155 141/58/155 146/58/155 145/59/155
f 136/55/156 135/54/156 142/54/156 143/55/156
f 141/58/157 136/60/157 143/60/157 146/58/157
f 141/58/158 138/61/158 136/60/158
f 135/54/159 137/57/159 144/57/159 142/54/159
f 142/54/160 144/57/160 139/54/160
f 144/57/161 145/59/161 139/57/161
f 146/58/162 143/60/162 139/58/162
f 143/55/163 142/54/163 139/55/163
f 137/57/164 140/59/164 145/59/164 144/57/164
f 145/59/165 146/58/165 139/59/165
o Cube.007
v -3.382525 -0.134350 15.862813
v -2.935500 0.269128 13.858123
v -3.652491 0.390937 16.012280
v -2.749526 -0.385588 14.964022
v -3.678740 0.340971 15.757792
v -3.276747 -0.255532 15.282678
v -2.829909 0.455169 14.790234
v -3.501589 0.302452 15.173966
v -3.347543 -0.749382 15.860890
v -3.047381 -0.568227 15.954202
v -2.001971 -2.540005 14.708781
v -3.039011 -0.664729 15.458846
v -3.716061 0.905867 15.692979
v -3.257629 1.199063 14.705298
v -3.644567 0.891605 15.095386
v -4.036468 1.399206 15.510095
v -3.696748 1.456984 15.623549
v -3.845730 3.210223 13.769952
v -3.698772 1.392903 15.122900
v -4.624987 0.340878 17.515066
v -3.673652 0.537412 16.762959
v -4.089594 0.573819 16.749502
v -4.216559 0.830840 16.465086
v -3.981857 0.292624 16.800936
v -3.919844 -0.081502 16.601994
v -4.364614 0.356664 17.055967
v -4.462752 0.211926 16.304123
v -4.338868 0.463749 16.604305
v -4.242523 0.171884 16.648914
vn 0.8135 0.2182 0.5391
vn 0.9897 0.0686 -0.1258
vn -0.8424 -0.4080 -0.3521
vn -0.8706 -0.4695 -0.1472
vn -0.4406 -0.8030 -0.4013
vn -0.8519 -0.4902 0.1841
vn 0.0456 -0.5161 0.8553
vn 0.8573 0.5079 -0.0845
vn -0.5504 -0.5788 -0.6017
vn -0.7634 -0.1732 -0.6223
vn -0.9525 -0.0551 0.2997
vn 0.8872 0.3256 0.3269
vn 0.7393 0.4495 0.5013
vn 0.8601 0.4727 -0.1918
vn -0.8880 -0.2656 -0.3753
vn -0.9650 -0.1750 -0.1953
vn -0.7791 0.2527 -0.5737
vn -0.9922 -0.0526 0.1127
vn -0.3350 0.6709 0.6615
vn 0.9974 0.0709 -0.0131
vn -0.7230 -0.0403 -0.6897
vn -0.6651 -0.4798 -0.5722
vn -0.8381 -0.4117 0.3579
vn 0.8802 0.3473 0.3234
vn 0.3986 0.7619 0.5106
vn -0.7899 0.5896 -0.1686
vn -0.6239 -0.7714 -0.1250
vn 0.7149 -0.2322 0.6595
vn -0.0791 -0.7785 -0.6226
vn 0.5495 0.8105 -0.2031
vn 0.9316 -0.3621 -0.0327
vn -0.4641 0.3913 -0.7947
vn 0.5609 -0.6213 0.5471
vn 0.0714 0.9393 0.3357
vn -0.9401 0.2121 -0.2667
vn -0.2763 -0.9589 0.0651
vt 0.375000 0.000000
vt 0.500000 0.000000
vt 0.500000 0.125000
vt 0.375000 0.125000
vt 0.625000 0.125000
vt 0.500000 0.625000
vt 0.625000 0.750000
vt 0.500000 0.750000
vt 0.375000 0.625000
vt 0.375000 0.750000
vt 0.625000 0.875000
vt 0.500000 0.875000
vt 0.250000 0.625000
vt 0.250000 0.750000
vt 0.625000 0.000000
vt 0.625000 0.250000
vt 0.375000 0.250000
vt 0.375000 0.500000
vt 0.625000 0.500000
vt 0.753578 0.750000
vt 0.875000 0.500000
vt 0.375000 0.000000
vt 0.625000 0.129147
vt 0.625000 0.376290
vt 0.625000 0.624943
vt 0.625000 0.884972
vt 0.875000 0.750000
vt 0.749987 0.624987
vt 0.875000 0.620853
vt 0.748710 0.500000
vt 0.759972 0.750000
vt 0.625000 1.000000
s 0
usemtl Green
f 147/62/166 150/63/166 153/64/166 149/65/166
f 150/63/167 148/66/167 153/64/167
f 154/67/168 148/68/168 152/69/168
f 151/70/169 154/67/169 152/69/169 147/71/169
f 152/69/170 148/72/170 150/73/170
f 149/74/171 151/70/171 147/75/171
f 155/76/172 157/77/172 156/78/172
f 156/78/173 157/77/173 158/79/173
f 158/80/174 155/81/174 152/81/174 150/80/174
f 158/80/175 157/82/175 155/81/175
f 155/83/176 156/78/176 147/78/176 152/83/176
f 156/78/177 158/79/177 150/79/177 147/78/177
f 159/62/178 149/65/178 153/64/178 160/63/178
f 160/63/179 153/64/179 148/66/179
f 154/67/180 161/69/180 148/68/180
f 151/70/181 159/71/181 161/69/181 154/67/181
f 161/69/182 160/73/182 148/72/182
f 149/74/183 159/75/183 151/70/183
f 162/76/184 163/78/184 164/77/184
f 163/78/185 165/79/185 164/77/185
f 165/80/186 160/80/186 161/81/186 162/81/186
f 165/80/187 162/81/187 164/82/187
f 162/83/188 161/83/188 159/78/188 163/78/188
f 163/78/189 159/78/189 160/79/189 165/79/189
f 166/83/190 168/84/190 169/77/190
f 166/78/191 174/85/191 173/80/191
f 166/79/192 175/86/192 171/68/192
f 166/71/193 171/68/193 170/87/193
f 167/88/194 172/89/194 169/82/194 168/90/194
f 173/80/195 172/89/195 171/68/195 175/86/195
f 169/82/196 172/89/196 173/80/196 174/91/196
f 171/68/197 172/89/197 167/88/197 170/92/197
f 170/87/198 167/93/198 166/71/198
f 168/84/199 166/83/199 167/76/199
f 174/85/200 166/78/200 169/77/200
f 175/86/201 166/79/201 173/80/201
