# Blender 4.0.2
# www.blender.org
mtllib PlayerWalk.mtl
o Player
v -1.092245 8.760242 1.348601
v -0.046275 8.075069 0.634455
v -0.083746 10.011665 1.483588
v -0.075228 9.518754 0.458262
v -2.667695 9.341487 2.404496
v -0.062474 8.996489 2.331708
v -0.045982 8.138313 1.866000
v 0.973402 8.801353 1.345998
v 2.356343 8.667053 1.700829
v 0.074551 12.093718 1.672434
v 0.426730 10.681700 1.670102
v 0.264167 12.352536 2.634173
v -0.075055 9.978107 2.751893
v -0.073031 10.488208 1.499773
v 0.536458 11.061039 1.600240
v 0.534746 10.843914 2.678604
v -0.074795 11.691411 2.734635
v 0.535724 11.699243 2.126071
v -0.072769 11.780599 1.444128
v 0.535583 10.480209 2.110240
v -0.073767 11.475790 2.057365
v -0.075308 10.719216 2.978107
v -0.074011 10.250374 2.106303
v 0.666312 11.089708 2.118360
v -0.072602 11.100710 1.277770
v 0.285872 10.958813 2.891361
v 0.232003 10.853173 2.669333
v -0.220715 12.093758 1.671974
v -0.573269 10.681836 1.668541
v -0.413262 12.352628 2.633116
v -0.682676 11.061205 1.598336
v -0.684389 10.844080 2.676701
v -0.683410 11.699409 2.124168
v -0.683551 10.480375 2.108337
v -0.814139 11.089910 2.116049
v -0.436149 10.958911 2.890233
v -0.381616 10.853256 2.668375
v -0.000365 7.226405 0.335031
v -0.964642 6.590196 -0.461125
v -1.236605 7.372004 -0.120304
v -0.055169 8.354632 0.844664
v -0.000057 7.438934 -0.497396
v 1.033346 6.676912 -0.438246
v 1.228697 7.479003 -0.092072
v 2.106911 9.272872 2.376894
v 1.745691 8.389148 2.571173
v 3.180886 9.106997 2.169913
v 2.803553 7.899019 2.415664
v 1.869766 9.177207 1.428904
v 2.770443 8.996119 1.135756
v 2.526676 8.015598 1.224073
v -2.086622 9.772425 3.006942
v -1.938498 8.809801 3.031557
v -3.179062 9.899862 3.125735
v -3.089429 8.614776 3.175791
v -2.156579 9.751137 2.027796
v -3.117226 9.833789 2.011263
v -3.132924 8.820741 1.965076
v 2.053512 0.351873 1.162963
v 2.342937 -0.181921 1.001237
v 0.841273 1.085854 -0.898878
v 1.777253 0.155356 -0.618404
v 1.739560 -0.186066 1.295175
v 0.740484 0.188571 -0.351316
v 1.245437 -0.286633 -0.630107
v -2.798724 0.939855 1.491865
v -3.055720 0.537721 1.083086
v -1.317827 2.411943 0.113700
v -2.272085 1.495746 -0.151863
v -2.499702 0.381686 1.425107
v -1.283718 1.364029 0.239433
v -1.738351 1.074466 -0.278238
v -1.793512 1.560836 0.501858
v -1.227543 5.388767 1.795047
v -1.291894 5.165497 2.383998
v -1.200091 4.723768 1.196933
v -1.100876 3.929395 1.873664
v -1.829231 4.038134 1.823756
v 1.231536 0.448714 -0.101186
v 1.080264 4.477104 0.527231
v 1.065726 4.347764 1.146839
v 1.012861 3.730815 0.038121
v 0.753017 3.076271 0.814581
v 1.490994 3.087603 0.823285
v -0.988095 6.353759 -0.341799
v -1.253706 5.499759 2.005874
v -1.283867 4.897250 2.097486
v -1.180750 5.674164 2.483400
v -0.776241 5.023629 1.714559
v -1.777416 5.096605 1.627253
v 1.037086 6.547648 -0.419056
v 1.097904 4.537831 0.976890
v 1.053638 4.007102 0.679089
v 1.021408 4.391107 1.463091
v 0.584095 4.402103 0.469825
v 1.590135 4.390146 0.414702
v 1.170045 5.861519 2.095223
v 2.335262 7.929121 1.499337
v 2.286794 8.387096 2.198844
v 2.184397 7.343796 1.287967
v 2.045446 7.206732 2.558486
v 1.371167 7.503648 2.311190
v -1.736389 6.427759 2.181106
v -2.802004 8.630258 2.145809
v -2.503756 9.000637 2.835206
v -2.781504 8.063314 1.848828
v -2.292677 7.772372 3.001528
v -1.692843 8.044893 2.589341
v -1.755491 6.458375 2.196182
v -0.763481 4.918356 2.271652
v -0.990202 4.462497 0.896016
v -0.305504 4.737883 2.644296
v -0.974246 5.250970 1.542596
v -1.210673 4.816026 2.448261
v 1.194927 5.894375 2.100306
v 0.280760 4.392162 2.619050
v 0.089986 3.800906 1.290288
v -0.044062 4.259044 3.126936
v 0.262340 4.648100 1.831183
v 0.760938 4.296970 2.663897
v -0.413632 4.196535 2.003984
v -0.076546 3.436399 1.786853
v -0.840516 4.048399 2.868893
v -0.432819 3.007210 2.661711
v 0.331834 4.435573 2.374529
v 0.059690 4.314794 3.171371
v 0.424145 3.500351 3.106106
v -0.295257 4.455013 1.617209
v -0.917608 4.375741 1.029862
v -0.409719 3.691880 2.214508
v -1.258000 3.505333 1.480452
v -0.803480 4.957569 2.106401
v -0.983501 4.349755 2.673641
v -1.714535 4.194257 2.181895
vn -0.3624 0.8388 -0.4063
vn -0.6079 -0.1082 -0.7866
vn -0.5264 -0.8491 0.0437
vn 0.1059 0.6388 0.7620
vn -0.1139 -0.9323 0.3433
vn -0.5852 -0.3954 0.7080
vn -0.5875 -0.1465 -0.7959
vn 0.4723 0.7959 -0.3787
vn 0.6098 -0.0840 -0.7881
vn 0.5598 -0.8275 0.0424
vn 0.2760 0.6196 0.7348
vn -0.1154 -0.9905 0.0748
vn 0.6022 -0.3718 0.7065
vn 0.1114 -0.7045 -0.7009
vn -0.7477 -0.1239 0.6524
vn -0.3005 0.9087 -0.2898
vn -0.0409 -0.8984 0.4373
vn 0.3811 -0.8378 -0.3909
vn 0.3303 -0.8699 -0.3663
vn 0.9300 -0.2433 -0.2755
vn 0.8568 0.3285 -0.3975
vn 0.9408 0.1831 0.2852
vn 0.8649 -0.4222 0.2714
vn 0.5085 0.2519 -0.8234
vn 0.4219 -0.2988 -0.8560
vn -0.6856 0.2475 -0.6846
vn -0.3540 0.8377 0.4158
vn 0.0717 0.2423 0.9676
vn 0.6805 0.1432 0.7186
vn -0.0605 0.1802 0.9818
vn 0.4678 -0.2579 0.8454
vn 0.0153 0.9116 0.4107
vn 0.5758 -0.7836 0.2331
vn 0.7456 -0.1241 0.6547
vn 0.3016 0.9086 -0.2888
vn 0.0393 -0.8984 0.4375
vn -0.3801 -0.8377 -0.3921
vn -0.3294 -0.8698 -0.3674
vn -0.9292 -0.2431 -0.2785
vn -0.8555 0.3287 -0.4001
vn -0.9417 0.1834 0.2822
vn -0.8659 -0.4219 0.2687
vn -0.5059 0.2520 -0.8250
vn -0.4193 -0.2986 -0.8573
vn 0.6878 0.2473 -0.6825
vn 0.3529 0.8376 0.4169
vn -0.0746 0.2423 0.9673
vn -0.6827 0.1434 0.7165
vn 0.0575 0.1802 0.9819
vn -0.4705 -0.2578 0.8439
vn -0.0163 0.9116 0.4107
vn -0.5768 -0.7835 0.2313
vn -0.2132 0.8029 -0.5566
vn -0.3529 -0.4744 0.8065
vn -0.3579 -0.3988 0.8443
vn -0.2933 0.2945 -0.9095
vn 0.6447 -0.7407 -0.1889
vn 0.1555 0.8190 -0.5524
vn 0.3742 -0.4428 0.8148
vn 0.3718 -0.3671 0.8527
vn 0.2874 0.3197 -0.9029
vn -0.5736 -0.7936 -0.2028
vn 0.2054 0.1315 0.9698
vn 0.9108 -0.3015 -0.2820
vn -0.3110 -0.0083 -0.9504
vn -0.8953 0.4062 0.1830
vn 0.1351 0.9800 -0.1463
vn -0.4193 -0.9078 0.0086
vn -0.8348 -0.4066 -0.3712
vn 0.1150 0.0451 0.9923
vn -0.9994 -0.0322 -0.0098
vn 0.0211 0.0452 -0.9988
vn 0.9860 0.1498 -0.0737
vn 0.0996 0.9941 -0.0419
vn 0.1437 -0.9747 -0.1710
vn 0.5569 -0.5420 -0.6293
vn 0.7608 0.6216 -0.1866
vn -0.2488 -0.2562 -0.9341
vn -0.6120 -0.7659 0.1971
vn 0.4379 -0.0348 0.8984
vn -0.6941 0.4620 0.5520
vn 0.6013 -0.7140 -0.3587
vn 0.0287 -0.9986 0.0448
vn -0.7348 0.6782 -0.0061
vn 0.3810 0.1477 -0.9127
vn 0.5878 -0.8064 -0.0652
vn -0.5595 -0.3874 0.7328
vn 0.6036 0.1539 0.7823
vn -0.5357 -0.4679 -0.7029
vn -0.0220 -0.9226 -0.3851
vn 0.9951 0.0887 0.0439
vn -0.1213 -0.3948 0.9107
vn -0.8937 0.3935 -0.2156
vn -0.8104 0.2667 -0.5217
vn -0.1298 -0.4682 0.8740
vn 0.9533 -0.1178 -0.2780
vn -0.9744 0.2129 -0.0720
vn -0.0076 -0.2511 0.9679
vn 0.9530 0.2432 -0.1808
vn 0.8787 0.0785 -0.4708
vn -0.0061 -0.3301 0.9439
vn -0.9346 -0.0473 -0.3526
vn 0.0899 -0.4526 0.8872
vn -0.0369 -0.9334 -0.3570
vn -0.3273 -0.3852 0.8629
vn -0.7632 0.6381 0.1014
vn -0.0140 -0.8402 -0.5421
vn 0.9105 0.3837 0.1544
vn -0.1865 -0.8853 0.4260
vn -0.0530 -0.5159 -0.8550
vn 0.2364 -0.8687 0.4352
vn 0.8136 0.3790 0.4410
vn -0.0552 -0.3722 -0.9265
vn -0.8594 0.3398 0.3821
vn 0.9706 -0.2050 0.1257
vn -0.1975 0.3225 0.9257
vn -0.6721 0.5233 -0.5239
vn -0.7572 0.1755 -0.6292
vn -0.3727 -0.0760 0.9249
vn 0.8328 -0.5527 0.0314
vn -0.9075 -0.1457 0.3940
vn 0.4919 0.1993 0.8476
vn 0.5407 0.5285 -0.6545
vn 0.5544 0.1896 -0.8103
vn 0.6164 -0.2083 0.7594
vn -0.8403 -0.4897 0.2327
vn 0.9279 -0.1550 -0.3390
vn -0.9709 0.1632 -0.1751
vn 0.2440 -0.9681 0.0569
vn -0.2042 0.0820 0.9755
vn -0.8553 -0.3433 -0.3881
vn 0.7746 0.6035 -0.1891
vn -0.9857 -0.1654 -0.0307
vn 0.8735 0.1231 -0.4711
vn -0.2095 -0.9522 0.2222
vn 0.4852 0.1707 0.8576
vn 0.7029 -0.3988 -0.5890
vn -0.7997 0.6003 -0.0089
vn -0.8518 -0.2429 -0.4641
vn -0.2834 -0.2537 0.9248
vn 0.8652 0.3591 0.3499
vn 0.3087 0.3853 -0.8696
vn -0.3034 0.9525 0.0265
vn 0.5568 -0.8127 -0.1719
vn 0.9231 -0.1763 -0.3418
vn 0.6144 -0.5401 -0.5752
vn -0.3014 -0.7442 0.5960
vn -0.5099 0.6628 0.5484
vn 0.3445 0.8101 -0.4744
vn 0.7880 0.2915 0.5424
vn -0.8242 0.0296 -0.5655
vn -0.6240 0.7132 -0.3193
vt 0.375000 0.500000
vt 0.440405 0.500000
vt 0.375000 0.625000
vt 0.500000 0.625000
vt 0.625000 0.625000
vt 0.625000 0.750000
vt 0.500000 0.750000
vt 0.625000 0.875000
vt 0.561728 0.875000
vt 0.250000 0.625000
vt 0.375000 0.750000
vt 0.500000 0.875000
vt 0.625000 0.500000
vt 0.750000 0.500000
vt 0.750000 0.625000
vt 0.750000 0.750000
vt 0.522410 0.825377
vt 0.509034 0.820007
vt 0.250000 0.500000
vt 0.250000 0.750000
vt 0.500000 0.500000
vt 0.500000 0.375000
vt 0.625000 0.375000
vt 0.375000 0.375000
vt 0.500000 0.816380
vt 0.375000 0.375000
vt 0.625000 0.375000
vt 0.250000 0.500000
vt 0.625000 0.875000
vt 0.375000 0.000000
vt 0.625000 0.000000
vt 0.625000 0.250000
vt 0.375000 0.250000
vt 0.625000 0.645984
vt 0.544393 0.750000
vt 0.625000 1.000000
vt 0.375000 1.000000
vt 0.125000 0.500000
vt 0.125000 0.750000
vt 0.875000 0.500000
vt 0.753578 0.750000
vt 0.625000 0.878578
vt 1.000000 0.750000
vt 1.000000 1.000000
vt 0.666667 1.000000
vt 0.666667 0.750000
vt 0.333333 1.000000
vt 0.333333 0.750000
vt -0.000000 1.000000
vt -0.000000 0.750000
vt 0.333333 0.500000
vt 0.666667 0.500000
vt 1.000000 0.500000
s 0
usemtl Material
f 16/7/17 26/17/17 27/18/17
f 27/18/32 22/25/32 16/7/32
f 22/12/33 27/18/33 26/17/33
f 32/7/36 37/18/36 36/17/36
f 37/18/51 32/7/51 22/25/51
f 22/12/52 36/17/52 37/18/52
usemtl Green
f 6/10/5 5/3/5 1/11/5
f 3/1/8 9/3/8 4/2/8
f 8/7/10 7/9/10 2/8/10
f 25/22/24 19/23/24 10/13/24 15/21/24
f 17/16/26 12/6/26 18/5/26
f 12/6/29 26/17/29 16/7/29
f 22/25/31 13/11/31 16/7/31
f 14/19/37 23/10/37 34/3/37 29/1/37
f 31/21/40 35/4/40 33/5/40 28/13/40
f 33/5/46 21/15/46 19/14/46
f 17/8/49 30/6/49 36/17/49
f 40/1/54 39/6/54 38/11/54
f 41/26/58 44/1/58 42/27/58
f 42/29/62 43/6/62 38/11/62
f 45/30/63 46/31/63 48/32/63 47/33/63
f 52/30/70 54/33/70 55/32/70 53/31/70
f 58/34/76 56/35/76 53/42/76
f 61/38/81 64/1/81 63/11/81 59/39/81
f 65/13/82 62/40/82 60/41/82
f 68/33/85 71/1/85 72/13/85 69/32/85
f 70/35/87 66/37/87 67/36/87
f 72/34/90 70/35/90 67/42/90
f 73/51/94 78/48/94 76/50/94
f 82/43/97 83/46/97 81/45/97 80/44/97
f 88/43/103 86/44/103 87/45/103 89/46/103
f 85/51/106 90/48/106 88/50/106
f 95/46/110 96/48/110 93/47/110
f 91/51/112 94/50/112 96/48/112
f 100/43/115 98/44/115 99/45/115 101/46/115
f 97/52/119 101/46/119 102/48/119
f 108/48/123 106/50/123 104/49/123 105/47/123
f 103/52/125 108/48/125 107/46/125
f 112/43/127 110/44/127 111/45/127 113/46/127
f 113/46/128 111/47/128 114/48/128
f 115/51/136 118/50/136 120/48/136
f 115/52/137 120/48/137 119/46/137
f 123/33/140 124/32/140 127/13/140 126/1/140
f 125/35/142 122/36/142 121/37/142
f 133/1/148 132/11/148 134/34/148
f 134/13/151 129/41/151 131/40/151
usemtl Yellow
f 1/7/3 2/8/3 7/9/3
f 5/3/7 4/2/7 1/4/7
f 8/4/9 2/6/9 4/5/9
f 6/10/12 8/11/12 9/3/12
f 15/21/21 10/13/21 18/5/21 24/4/21
f 14/24/25 25/22/25 15/21/25 11/1/25
f 22/12/28 26/17/28 17/8/28
f 28/13/34 33/5/34 19/14/34
f 33/5/35 17/16/35 21/15/35
f 34/3/42 13/11/42 32/7/42 35/4/42
f 25/22/43 31/21/43 28/13/43 19/23/43
f 30/6/48 32/7/48 36/17/48
f 40/1/56 42/27/56 39/13/56
f 41/28/60 38/11/60 44/1/60
f 50/1/65 51/34/65 49/11/65
f 51/13/68 48/40/68 46/41/68
f 54/38/74 52/39/74 56/11/74 57/1/74
f 58/13/75 53/41/75 55/40/75
f 61/33/78 62/32/78 65/13/78 64/1/78
f 65/34/83 60/42/83 63/35/83
f 68/38/88 66/39/88 70/11/88 71/1/88
f 76/43/91 74/44/91 75/45/91 77/46/91
f 73/52/95 77/46/95 78/48/95
f 79/51/100 82/50/100 84/48/100
f 89/46/104 87/47/104 90/48/104
f 85/53/108 88/43/108 89/46/108
f 91/52/113 96/48/113 95/46/113
f 97/51/118 102/48/118 100/50/118
f 103/51/124 106/50/124 108/48/124
f 109/52/131 113/46/131 114/48/131
f 120/48/135 118/50/135 116/49/135 117/47/135
f 127/13/144 124/40/144 122/41/144
f 130/33/147 133/1/147 134/13/147 131/32/147
f 132/35/149 128/37/149 129/36/149
usemtl Pink
f 3/1/1 4/2/1 5/3/1
f 3/1/4 5/3/4 6/10/4
f 7/9/13 8/7/13 6/12/13
f 10/13/15 19/14/15 18/5/15
f 18/5/16 21/15/16 17/16/16
f 14/19/18 11/1/18 20/3/18 23/10/18
f 20/3/23 24/4/23 16/7/23 13/11/23
f 23/10/38 13/20/38 34/3/38
f 29/1/39 34/3/39 35/4/39 31/21/39
f 35/4/41 32/7/41 30/6/41 33/5/41
f 17/16/45 33/5/45 30/6/45
f 22/12/47 17/8/47 36/17/47
f 41/26/53 42/27/53 40/1/53
f 44/1/59 38/11/59 43/6/59
f 44/1/61 43/13/61 42/27/61
f 47/38/67 50/1/67 49/11/67 45/39/67
f 51/34/69 46/42/69 49/35/69
f 57/1/72 56/11/72 58/34/72
f 56/35/73 52/37/73 53/36/73
f 64/1/79 65/34/79 63/11/79
f 63/35/80 60/36/80 59/37/80
f 66/30/84 68/33/84 69/32/84 67/31/84
f 71/1/86 70/11/86 72/34/86
f 78/48/93 75/47/93 74/49/93 76/50/93
f 73/53/96 76/43/96 77/46/96
f 84/48/99 82/50/99 80/49/99 81/47/99
f 79/52/101 84/48/101 83/46/101
f 85/52/107 89/46/107 90/48/107
f 94/43/109 95/46/109 93/45/109 92/44/109
f 101/46/116 99/47/116 102/48/116
f 97/53/120 100/43/120 101/46/120
f 107/46/122 108/48/122 105/47/122
f 103/53/126 107/46/126 106/43/126
f 109/51/130 114/48/130 112/50/130
f 118/43/133 119/46/133 117/45/133 116/44/133
f 121/30/139 122/31/139 124/32/139 123/33/139
f 126/1/141 127/34/141 125/11/141
f 127/34/145 122/42/145 125/35/145
f 130/38/150 128/39/150 132/11/150 133/1/150
usemtl Violet
f 1/4/2 4/5/2 2/6/2
f 7/9/6 6/12/6 1/7/6
f 3/1/11 6/10/11 9/3/11
f 9/3/14 8/4/14 4/2/14
f 23/10/19 20/3/19 13/20/19
f 11/1/20 15/21/20 24/4/20 20/3/20
f 24/4/22 18/5/22 12/6/22 16/7/22
f 18/5/27 19/14/27 21/15/27
f 17/8/30 26/17/30 12/6/30
f 14/24/44 29/1/44 31/21/44 25/22/44
f 22/25/50 32/7/50 13/11/50
f 41/28/55 40/1/55 38/11/55
f 42/29/57 38/11/57 39/6/57
f 47/33/64 48/32/64 51/13/64 50/1/64
f 49/35/66 46/36/66 45/37/66
f 54/33/71 57/1/71 58/13/71 55/32/71
f 59/30/77 60/31/77 62/32/77 61/33/77
f 72/13/89 67/41/89 69/40/89
f 77/46/92 75/47/92 78/48/92
f 83/46/98 84/48/98 81/47/98
f 79/53/102 83/46/102 82/43/102
f 90/48/105 87/47/105 86/49/105 88/50/105
f 96/48/111 94/50/111 92/49/111 93/47/111
f 91/53/114 95/46/114 94/43/114
f 102/48/117 99/47/117 98/49/117 100/50/117
f 106/43/121 107/46/121 105/45/121 104/44/121
f 114/48/129 111/47/129 110/49/129 112/50/129
f 109/53/132 112/43/132 113/46/132
f 119/46/134 120/48/134 117/47/134
f 115/53/138 119/46/138 118/43/138
f 123/38/143 126/1/143 125/11/143 121/39/143
f 128/30/146 130/33/146 131/32/146 129/31/146
f 134/34/152 132/35/152 129/42/152
o Sword
v -0.341466 3.459835 3.738124
v -0.072513 3.007408 3.681497
v -0.246376 4.004154 3.969696
v 2.719157 2.327678 11.523464
v -1.498340 4.266944 -0.221904
v 0.287282 3.954432 3.791544
v 0.594851 3.556319 3.579787
v -0.355511 3.584863 3.401142
v -0.206827 3.332608 3.364213
v -0.300040 3.886165 3.534223
v -0.003675 3.858900 3.431374
v 0.165743 3.638149 3.308202
vn -0.9125 -0.2523 0.3220
vn 0.4815 0.8758 0.0328
vn 0.4800 0.6739 -0.5617
vn -0.8597 -0.4906 -0.1426
vn 0.3581 -0.5720 -0.7380
vn 0.5855 -0.7627 -0.2746
vn -0.9866 0.1378 0.0877
vn -0.9508 0.0393 0.3073
vn 0.1135 0.9915 0.0643
vn 0.5481 -0.7399 -0.3902
vn -0.8385 -0.5187 0.1669
vn 0.0016 0.9657 -0.2598
vn 0.7122 0.6676 -0.2168
vt 0.375000 0.000000
vt 0.625000 0.000000
vt 0.625000 0.250000
vt 0.375000 0.250000
vt 0.625000 0.500000
vt 0.375000 0.500000
vt 0.753578 0.750000
vt 0.875000 0.500000
s 0
usemtl Yellow
f 135/54/153 136/55/153 138/56/153 137/57/153
f 137/57/154 138/56/154 141/58/154 140/59/154
f 140/59/155 141/58/155 146/58/155 145/59/155
f 136/55/156 135/54/156 142/54/156 143/55/156
f 141/58/157 136/60/157 143/60/157 146/58/157
f 141/58/158 138/61/158 136/60/158
f 135/54/159 137/57/159 144/57/159 142/54/159
f 142/54/160 144/57/160 139/54/160
f 144/57/161 145/59/161 139/57/161
f 146/58/162 143/60/162 139/58/162
f 143/55/163 142/54/163 139/55/163
f 137/57/164 140/59/164 145/59/164 144/57/164
f 145/59/165 146/58/165 139/59/165
o Cube.007
v -0.838360 4.284420 2.946120
v -1.733728 6.072783 2.328483
v -1.021796 3.919850 2.493807
v -1.209874 5.308311 3.238105
v -1.006246 4.167601 2.414266
v -0.907402 4.879811 2.889800
v -1.799172 5.165905 2.624930
v -1.183774 4.750075 2.360173
v -0.410996 4.503728 3.331807
v -0.728731 4.406176 3.477233
v -0.164897 6.412109 4.957160
v -0.738450 4.898252 3.365311
v -1.405398 4.026773 2.032762
v -2.073692 4.915818 1.846707
v -1.532724 4.595683 1.882560
v -1.582225 3.971555 1.445246
v -1.832706 3.904561 1.699001
v -3.299438 4.987864 -0.091811
v -1.860098 4.388608 1.558612
v -0.112942 2.384217 2.344060
v -1.001621 3.172623 2.657099
v -0.754514 3.101929 2.327774
v -0.901739 3.254608 1.984138
v -0.612049 3.169458 2.589436
v -0.409002 3.492420 2.784017
v -0.366606 2.846944 2.362748
v -0.309119 3.574406 2.111055
v -0.530479 3.231575 2.159447
v -0.373668 3.307149 2.416657
vn -0.6179 -0.4348 0.6550
vn -0.7256 0.2605 0.6369
vn 0.8045 0.3225 -0.4988
vn 0.8992 0.1497 -0.4111
vn 0.8202 0.5721 0.0085
vn 0.9522 -0.1460 -0.2685
vn 0.4774 -0.6046 0.6376
vn -0.9536 0.0488 0.2972
vn 0.6983 0.6614 -0.2737
vn 0.5391 0.5047 -0.6742
vn 0.7173 -0.4194 -0.5564
vn -0.7776 -0.2634 0.5710
vn -0.7440 -0.4921 0.4520
vn -0.9459 0.1605 0.2821
vn 0.7268 0.2872 -0.6239
vn 0.7387 0.0768 -0.6696
vn 0.2447 0.3106 -0.9185
vn 0.7136 -0.2544 -0.6527
vn -0.1696 -0.8986 -0.4047
vn -0.7154 0.1570 0.6809
vn 0.4047 0.5281 -0.7466
vn 0.7062 0.5807 -0.4051
vn 0.9117 -0.3311 -0.2433
vn -0.7894 -0.2687 0.5519
vn -0.7456 -0.6660 0.0235
vn 0.0661 -0.1812 -0.9812
vn 0.9603 0.2749 -0.0463
vn -0.2041 -0.4078 0.8899
vn 0.5290 0.8294 0.1796
vn -0.9892 0.0020 -0.1466
vn -0.3573 0.3129 0.8800
vn -0.0993 0.5205 -0.8481
vn 0.1662 -0.1963 0.9663
vn -0.6851 -0.6210 -0.3807
vn 0.4277 0.0138 -0.9038
vn 0.8960 0.2229 0.3842
vt 0.375000 0.000000
vt 0.500000 0.000000
vt 0.500000 0.125000
vt 0.375000 0.125000
vt 0.625000 0.125000
vt 0.500000 0.625000
vt 0.625000 0.750000
vt 0.500000 0.750000
vt 0.375000 0.625000
vt 0.375000 0.750000
vt 0.625000 0.875000
vt 0.500000 0.875000
vt 0.250000 0.625000
vt 0.250000 0.750000
vt 0.625000 0.000000
vt 0.625000 0.250000
vt 0.375000 0.250000
vt 0.375000 0.500000
vt 0.625000 0.500000
vt 0.753578 0.750000
vt 0.875000 0.500000
vt 0.375000 0.000000
vt 0.625000 0.129147
vt 0.625000 0.376290
vt 0.625000 0.624943
vt 0.625000 0.884972
vt 0.875000 0.750000
vt 0.749987 0.624987
vt 0.875000 0.620853
vt 0.748710 0.500000
vt 0.759972 0.750000
vt 0.625000 1.000000
s 0
usemtl Green
f 147/62/166 150/63/166 153/64/166 149/65/166
f 150/63/167 148/66/167 153/64/167
f 154/67/168 148/68/168 152/69/168
f 151/70/169 154/67/169 152/69/169 147/71/169
f 152/69/170 148/72/170 150/73/170
f 149/74/171 151/70/171 147/75/171
f 155/76/172 157/77/172 156/78/172
f 156/78/173 157/77/173 158/79/173
f 158/80/174 155/81/174 152/81/174 150/80/174
f 158/80/175 157/82/175 155/81/175
f 155/83/176 156/78/176 147/78/176 152/83/176
f 156/78/177 158/79/177 150/79/177 147/78/177
f 159/62/178 149/65/178 153/64/178 160/63/178
f 160/63/179 153/64/179 148/66/179
f 154/67/180 161/69/180 148/68/180
f 151/70/181 159/71/181 161/69/181 154/67/181
f 161/69/182 160/73/182 148/72/182
f 149/74/183 159/75/183 151/70/183
f 162/76/184 163/78/184 164/77/184
f 163/78/185 165/79/185 164/77/185
f 165/80/186 160/80/186 161/81/186 162/81/186
f 165/80/187 162/81/187 164/82/187
f 162/83/188 161/83/188 159/78/188 163/78/188
f 163/78/189 159/78/189 160/79/189 165/79/189
f 166/83/190 168/84/190 169/77/190
f 166/78/191 174/85/191 173/80/191
f 166/79/192 175/86/192 171/68/192
f 166/71/193 171/68/193 170/87/193
f 167/88/194 172/89/194 169/82/194 168/90/194
f 173/80/195 172/89/195 171/68/195 175/86/195
f 169/82/196 172/89/196 173/80/196 174/91/196
f 171/68/197 172/89/197 167/88/197 170/92/197
f 170/87/198 167/93/198 166/71/198
f 168/84/199 166/83/199 167/76/199
f 174/85/200 166/78/200 169/77/200
f 175/86/201 166/79/201 173/80/201
