# Blender 4.0.2
# www.blender.org
mtllib PlayerHitReceive.mtl
o Player
v -1.033029 9.106788 0.779730
v -0.000000 8.146464 0.489641
v 0.000000 10.253947 0.312584
v -0.000000 9.331761 -0.353674
v -2.471650 9.306521 1.273878
v 0.000000 9.765733 1.542215
v -0.000000 8.789199 1.542065
v 1.033029 9.106788 0.779730
v 2.506947 9.390362 1.119896
v 0.147633 12.694561 0.718582
v 0.500000 11.283363 0.671812
v 0.338715 12.923396 1.687604
v 0.000000 10.546393 1.731990
v 0.000000 11.095167 0.496330
v 0.609568 11.664711 0.613605
v 0.609568 11.414172 1.684700
v 0.000000 12.259405 1.767996
v 0.609568 12.286263 1.159020
v -0.000000 12.388663 0.480882
v 0.609568 11.068310 1.105306
v 0.000000 12.064941 1.084350
v -0.000000 11.280112 1.981131
v -0.000000 10.838595 1.095175
v 0.740226 11.677286 1.132163
v 0.000000 11.714273 0.293472
v 0.361011 11.522356 1.901312
v 0.306810 11.423659 1.676192
v -0.147633 12.694561 0.718582
v -0.500000 11.283363 0.671812
v -0.338715 12.923396 1.687604
v -0.609568 11.664711 0.613605
v -0.609568 11.414172 1.684700
v -0.609568 12.286263 1.159020
v -0.609568 11.068310 1.105306
v -0.740226 11.677286 1.132163
v -0.361011 11.522356 1.901312
v -0.306810 11.423659 1.676192
v -0.000000 7.221810 0.118213
v -1.000000 6.592729 -0.638567
v -1.233892 7.400480 -0.331681
v 0.000000 8.373487 0.575667
v -0.000000 7.395816 -0.723111
v 1.000000 6.592729 -0.638567
v 1.233892 7.400480 -0.331681
v 2.161844 10.146634 1.561771
v 1.840449 9.333624 1.991782
v 3.258089 10.019285 1.485554
v 2.936260 8.912037 2.062105
v 2.015495 9.752391 0.674512
v 2.947982 9.569999 0.509740
v 2.758693 8.643420 0.876164
v -2.077892 9.966008 1.818237
v -1.696124 9.093286 2.022686
v -3.173566 9.818207 1.856079
v -2.769701 8.627383 2.140365
v -2.045881 9.770722 0.856513
v -2.990371 9.593424 0.776195
v -2.746956 8.618219 0.911732
v 2.163643 0.054189 1.671371
v 2.453069 -0.464869 1.467241
v 0.951401 0.951607 -0.324764
v 1.887382 0.001569 -0.120030
v 1.849691 -0.492640 1.759894
v 0.850614 0.013197 0.148865
v 1.355567 -0.438049 -0.167240
v -3.319673 0.227566 -1.484432
v -3.396819 -0.291493 -1.830098
v -1.080518 1.124983 -2.147955
v -1.911222 0.174945 -2.625352
v -3.146674 -0.319263 -1.207893
v -1.324175 0.186572 -1.729489
v -1.485672 -0.264671 -2.302917
v -1.773560 0.433024 -1.832700
v -1.243826 4.406481 -1.073275
v -1.312410 4.265793 -0.459796
v -1.206519 3.665819 -1.574019
v -1.108829 2.972749 -0.793667
v -1.837337 3.068145 -0.864320
v 1.339673 0.289357 0.398386
v 1.109016 4.360754 0.271004
v 1.094113 4.347912 0.903829
v 1.058037 3.535748 -0.071756
v 0.807140 3.031057 0.812086
v 1.544722 3.058203 0.819259
v -0.973443 6.598901 -0.632867
v -1.334167 4.306375 -0.530752
v -1.264578 4.018049 -1.063992
v -1.350793 3.912945 -0.201044
v -0.747091 4.395312 -0.963152
v -1.727507 4.552003 -1.134995
v 1.005822 6.475776 -0.619059
v 1.124189 4.465128 0.755419
v 1.091547 3.936892 0.451741
v 1.054413 4.310950 1.240322
v 0.610883 4.322220 0.249820
v 1.616547 4.336434 0.188691
v 1.094384 6.900644 2.224292
v 2.464434 8.624243 1.156605
v 2.383059 9.281364 1.669411
v 2.291067 8.008850 1.120867
v 2.019681 8.286093 2.346346
v 1.396862 8.517142 1.943010
v -1.189158 6.546903 1.686586
v -2.485413 8.551140 1.147568
v -2.297234 9.076989 1.771646
v -2.373696 7.946557 0.968566
v -1.967344 7.937409 2.188037
v -1.365159 8.203662 1.775184
v -1.212920 6.579733 1.693598
v -0.166651 5.145563 2.151762
v -0.244919 4.421426 0.878543
v 0.262149 5.067920 2.589117
v -0.323046 5.318792 1.356709
v -0.623462 5.052199 2.307489
v 1.120944 6.929972 2.222722
v -0.041903 5.781243 3.053172
v -0.181044 4.809309 1.963417
v -0.430943 5.855525 3.526782
v 0.054006 5.765099 2.230300
v 0.413324 5.658135 3.191943
v -0.148408 4.859303 2.631603
v 0.701569 4.763486 2.714892
v -0.513882 4.673558 3.517135
v 0.595014 4.521373 3.718154
v -0.082125 5.706458 2.799218
v -0.370591 5.646126 3.597186
v 0.489459 5.593555 3.837924
v 0.325657 4.453790 1.952739
v -0.296694 3.963139 1.620291
v 0.211195 4.390297 2.919748
v -0.637086 3.718779 2.569464
v -0.182566 5.153447 1.904239
v -0.362587 5.171087 2.735436
v -1.093621 4.700883 2.523536
vn -0.4750 0.5154 -0.7133
vn -0.6090 -0.4598 -0.6463
vn -0.5432 -0.7165 0.4376
vn -0.2081 0.9091 0.3609
vn 0.0872 -0.8092 0.5811
vn -0.5938 -0.0001 0.8046
vn -0.2628 -0.8721 -0.4127
vn 0.4200 0.5315 -0.7356
vn 0.6090 -0.4598 -0.6463
vn 0.5432 -0.7165 0.4376
vn 0.1974 0.9111 0.3618
vn -0.0041 -0.7593 0.6507
vn 0.5938 -0.0001 0.8046
vn 0.2630 -0.8720 -0.4128
vn -0.7467 -0.1443 0.6494
vn -0.3011 0.9172 -0.2609
vn -0.0401 -0.9115 0.4093
vn 0.3806 -0.8252 -0.4174
vn 0.3299 -0.8580 -0.3937
vn 0.9296 -0.2345 -0.2844
vn 0.8561 0.3408 -0.3884
vn 0.9412 0.1744 0.2892
vn 0.8654 -0.4302 0.2568
vn 0.5072 0.2775 -0.8160
vn 0.4206 -0.2719 -0.8655
vn -0.6867 0.2685 -0.6755
vn -0.3535 0.8243 0.4422
vn 0.0731 0.2121 0.9745
vn 0.6816 0.1209 0.7217
vn -0.0590 0.1496 0.9870
vn 0.4691 -0.2840 0.8362
vn 0.0158 0.8984 0.4388
vn 0.5763 -0.7904 0.2078
vn 0.7467 -0.1443 0.6494
vn 0.3011 0.9172 -0.2609
vn 0.0401 -0.9115 0.4093
vn -0.3806 -0.8252 -0.4174
vn -0.3299 -0.8580 -0.3937
vn -0.9296 -0.2345 -0.2844
vn -0.8561 0.3408 -0.3884
vn -0.9412 0.1744 0.2892
vn -0.8654 -0.4302 0.2568
vn -0.5072 0.2775 -0.8160
vn -0.4206 -0.2719 -0.8655
vn 0.6867 0.2685 -0.6755
vn 0.3535 0.8243 0.4422
vn -0.0731 0.2121 0.9745
vn -0.6816 0.1209 0.7217
vn 0.0590 0.1496 0.9870
vn -0.4691 -0.2840 0.8362
vn -0.0158 0.8984 0.4388
vn -0.5763 -0.7904 0.2078
vn -0.1845 0.7852 -0.5911
vn -0.3639 -0.4210 0.8308
vn -0.3652 -0.3437 0.8652
vn -0.2906 0.2651 -0.9194
vn 0.6098 -0.7762 -0.1605
vn 0.1845 0.7852 -0.5911
vn 0.3639 -0.4210 0.8308
vn 0.3652 -0.3437 0.8652
vn 0.2906 0.2651 -0.9194
vn -0.6098 -0.7762 -0.1605
vn 0.1106 0.4321 0.8950
vn 0.9490 -0.2927 -0.1169
vn -0.2250 -0.3182 -0.9209
vn -0.9314 0.3639 -0.0081
vn 0.0864 0.8994 -0.4284
vn -0.3613 -0.8963 0.2571
vn -0.7720 -0.5689 -0.2834
vn 0.0041 0.2319 0.9727
vn -0.9537 -0.2957 -0.0551
vn 0.1049 -0.1112 -0.9882
vn 0.9192 0.3907 -0.0487
vn -0.1494 0.9653 -0.2144
vn 0.3994 -0.9167 0.0142
vn 0.7329 -0.4694 -0.4925
vn 0.7608 0.6346 -0.1360
vn -0.2488 -0.1802 -0.9516
vn -0.6120 -0.7793 0.1348
vn 0.4379 -0.1069 0.8927
vn -0.6941 0.4161 0.5874
vn 0.6013 -0.6828 -0.4150
vn 0.0287 -0.9990 -0.0357
vn -0.4720 0.6346 -0.6120
vn 0.8238 -0.1802 -0.5375
vn 0.3626 -0.7793 0.5111
vn -0.9242 -0.1069 0.3668
vn 0.1193 0.4161 0.9014
vn -0.1664 -0.6828 -0.7114
vn 0.0027 -0.9990 -0.0457
vn 0.9940 0.1014 0.0399
vn -0.1276 -0.2667 0.9553
vn -0.8940 0.3535 -0.2753
vn -0.8070 0.1864 -0.5603
vn -0.1352 -0.3446 0.9289
vn 0.9567 -0.1477 -0.2510
vn -0.9780 0.1768 -0.1110
vn -0.0072 -0.0679 0.9977
vn 0.9490 0.2241 -0.2217
vn 0.8792 0.0073 -0.4763
vn -0.0041 -0.1500 0.9887
vn -0.9319 -0.1299 -0.3387
vn 0.0661 -0.9913 -0.1141
vn 0.1760 0.0217 -0.9842
vn -0.3507 -0.9248 -0.1477
vn -0.8549 0.1972 0.4798
vn 0.1958 0.1650 -0.9667
vn 0.7873 -0.0115 0.6164
vn -0.1614 -0.8946 0.4167
vn -0.0451 -0.5073 -0.8606
vn 0.2610 -0.8674 0.4237
vn 0.8057 0.3962 0.4403
vn -0.0513 -0.3656 -0.9294
vn -0.8645 0.3162 0.3907
vn 0.9356 -0.1946 0.2945
vn -0.2615 0.6063 0.7510
vn -0.5768 0.3582 -0.7342
vn -0.6772 -0.0013 -0.7358
vn -0.4652 0.2355 0.8533
vn 0.7817 -0.5483 0.2972
vn -0.9189 -0.1853 0.3483
vn 0.3837 0.4129 0.8260
vn 0.5381 0.4636 -0.7039
vn 0.6044 0.1064 -0.7896
vn 0.5608 0.0153 0.8278
vn -0.7988 -0.5415 0.2621
vn 0.9612 -0.1609 -0.2241
vn -0.9566 0.0677 -0.2833
vn 0.2792 -0.9227 0.2659
vn -0.2971 0.2551 0.9201
vn -0.8000 -0.4624 -0.3824
vn 0.7620 0.6017 -0.2393
vn -0.9913 -0.0661 -0.1142
vn 0.9245 -0.1269 -0.3595
vn -0.3621 -0.8004 0.4778
vn 0.4169 0.3927 0.8197
vn 0.6949 -0.6386 -0.3307
vn -0.7027 0.6416 -0.3076
vn -0.0874 -0.9666 -0.2408
vn -0.2270 -0.0906 0.9697
vn 0.0361 0.9954 0.0883
vn 0.1164 0.1840 -0.9760
vn -0.9285 0.1530 -0.3383
vn 0.9886 0.0834 0.1251
vn 0.7129 0.6215 -0.3247
vn 0.6144 -0.7887 0.0191
vn -0.3014 -0.0518 0.9521
vn -0.5099 0.8506 -0.1285
vn 0.3445 0.1865 -0.9201
vn 0.7880 0.5986 0.1443
vn -0.8242 -0.4018 -0.3990
vn -0.6240 0.2374 -0.7445
vt 0.375000 0.500000
vt 0.440405 0.500000
vt 0.375000 0.625000
vt 0.500000 0.625000
vt 0.625000 0.625000
vt 0.625000 0.750000
vt 0.500000 0.750000
vt 0.625000 0.875000
vt 0.561728 0.875000
vt 0.250000 0.625000
vt 0.375000 0.750000
vt 0.500000 0.875000
vt 0.625000 0.500000
vt 0.750000 0.500000
vt 0.750000 0.625000
vt 0.750000 0.750000
vt 0.522410 0.825377
vt 0.509034 0.820007
vt 0.250000 0.500000
vt 0.250000 0.750000
vt 0.500000 0.500000
vt 0.500000 0.375000
vt 0.625000 0.375000
vt 0.375000 0.375000
vt 0.500000 0.816380
vt 0.375000 0.375000
vt 0.625000 0.375000
vt 0.250000 0.500000
vt 0.625000 0.875000
vt 0.375000 0.000000
vt 0.625000 0.000000
vt 0.625000 0.250000
vt 0.375000 0.250000
vt 0.625000 0.645984
vt 0.544393 0.750000
vt 0.625000 1.000000
vt 0.375000 1.000000
vt 0.125000 0.500000
vt 0.125000 0.750000
vt 0.875000 0.500000
vt 0.753578 0.750000
vt 0.625000 0.878578
vt 1.000000 0.750000
vt 1.000000 1.000000
vt 0.666667 1.000000
vt 0.666667 0.750000
vt 0.333333 1.000000
vt 0.333333 0.750000
vt -0.000000 1.000000
vt -0.000000 0.750000
vt 0.333333 0.500000
vt 0.666667 0.500000
vt 1.000000 0.500000
s 0
usemtl Material
f 16/7/17 26/17/17 27/18/17
f 27/18/32 22/25/32 16/7/32
f 22/12/33 27/18/33 26/17/33
f 32/7/36 37/18/36 36/17/36
f 37/18/51 32/7/51 22/25/51
f 22/12/52 36/17/52 37/18/52
usemtl Green
f 6/10/5 5/3/5 1/11/5
f 3/1/8 9/3/8 4/2/8
f 8/7/10 7/9/10 2/8/10
f 25/22/24 19/23/24 10/13/24 15/21/24
f 17/16/26 12/6/26 18/5/26
f 12/6/29 26/17/29 16/7/29
f 22/25/31 13/11/31 16/7/31
f 14/19/37 23/10/37 34/3/37 29/1/37
f 31/21/40 35/4/40 33/5/40 28/13/40
f 33/5/46 21/15/46 19/14/46
f 17/8/49 30/6/49 36/17/49
f 40/1/54 39/6/54 38/11/54
f 41/26/58 44/1/58 42/27/58
f 42/29/62 43/6/62 38/11/62
f 45/30/63 46/31/63 48/32/63 47/33/63
f 52/30/70 54/33/70 55/32/70 53/31/70
f 58/34/76 56/35/76 53/42/76
f 61/38/81 64/1/81 63/11/81 59/39/81
f 65/13/82 62/40/82 60/41/82
f 68/33/85 71/1/85 72/13/85 69/32/85
f 70/35/87 66/37/87 67/36/87
f 72/34/90 70/35/90 67/42/90
f 73/51/94 78/48/94 76/50/94
f 82/43/97 83/46/97 81/45/97 80/44/97
f 88/43/103 86/44/103 87/45/103 89/46/103
f 85/51/106 90/48/106 88/50/106
f 95/46/110 96/48/110 93/47/110
f 91/51/112 94/50/112 96/48/112
f 100/43/115 98/44/115 99/45/115 101/46/115
f 97/52/119 101/46/119 102/48/119
f 108/48/123 106/50/123 104/49/123 105/47/123
f 103/52/125 108/48/125 107/46/125
f 112/43/127 110/44/127 111/45/127 113/46/127
f 113/46/128 111/47/128 114/48/128
f 115/51/136 118/50/136 120/48/136
f 115/52/137 120/48/137 119/46/137
f 123/33/140 124/32/140 127/13/140 126/1/140
f 125/35/142 122/36/142 121/37/142
f 133/1/148 132/11/148 134/34/148
f 134/13/151 129/41/151 131/40/151
usemtl Yellow
f 1/7/3 2/8/3 7/9/3
f 5/3/7 4/2/7 1/4/7
f 8/4/9 2/6/9 4/5/9
f 6/10/12 8/11/12 9/3/12
f 15/21/21 10/13/21 18/5/21 24/4/21
f 14/24/25 25/22/25 15/21/25 11/1/25
f 22/12/28 26/17/28 17/8/28
f 28/13/34 33/5/34 19/14/34
f 33/5/35 17/16/35 21/15/35
f 34/3/42 13/11/42 32/7/42 35/4/42
f 25/22/43 31/21/43 28/13/43 19/23/43
f 30/6/48 32/7/48 36/17/48
f 40/1/56 42/27/56 39/13/56
f 41/28/60 38/11/60 44/1/60
f 50/1/65 51/34/65 49/11/65
f 51/13/68 48/40/68 46/41/68
f 54/38/74 52/39/74 56/11/74 57/1/74
f 58/13/75 53/41/75 55/40/75
f 61/33/78 62/32/78 65/13/78 64/1/78
f 65/34/83 60/42/83 63/35/83
f 68/38/88 66/39/88 70/11/88 71/1/88
f 76/43/91 74/44/91 75/45/91 77/46/91
f 73/52/95 77/46/95 78/48/95
f 79/51/100 82/50/100 84/48/100
f 89/46/104 87/47/104 90/48/104
f 85/53/108 88/43/108 89/46/108
f 91/52/113 96/48/113 95/46/113
f 97/51/118 102/48/118 100/50/118
f 103/51/124 106/50/124 108/48/124
f 109/52/131 113/46/131 114/48/131
f 120/48/135 118/50/135 116/49/135 117/47/135
f 127/13/144 124/40/144 122/41/144
f 130/33/147 133/1/147 134/13/147 131/32/147
f 132/35/149 128/37/149 129/36/149
usemtl Pink
f 3/1/1 4/2/1 5/3/1
f 3/1/4 5/3/4 6/10/4
f 7/9/13 8/7/13 6/12/13
f 10/13/15 19/14/15 18/5/15
f 18/5/16 21/15/16 17/16/16
f 14/19/18 11/1/18 20/3/18 23/10/18
f 20/3/23 24/4/23 16/7/23 13/11/23
f 23/10/38 13/20/38 34/3/38
f 29/1/39 34/3/39 35/4/39 31/21/39
f 35/4/41 32/7/41 30/6/41 33/5/41
f 17/16/45 33/5/45 30/6/45
f 22/12/47 17/8/47 36/17/47
f 41/26/53 42/27/53 40/1/53
f 44/1/59 38/11/59 43/6/59
f 44/1/61 43/13/61 42/27/61
f 47/38/67 50/1/67 49/11/67 45/39/67
f 51/34/69 46/42/69 49/35/69
f 57/1/72 56/11/72 58/34/72
f 56/35/73 52/37/73 53/36/73
f 64/1/79 65/34/79 63/11/79
f 63/35/80 60/36/80 59/37/80
f 66/30/84 68/33/84 69/32/84 67/31/84
f 71/1/86 70/11/86 72/34/86
f 78/48/93 75/47/93 74/49/93 76/50/93
f 73/53/96 76/43/96 77/46/96
f 84/48/99 82/50/99 80/49/99 81/47/99
f 79/52/101 84/48/101 83/46/101
f 85/52/107 89/46/107 90/48/107
f 94/43/109 95/46/109 93/45/109 92/44/109
f 101/46/116 99/47/116 102/48/116
f 97/53/120 100/43/120 101/46/120
f 107/46/122 108/48/122 105/47/122
f 103/53/126 107/46/126 106/43/126
f 109/51/130 114/48/130 112/50/130
f 118/43/133 119/46/133 117/45/133 116/44/133
f 121/30/139 122/31/139 124/32/139 123/33/139
f 126/1/141 127/34/141 125/11/141
f 127/34/145 122/42/145 125/35/145
f 130/38/150 128/39/150 132/11/150 133/1/150
usemtl Violet
f 1/4/2 4/5/2 2/6/2
f 7/9/6 6/12/6 1/7/6
f 3/1/11 6/10/11 9/3/11
f 9/3/14 8/4/14 4/2/14
f 23/10/19 20/3/19 13/20/19
f 11/1/20 15/21/20 24/4/20 20/3/20
f 24/4/22 18/5/22 12/6/22 16/7/22
f 18/5/27 19/14/27 21/15/27
f 17/8/30 26/17/30 12/6/30
f 14/24/44 29/1/44 31/21/44 25/22/44
f 22/25/50 32/7/50 13/11/50
f 41/28/55 40/1/55 38/11/55
f 42/29/57 38/11/57 39/6/57
f 47/33/64 48/32/64 51/13/64 50/1/64
f 49/35/66 46/36/66 45/37/66
f 54/33/71 57/1/71 58/13/71 55/32/71
f 59/30/77 60/31/77 62/32/77 61/33/77
f 72/13/89 67/41/89 69/40/89
f 77/46/92 75/47/92 78/48/92
f 83/46/98 84/48/98 81/47/98
f 79/53/102 83/46/102 82/43/102
f 90/48/105 87/47/105 86/49/105 88/50/105
f 96/48/111 94/50/111 92/49/111 93/47/111
f 91/53/114 95/46/114 94/43/114
f 102/48/117 99/47/117 98/49/117 100/50/117
f 106/43/121 107/46/121 105/45/121 104/44/121
f 114/48/129 111/47/129 110/49/129 112/50/129
f 109/53/132 112/43/132 113/46/132
f 119/46/134 120/48/134 117/47/134
f 115/53/138 119/46/138 118/43/138
f 123/38/143 126/1/143 125/11/143 121/39/143
f 128/30/146 130/33/146 131/32/146 129/31/146
f 134/34/152 132/35/152 129/42/152
o Sword
v -0.060255 5.096869 4.500015
v 0.457300 5.119054 4.608995
v -0.523543 5.476098 4.477637
v -0.042049 9.442618 11.737056
v -0.054857 3.328654 0.686229
v -0.159528 5.863156 4.286117
v 0.382139 5.897877 4.228459
v -0.062784 5.042955 4.144384
v 0.226818 5.052717 4.200410
v -0.319337 5.256692 4.136171
v -0.116240 5.470687 4.026119
v 0.185343 5.487346 3.989036
vn -0.3560 -0.8007 0.4817
vn -0.4742 0.7965 -0.3752
vn -0.1264 0.5412 -0.8313
vn 0.0078 -0.9882 0.1531
vn 0.8717 -0.1446 -0.4683
vn 0.9949 0.1003 0.0088
vn -0.6344 -0.7642 0.1161
vn -0.6057 -0.7135 0.3523
vn -0.7621 0.5385 -0.3594
vn 0.9938 0.0453 -0.1019
vn -0.0556 -0.8946 0.4434
vn -0.6963 0.3398 -0.6322
vn -0.1123 0.8355 -0.5379
vt 0.375000 0.000000
vt 0.625000 0.000000
vt 0.625000 0.250000
vt 0.375000 0.250000
vt 0.625000 0.500000
vt 0.375000 0.500000
vt 0.753578 0.750000
vt 0.875000 0.500000
s 0
usemtl Yellow
f 135/54/153 136/55/153 138/56/153 137/57/153
f 137/57/154 138/56/154 141/58/154 140/59/154
f 140/59/155 141/58/155 146/58/155 145/59/155
f 136/55/156 135/54/156 142/54/156 143/55/156
f 141/58/157 136/60/157 143/60/157 146/58/157
f 141/58/158 138/61/158 136/60/158
f 135/54/159 137/57/159 144/57/159 142/54/159
f 142/54/160 144/57/160 139/54/160
f 144/57/161 145/59/161 139/57/161
f 146/58/162 143/60/162 139/58/162
f 143/55/163 142/54/163 139/55/163
f 137/57/164 140/59/164 145/59/164 144/57/164
f 145/59/165 146/58/165 139/59/165
o Cube.007
v -0.276336 4.649446 2.929083
v -1.186900 6.228714 1.900401
v -0.401124 4.194479 2.543624
v -0.717171 5.685997 2.982558
v -0.388971 4.422847 2.418528
v -0.365487 5.217699 2.751401
v -1.240359 5.393285 2.362776
v -0.585687 4.972322 2.236600
v 0.103549 4.964070 3.298123
v -0.221797 4.877223 3.433135
v 0.115245 7.160123 4.531601
v -0.242321 5.337187 3.226320
v -0.744566 4.187607 2.040487
v -1.430466 4.982437 1.628883
v -0.881845 4.708388 1.771468
v -0.863590 4.010131 1.462710
v -1.133402 3.978060 1.703113
v -2.473092 4.607111 -0.380485
v -1.168519 4.423630 1.468604
v 0.583125 2.716378 2.774016
v -0.363952 3.495064 2.851613
v -0.084545 3.377559 2.564143
v -0.205714 3.452306 2.186249
v 0.029989 3.502507 2.818295
v 0.199986 3.868460 2.961734
v 0.309089 3.157918 2.680433
v 0.358223 3.825702 2.296369
v 0.148332 3.485793 2.392715
v 0.277201 3.618635 2.642121
vn -0.6567 -0.3376 0.6744
vn -0.7921 0.3336 0.5111
vn 0.8326 0.2688 -0.4843
vn 0.9262 0.1221 -0.3568
vn 0.7904 0.6115 -0.0364
vn 0.9784 -0.1370 -0.1550
vn 0.4419 -0.4411 0.7811
vn -0.9782 0.0472 0.2021
vn 0.6914 0.6376 -0.3397
vn 0.5770 0.3976 -0.7134
vn 0.7833 -0.4743 -0.4020
vn -0.8151 -0.1954 0.5454
vn -0.7608 -0.4403 0.4768
vn -0.9740 0.1542 0.1660
vn 0.7685 0.2056 -0.6060
vn 0.7936 -0.0087 -0.6083
vn 0.3152 0.1428 -0.9382
vn 0.7814 -0.3313 -0.5289
vn -0.0924 -0.9681 -0.2329
vn -0.7815 0.2412 0.5753
vn 0.4491 0.3985 -0.7997
vn 0.7150 0.5337 -0.4515
vn 0.9438 -0.3160 -0.0974
vn -0.8248 -0.2050 0.5269
vn -0.7151 -0.6929 0.0923
vn 0.1646 -0.3617 -0.9176
vn 0.9477 0.3184 -0.0199
vn -0.2680 -0.2411 0.9328
vn 0.4738 0.8788 0.0562
vn -0.9705 -0.0859 -0.2253
vn -0.4506 0.4538 0.7688
vn -0.0426 0.3412 -0.9390
vn 0.0842 0.0031 0.9964
vn -0.6194 -0.7228 -0.3066
vn 0.5086 -0.1340 -0.8505
vn 0.8460 0.3461 0.4055
vt 0.375000 0.000000
vt 0.500000 0.000000
vt 0.500000 0.125000
vt 0.375000 0.125000
vt 0.625000 0.125000
vt 0.500000 0.625000
vt 0.625000 0.750000
vt 0.500000 0.750000
vt 0.375000 0.625000
vt 0.375000 0.750000
vt 0.625000 0.875000
vt 0.500000 0.875000
vt 0.250000 0.625000
vt 0.250000 0.750000
vt 0.625000 0.000000
vt 0.625000 0.250000
vt 0.375000 0.250000
vt 0.375000 0.500000
vt 0.625000 0.500000
vt 0.753578 0.750000
vt 0.875000 0.500000
vt 0.375000 0.000000
vt 0.625000 0.129147
vt 0.625000 0.376290
vt 0.625000 0.624943
vt 0.625000 0.884972
vt 0.875000 0.750000
vt 0.749987 0.624987
vt 0.875000 0.620853
vt 0.748710 0.500000
vt 0.759972 0.750000
vt 0.625000 1.000000
s 0
usemtl Green
f 147/62/166 150/63/166 153/64/166 149/65/166
f 150/63/167 148/66/167 153/64/167
f 154/67/168 148/68/168 152/69/168
f 151/70/169 154/67/169 152/69/169 147/71/169
f 152/69/170 148/72/170 150/73/170
f 149/74/171 151/70/171 147/75/171
f 155/76/172 157/77/172 156/78/172
f 156/78/173 157/77/173 158/79/173
f 158/80/174 155/81/174 152/81/174 150/80/174
f 158/80/175 157/82/175 155/81/175
f 155/83/176 156/78/176 147/78/176 152/83/176
f 156/78/177 158/79/177 150/79/177 147/78/177
f 159/62/178 149/65/178 153/64/178 160/63/178
f 160/63/179 153/64/179 148/66/179
f 154/67/180 161/69/180 148/68/180
f 151/70/181 159/71/181 161/69/181 154/67/181
f 161/69/182 160/73/182 148/72/182
f 149/74/183 159/75/183 151/70/183
f 162/76/184 163/78/184 164/77/184
f 163/78/185 165/79/185 164/77/185
f 165/80/186 160/80/186 161/81/186 162/81/186
f 165/80/187 162/81/187 164/82/187
f 162/83/188 161/83/188 159/78/188 163/78/188
f 163/78/189 159/78/189 160/79/189 165/79/189
f 166/83/190 168/84/190 169/77/190
f 166/78/191 174/85/191 173/80/191
f 166/79/192 175/86/192 171/68/192
f 166/71/193 171/68/193 170/87/193
f 167/88/194 172/89/194 169/82/194 168/90/194
f 173/80/195 172/89/195 171/68/195 175/86/195
f 169/82/196 172/89/196 173/80/196 174/91/196
f 171/68/197 172/89/197 167/88/197 170/92/197
f 170/87/198 167/93/198 166/71/198
f 168/84/199 166/83/199 167/76/199
f 174/85/200 166/78/200 169/77/200
f 175/86/201 166/79/201 173/80/201
