# Blender 4.0.2
# www.blender.org
mtllib PlayerIdle.mtl
o Player
v -1.033029 8.475904 1.224105
v -0.000000 7.748466 0.533303
v 0.000000 9.710620 1.322469
v -0.000000 9.186339 0.312788
v -2.526450 8.924473 1.350135
v 0.000000 8.721783 2.201415
v -0.000000 7.849535 1.762322
v 1.033029 8.475904 1.224104
v 2.512535 9.139936 1.216362
v 0.147633 11.841552 1.779935
v 0.500000 10.436973 1.635627
v 0.338715 12.002785 2.762469
v -0.000000 9.628409 2.642268
v -0.000000 10.261371 1.447543
v 0.609568 10.821435 1.603947
v 0.609568 10.497380 2.655138
v 0.000000 11.334824 2.796722
v 0.609568 11.403755 2.191063
v -0.000000 11.552835 1.521638
v 0.609568 10.192439 2.053200
v -0.000000 11.188130 2.101258
v -0.000000 10.343130 2.941582
v -0.000000 9.963976 2.027199
v 0.740226 10.798097 2.122132
v 0.000000 10.893030 1.288011
v 0.361011 10.590316 2.878717
v 0.306810 10.507434 2.647307
v -0.147633 11.841552 1.779935
v -0.500000 10.436973 1.635627
v -0.338715 12.002785 2.762469
v -0.609568 10.821434 1.603946
v -0.609568 10.497380 2.655138
v -0.609568 11.403755 2.191063
v -0.609568 10.192439 2.053200
v -0.740226 10.798097 2.122132
v -0.361011 10.590316 2.878717
v -0.306810 10.507433 2.647307
v -0.000000 6.925200 0.114486
v -1.000000 6.412416 -0.725461
v -1.233892 7.167174 -0.304769
v 0.000000 7.998435 0.733994
v -0.000000 7.219279 -0.692744
v 1.000000 6.412416 -0.725461
v 1.233892 7.167174 -0.304769
v 2.155444 9.785648 1.801032
v 2.168256 8.913518 2.235102
v 3.177829 9.924999 1.402172
v 3.300029 8.765050 1.951328
v 1.842264 9.380179 0.963423
v 2.698580 9.428184 0.522552
v 2.840301 8.478233 0.848366
v -2.201448 9.554685 1.969410
v -2.093614 8.653336 2.323152
v -3.256954 9.612834 1.643368
v -3.219740 8.404736 2.091812
v -1.903411 9.257672 1.082262
v -2.787297 9.247239 0.696796
v -2.806338 8.263588 0.943197
v 3.039953 0.054175 -0.957683
v 3.193039 -0.464885 -1.277058
v 1.008026 0.951591 -2.108928
v 1.924971 0.001553 -2.386758
v 2.809063 -0.492654 -0.727265
v 1.151070 0.013182 -1.646304
v 1.437686 -0.438064 -2.168561
v -2.488514 0.054057 2.079770
v -2.794048 -0.465004 1.900646
v -1.448042 0.951473 -0.011045
v -2.363544 0.001434 0.271506
v -2.168242 -0.492772 2.141638
v -1.307868 0.013062 0.452457
v -1.837564 -0.438182 0.179837
v -1.785016 0.287988 0.744867
v -1.267487 4.333587 0.639958
v -1.285744 4.320330 1.272686
v -1.256234 3.506713 0.298091
v -1.086122 2.986705 1.192234
v -1.819473 3.064773 1.161960
v 1.738087 0.258711 -1.668208
v 1.542320 4.160478 -0.491942
v 2.006698 4.027233 -0.082731
v 1.241025 3.419758 -0.893532
v 1.731099 2.720416 -0.285595
v 2.224882 2.887243 -0.808244
v -1.007418 6.220922 -0.688127
v -1.293415 4.480686 1.064597
v -1.291359 3.898914 0.880594
v -1.246238 4.429134 1.573408
v -0.779837 4.200502 0.620444
v -1.780213 4.266350 0.519394
v 0.857661 6.284933 -0.658378
v 1.898940 4.196475 -0.177056
v 1.679460 3.704346 -0.463336
v 2.221702 3.984610 0.161631
v 1.188577 4.009735 -0.169978
v 1.811700 4.220143 -0.933355
v 1.340160 6.652095 2.548924
v 2.494895 8.371629 1.246015
v 2.528919 9.022613 1.771813
v 2.308022 7.759196 1.239234
v 2.293223 8.023055 2.497198
v 1.605787 8.268095 2.230078
v -1.369156 6.274404 2.360417
v -2.509892 8.157386 1.292295
v -2.520645 8.742329 1.891566
v -2.336293 7.546569 1.209782
v -2.293487 7.659860 2.489488
v -1.605834 7.921514 2.239213
v -1.394709 6.301887 2.358511
v -0.318124 5.105968 3.237252
v 0.047949 4.276246 2.084368
v -0.014872 5.137623 3.774107
v -0.279687 5.184266 2.413255
v -0.782157 4.950633 3.284028
v 1.365800 6.675716 2.544555
v 0.183550 5.720683 3.570048
v -0.261812 4.775588 2.540470
v -0.114066 5.855451 4.093918
v 0.150651 5.686048 2.742827
v 0.631012 5.530708 3.643065
v 0.097537 4.753655 3.354101
v 0.952758 4.759549 3.438625
v -0.248873 4.764170 4.266312
v 0.869414 4.768896 4.472780
v 0.083954 5.618136 3.302638
v -0.197570 5.734474 4.096878
v 0.663616 5.822554 4.322721
v 0.480348 5.075614 3.190750
v 0.559771 4.268366 2.906811
v 0.279352 4.992639 4.142042
v 0.370290 3.895666 3.856389
v -0.359453 5.080961 2.978929
v -0.637106 4.987006 3.777482
v -0.660811 4.110462 3.599959
vn -0.2707 0.8544 -0.4436
vn -0.6090 -0.1202 -0.7840
vn -0.5432 -0.8368 0.0688
vn -0.1947 0.6516 0.7331
vn -0.2215 -0.8643 0.4516
vn -0.5938 -0.3618 0.7187
vn -0.2465 -0.6088 -0.7540
vn 0.1792 0.8731 -0.4534
vn 0.6090 -0.1202 -0.7840
vn 0.5432 -0.8368 0.0688
vn 0.1795 0.6536 0.7353
vn 0.3434 -0.7586 0.5538
vn 0.5938 -0.3618 0.7187
vn 0.2625 -0.5938 -0.7605
vn -0.7467 -0.1888 0.6378
vn -0.3011 0.9331 -0.1968
vn -0.0401 -0.9377 0.3452
vn 0.3806 -0.7943 -0.4735
vn 0.3299 -0.8287 -0.4521
vn 0.9296 -0.2143 -0.3000
vn 0.8561 0.3669 -0.3639
vn 0.9412 0.1539 0.3006
vn 0.8654 -0.4470 0.2264
vn 0.5072 0.3333 -0.7948
vn 0.4206 -0.2114 -0.8823
vn -0.6867 0.3146 -0.6553
vn -0.3535 0.7918 0.4982
vn 0.0731 0.1442 0.9868
vn 0.6816 0.0707 0.7283
vn -0.0590 0.0810 0.9950
vn 0.4691 -0.3411 0.8146
vn 0.0158 0.8659 0.5000
vn 0.5763 -0.8029 0.1526
vn 0.7467 -0.1888 0.6378
vn 0.3011 0.9331 -0.1968
vn 0.0401 -0.9377 0.3452
vn -0.3806 -0.7943 -0.4735
vn -0.3299 -0.8287 -0.4521
vn -0.9296 -0.2143 -0.3000
vn -0.8561 0.3669 -0.3639
vn -0.9412 0.1539 0.3006
vn -0.8654 -0.4470 0.2264
vn -0.5072 0.3333 -0.7948
vn -0.4206 -0.2114 -0.8823
vn 0.6867 0.3146 -0.6553
vn 0.3535 0.7918 0.4982
vn -0.0731 0.1442 0.9868
vn -0.6816 0.0707 0.7283
vn 0.0590 0.0810 0.9950
vn -0.4691 -0.3411 0.8146
vn -0.0158 0.8659 0.5000
vn -0.5763 -0.8029 0.1526
vn -0.1845 0.8626 -0.4711
vn -0.3639 -0.5370 0.7611
vn -0.3652 -0.4654 0.8062
vn -0.2906 0.3955 -0.8712
vn 0.6098 -0.7447 -0.2713
vn 0.1845 0.8626 -0.4711
vn 0.3639 -0.5370 0.7611
vn 0.3652 -0.4654 0.8062
vn 0.2906 0.3955 -0.8712
vn -0.6098 -0.7447 -0.2713
vn 0.2739 0.4336 0.8585
vn 0.9107 -0.0558 -0.4093
vn -0.4132 -0.3500 -0.8407
vn -0.9477 0.1309 0.2910
vn -0.2496 0.8999 -0.3576
vn -0.0574 -0.9601 0.2736
vn -0.6735 -0.7329 -0.0963
vn -0.2606 0.3275 0.9082
vn -0.9248 -0.1219 -0.3603
vn 0.3912 -0.2307 -0.8909
vn 0.9458 0.2102 0.2474
vn 0.1292 0.9487 -0.2887
vn 0.1761 -0.9674 0.1823
vn 0.7390 -0.6433 -0.2000
vn 0.5978 0.6346 -0.4898
vn -0.6814 -0.1802 -0.7094
vn -0.4685 -0.7793 0.4162
vn 0.8177 -0.1069 0.5657
vn -0.3194 0.4161 0.8514
vn 0.3225 -0.6828 -0.6555
vn 0.0076 -0.9990 -0.0451
vn -0.7695 0.6346 -0.0717
vn 0.1681 -0.1802 -0.9692
vn 0.6211 -0.7793 0.0830
vn -0.3614 -0.1069 0.9263
vn 0.7409 0.4161 0.5271
vn -0.6340 -0.6828 -0.3630
vn -0.0316 -0.9990 -0.0331
vn 0.9922 0.1087 -0.0607
vn -0.0483 -0.0673 0.9966
vn -0.9187 0.2890 -0.2691
vn -0.8512 0.0676 -0.5204
vn -0.0566 -0.1490 0.9872
vn 0.9367 -0.1943 -0.2912
vn -0.7281 0.0028 0.6855
vn 0.7423 -0.2529 0.6206
vn 0.4647 0.4400 -0.7684
vn 0.2248 0.2651 -0.9376
vn 0.7365 -0.3296 0.5906
vn -0.8722 -0.2414 0.4254
vn 0.0874 -0.7938 0.6018
vn 0.0291 -0.6808 -0.7319
vn -0.3321 -0.7385 0.5868
vn -0.7947 0.5139 0.3232
vn 0.0495 -0.5390 -0.8408
vn 0.8776 0.3263 0.3512
vn 0.2507 -0.9458 0.2066
vn -0.6435 -0.4189 -0.6407
vn 0.5356 -0.8399 -0.0881
vn 0.8707 0.4333 -0.2328
vn -0.7171 -0.2444 -0.6527
vn -0.2982 0.1587 0.9412
vn 0.9725 -0.2113 0.0979
vn -0.0952 0.5993 0.7949
vn -0.7069 0.3761 -0.5991
vn -0.8113 0.0181 -0.5843
vn -0.2802 0.2299 0.9320
vn 0.8166 -0.5629 0.1277
vn -0.9749 -0.2027 0.0920
vn 0.1221 0.4994 0.8577
vn 0.7040 0.4306 -0.5648
vn 0.8010 0.0714 -0.5944
vn 0.3016 0.1130 0.9467
vn -0.8261 -0.5583 0.0771
vn 0.9989 -0.0156 0.0451
vn -0.8463 -0.1171 -0.5197
vn 0.3247 -0.8377 0.4391
vn -0.5643 0.2769 0.7778
vn -0.5962 -0.6198 -0.5103
vn 0.7061 0.6989 -0.1135
vn -0.9958 0.0844 0.0361
vn 0.8302 -0.2674 -0.4891
vn -0.4010 -0.7339 0.5483
vn 0.5897 0.3291 0.7375
vn 0.5339 -0.7382 -0.4123
vn -0.6375 0.7391 -0.2176
vn 0.0038 -0.9999 0.0110
vn -0.2175 0.1360 0.9666
vn -0.0575 0.9847 -0.1646
vn 0.0986 -0.0576 -0.9935
vn -0.9388 -0.0221 -0.3438
vn 0.9764 0.2017 0.0769
vn 0.6514 0.5820 -0.4868
vn 0.9780 0.0256 0.2070
vn -0.3179 -0.2269 0.9206
vn -0.9439 0.0899 -0.3176
vn 0.2318 0.3430 -0.9103
vn -0.0305 0.9953 0.0923
vn -0.0970 -0.9197 -0.3803
vn -0.4142 -0.3958 -0.8196
vt 0.375000 0.500000
vt 0.440405 0.500000
vt 0.375000 0.625000
vt 0.500000 0.625000
vt 0.625000 0.625000
vt 0.625000 0.750000
vt 0.500000 0.750000
vt 0.625000 0.875000
vt 0.561728 0.875000
vt 0.250000 0.625000
vt 0.375000 0.750000
vt 0.500000 0.875000
vt 0.625000 0.500000
vt 0.750000 0.500000
vt 0.750000 0.625000
vt 0.750000 0.750000
vt 0.522410 0.825377
vt 0.509034 0.820007
vt 0.250000 0.500000
vt 0.250000 0.750000
vt 0.500000 0.500000
vt 0.500000 0.375000
vt 0.625000 0.375000
vt 0.375000 0.375000
vt 0.500000 0.816380
vt 0.375000 0.375000
vt 0.625000 0.375000
vt 0.250000 0.500000
vt 0.625000 0.875000
vt 0.375000 0.000000
vt 0.625000 0.000000
vt 0.625000 0.250000
vt 0.375000 0.250000
vt 0.625000 0.645984
vt 0.544393 0.750000
vt 0.625000 1.000000
vt 0.375000 1.000000
vt 0.125000 0.500000
vt 0.125000 0.750000
vt 0.875000 0.500000
vt 0.753578 0.750000
vt 0.625000 0.878578
vt 1.000000 0.750000
vt 1.000000 1.000000
vt 0.666667 1.000000
vt 0.666667 0.750000
vt 0.333333 1.000000
vt 0.333333 0.750000
vt -0.000000 1.000000
vt -0.000000 0.750000
vt 0.333333 0.500000
vt 0.666667 0.500000
vt 1.000000 0.500000
s 0
usemtl Material
f 16/7/17 26/17/17 27/18/17
f 27/18/32 22/25/32 16/7/32
f 22/12/33 27/18/33 26/17/33
f 32/7/36 37/18/36 36/17/36
f 37/18/51 32/7/51 22/25/51
f 22/12/52 36/17/52 37/18/52
usemtl Green
f 6/10/5 5/3/5 1/11/5
f 3/1/8 9/3/8 4/2/8
f 8/7/10 7/9/10 2/8/10
f 25/22/24 19/23/24 10/13/24 15/21/24
f 17/16/26 12/6/26 18/5/26
f 12/6/29 26/17/29 16/7/29
f 22/25/31 13/11/31 16/7/31
f 14/19/37 23/10/37 34/3/37 29/1/37
f 31/21/40 35/4/40 33/5/40 28/13/40
f 33/5/46 21/15/46 19/14/46
f 17/8/49 30/6/49 36/17/49
f 40/1/54 39/6/54 38/11/54
f 41/26/58 44/1/58 42/27/58
f 42/29/62 43/6/62 38/11/62
f 45/30/63 46/31/63 48/32/63 47/33/63
f 52/30/70 54/33/70 55/32/70 53/31/70
f 58/34/76 56/35/76 53/42/76
f 61/38/81 64/1/81 63/11/81 59/39/81
f 65/13/82 62/40/82 60/41/82
f 68/33/85 71/1/85 72/13/85 69/32/85
f 70/35/87 66/37/87 67/36/87
f 72/34/90 70/35/90 67/42/90
f 73/51/94 78/48/94 76/50/94
f 82/43/97 83/46/97 81/45/97 80/44/97
f 88/43/103 86/44/103 87/45/103 89/46/103
f 85/51/106 90/48/106 88/50/106
f 95/46/110 96/48/110 93/47/110
f 91/51/112 94/50/112 96/48/112
f 100/43/115 98/44/115 99/45/115 101/46/115
f 97/52/119 101/46/119 102/48/119
f 108/48/123 106/50/123 104/49/123 105/47/123
f 103/52/125 108/48/125 107/46/125
f 112/43/127 110/44/127 111/45/127 113/46/127
f 113/46/128 111/47/128 114/48/128
f 115/51/136 118/50/136 120/48/136
f 115/52/137 120/48/137 119/46/137
f 123/33/140 124/32/140 127/13/140 126/1/140
f 125/35/142 122/36/142 121/37/142
f 133/1/148 132/11/148 134/34/148
f 134/13/151 129/41/151 131/40/151
usemtl Yellow
f 1/7/3 2/8/3 7/9/3
f 5/3/7 4/2/7 1/4/7
f 8/4/9 2/6/9 4/5/9
f 6/10/12 8/11/12 9/3/12
f 15/21/21 10/13/21 18/5/21 24/4/21
f 14/24/25 25/22/25 15/21/25 11/1/25
f 22/12/28 26/17/28 17/8/28
f 28/13/34 33/5/34 19/14/34
f 33/5/35 17/16/35 21/15/35
f 34/3/42 13/11/42 32/7/42 35/4/42
f 25/22/43 31/21/43 28/13/43 19/23/43
f 30/6/48 32/7/48 36/17/48
f 40/1/56 42/27/56 39/13/56
f 41/28/60 38/11/60 44/1/60
f 50/1/65 51/34/65 49/11/65
f 51/13/68 48/40/68 46/41/68
f 54/38/74 52/39/74 56/11/74 57/1/74
f 58/13/75 53/41/75 55/40/75
f 61/33/78 62/32/78 65/13/78 64/1/78
f 65/34/83 60/42/83 63/35/83
f 68/38/88 66/39/88 70/11/88 71/1/88
f 76/43/91 74/44/91 75/45/91 77/46/91
f 73/52/95 77/46/95 78/48/95
f 79/51/100 82/50/100 84/48/100
f 89/46/104 87/47/104 90/48/104
f 85/53/108 88/43/108 89/46/108
f 91/52/113 96/48/113 95/46/113
f 97/51/118 102/48/118 100/50/118
f 103/51/124 106/50/124 108/48/124
f 109/52/131 113/46/131 114/48/131
f 120/48/135 118/50/135 116/49/135 117/47/135
f 127/13/144 124/40/144 122/41/144
f 130/33/147 133/1/147 134/13/147 131/32/147
f 132/35/149 128/37/149 129/36/149
usemtl Pink
f 3/1/1 4/2/1 5/3/1
f 3/1/4 5/3/4 6/10/4
f 7/9/13 8/7/13 6/12/13
f 10/13/15 19/14/15 18/5/15
f 18/5/16 21/15/16 17/16/16
f 14/19/18 11/1/18 20/3/18 23/10/18
f 20/3/23 24/4/23 16/7/23 13/11/23
f 23/10/38 13/20/38 34/3/38
f 29/1/39 34/3/39 35/4/39 31/21/39
f 35/4/41 32/7/41 30/6/41 33/5/41
f 17/16/45 33/5/45 30/6/45
f 22/12/47 17/8/47 36/17/47
f 41/26/53 42/27/53 40/1/53
f 44/1/59 38/11/59 43/6/59
f 44/1/61 43/13/61 42/27/61
f 47/38/67 50/1/67 49/11/67 45/39/67
f 51/34/69 46/42/69 49/35/69
f 57/1/72 56/11/72 58/34/72
f 56/35/73 52/37/73 53/36/73
f 64/1/79 65/34/79 63/11/79
f 63/35/80 60/36/80 59/37/80
f 66/30/84 68/33/84 69/32/84 67/31/84
f 71/1/86 70/11/86 72/34/86
f 78/48/93 75/47/93 74/49/93 76/50/93
f 73/53/96 76/43/96 77/46/96
f 84/48/99 82/50/99 80/49/99 81/47/99
f 79/52/101 84/48/101 83/46/101
f 85/52/107 89/46/107 90/48/107
f 94/43/109 95/46/109 93/45/109 92/44/109
f 101/46/116 99/47/116 102/48/116
f 97/53/120 100/43/120 101/46/120
f 107/46/122 108/48/122 105/47/122
f 103/53/126 107/46/126 106/43/126
f 109/51/130 114/48/130 112/50/130
f 118/43/133 119/46/133 117/45/133 116/44/133
f 121/30/139 122/31/139 124/32/139 123/33/139
f 126/1/141 127/34/141 125/11/141
f 127/34/145 122/42/145 125/35/145
f 130/38/150 128/39/150 132/11/150 133/1/150
usemtl Violet
f 1/4/2 4/5/2 2/6/2
f 7/9/6 6/12/6 1/7/6
f 3/1/11 6/10/11 9/3/11
f 9/3/14 8/4/14 4/2/14
f 23/10/19 20/3/19 13/20/19
f 11/1/20 15/21/20 24/4/20 20/3/20
f 24/4/22 18/5/22 12/6/22 16/7/22
f 18/5/27 19/14/27 21/15/27
f 17/8/30 26/17/30 12/6/30
f 14/24/44 29/1/44 31/21/44 25/22/44
f 22/25/50 32/7/50 13/11/50
f 41/28/55 40/1/55 38/11/55
f 42/29/57 38/11/57 39/6/57
f 47/33/64 48/32/64 51/13/64 50/1/64
f 49/35/66 46/36/66 45/37/66
f 54/33/71 57/1/71 58/13/71 55/32/71
f 59/30/77 60/31/77 62/32/77 61/33/77
f 72/13/89 67/41/89 69/40/89
f 77/46/92 75/47/92 78/48/92
f 83/46/98 84/48/98 81/47/98
f 79/53/102 83/46/102 82/43/102
f 90/48/105 87/47/105 86/49/105 88/50/105
f 96/48/111 94/50/111 92/49/111 93/47/111
f 91/53/114 95/46/114 94/43/114
f 102/48/117 99/47/117 98/49/117 100/50/117
f 106/43/121 107/46/121 105/45/121 104/44/121
f 114/48/129 111/47/129 110/49/129 112/50/129
f 109/53/132 112/43/132 113/46/132
f 119/46/134 120/48/134 117/47/134
f 115/53/138 119/46/138 118/43/138
f 123/38/143 126/1/143 125/11/143 121/39/143
f 128/30/146 130/33/146 131/32/146 129/31/146
f 134/34/152 132/35/152 129/42/152
o Sword
v 0.162986 5.460505 5.100886
v 0.676169 5.556342 5.188581
v -0.333875 5.778174 4.995214
v -0.227086 11.469801 11.016703
v 0.334450 2.797984 1.852319
v -0.007825 6.136058 4.704332
v 0.528185 6.204257 4.627038
v 0.165532 5.318880 4.770246
v 0.452937 5.368706 4.815185
v -0.109963 5.499444 4.714839
v 0.072135 5.696428 4.549942
v 0.370820 5.730571 4.502756
vn -0.2792 -0.6828 0.6752
vn -0.5469 0.6300 -0.5514
vn -0.1767 0.3009 -0.9371
vn 0.1006 -0.9130 0.3954
vn 0.8814 -0.1779 -0.4376
vn 0.9811 0.1894 -0.0401
vn -0.5599 -0.7649 0.3187
vn -0.5360 -0.6539 0.5339
vn -0.8094 0.3592 -0.4647
vn 0.9851 0.1084 -0.1334
vn 0.0287 -0.7556 0.6544
vn -0.7252 0.1051 -0.6805
vn -0.1903 0.6596 -0.7272
vt 0.375000 0.000000
vt 0.625000 0.000000
vt 0.625000 0.250000
vt 0.375000 0.250000
vt 0.625000 0.500000
vt 0.375000 0.500000
vt 0.753578 0.750000
vt 0.875000 0.500000
s 0
usemtl Yellow
f 135/54/153 136/55/153 138/56/153 137/57/153
f 137/57/154 138/56/154 141/58/154 140/59/154
f 140/59/155 141/58/155 146/58/155 145/59/155
f 136/55/156 135/54/156 142/54/156 143/55/156
f 141/58/157 136/60/157 143/60/157 146/58/157
f 141/58/158 138/61/158 136/60/158
f 135/54/159 137/57/159 144/57/159 142/54/159
f 142/54/160 144/57/160 139/54/160
f 144/57/161 145/59/161 139/57/161
f 146/58/162 143/60/162 139/58/162
f 143/55/163 142/54/163 139/55/163
f 137/57/164 140/59/164 145/59/164 144/57/164
f 145/59/165 146/58/165 139/59/165
o Cube.007
v -0.560333 4.664447 4.017498
v -1.375821 5.978486 2.606934
v -0.512882 4.164734 3.672270
v -1.140191 5.613383 3.830630
v -0.499955 4.380783 3.526998
v -0.677618 5.193097 3.754433
v -1.432956 5.187006 3.140682
v -0.716054 4.872627 3.235261
v -0.340483 5.067636 4.428101
v -0.674544 4.939002 4.487071
v -0.965670 7.328962 5.344509
v -0.703451 5.370351 4.226567
v -0.705366 4.058905 3.104031
v -1.361133 4.690907 2.439067
v -0.837559 4.525313 2.747074
v -0.640053 3.816875 2.541316
v -0.956912 3.760062 2.708628
v -1.767403 3.981572 0.294938
v -0.990339 4.172538 2.419654
v 0.571405 2.896451 4.322186
v -0.461510 3.509293 4.063650
v -0.102004 3.416878 3.872000
v -0.127334 3.438795 3.469568
v -0.078009 3.579808 4.129296
v -0.005389 3.979640 4.264409
v 0.273156 3.276613 4.109264
v 0.328787 3.909143 3.670326
v 0.150584 3.548032 3.752284
v 0.188408 3.720724 4.007636
vn -0.7586 -0.3859 0.5250
vn -0.9383 0.2373 0.2515
vn 0.8853 0.3635 -0.2899
vn 0.9612 0.2455 -0.1260
vn 0.6777 0.7301 0.0873
vn 0.9935 0.0164 0.1128
vn 0.2751 -0.2948 0.9151
vn -0.9933 -0.1007 -0.0565
vn 0.6606 0.7140 -0.2319
vn 0.6847 0.4283 -0.5898
vn 0.9205 -0.3680 -0.1315
vn -0.8952 -0.2834 0.3439
vn -0.7908 -0.5205 0.3219
vn -0.9946 0.0021 -0.1033
vn 0.8655 0.2806 -0.4150
vn 0.9201 0.0741 -0.3846
vn 0.5305 0.1155 -0.8397
vn 0.9325 -0.2383 -0.2715
vn 0.1096 -0.9858 -0.1273
vn -0.9324 0.1537 0.3272
vn 0.5855 0.4006 -0.7048
vn 0.7274 0.6067 -0.3206
vn 0.9702 -0.1604 0.1816
vn -0.8982 -0.2960 0.3249
vn -0.6095 -0.7928 -0.0048
vn 0.4522 -0.4036 -0.7954
vn 0.8645 0.4699 0.1787
vn -0.4703 -0.2047 0.8584
vn 0.3137 0.9474 0.0640
vn -0.8534 -0.2655 -0.4485
vn -0.6981 0.4339 0.5696
vn 0.1618 0.2505 -0.9545
vn -0.1856 0.0995 0.9776
vn -0.4077 -0.8391 -0.3602
vn 0.7304 -0.1168 -0.6729
vn 0.6502 0.5152 0.5584
vt 0.375000 0.000000
vt 0.500000 0.000000
vt 0.500000 0.125000
vt 0.375000 0.125000
vt 0.625000 0.125000
vt 0.500000 0.625000
vt 0.625000 0.750000
vt 0.500000 0.750000
vt 0.375000 0.625000
vt 0.375000 0.750000
vt 0.625000 0.875000
vt 0.500000 0.875000
vt 0.250000 0.625000
vt 0.250000 0.750000
vt 0.625000 0.000000
vt 0.625000 0.250000
vt 0.375000 0.250000
vt 0.375000 0.500000
vt 0.625000 0.500000
vt 0.753578 0.750000
vt 0.875000 0.500000
vt 0.375000 0.000000
vt 0.625000 0.129147
vt 0.625000 0.376290
vt 0.625000 0.624943
vt 0.625000 0.884972
vt 0.875000 0.750000
vt 0.749987 0.624987
vt 0.875000 0.620853
vt 0.748710 0.500000
vt 0.759972 0.750000
vt 0.625000 1.000000
s 0
usemtl Green
f 147/62/166 150/63/166 153/64/166 149/65/166
f 150/63/167 148/66/167 153/64/167
f 154/67/168 148/68/168 152/69/168
f 151/70/169 154/67/169 152/69/169 147/71/169
f 152/69/170 148/72/170 150/73/170
f 149/74/171 151/70/171 147/75/171
f 155/76/172 157/77/172 156/78/172
f 156/78/173 157/77/173 158/79/173
f 158/80/174 155/81/174 152/81/174 150/80/174
f 158/80/175 157/82/175 155/81/175
f 155/83/176 156/78/176 147/78/176 152/83/176
f 156/78/177 158/79/177 150/79/177 147/78/177
f 159/62/178 149/65/178 153/64/178 160/63/178
f 160/63/179 153/64/179 148/66/179
f 154/67/180 161/69/180 148/68/180
f 151/70/181 159/71/181 161/69/181 154/67/181
f 161/69/182 160/73/182 148/72/182
f 149/74/183 159/75/183 151/70/183
f 162/76/184 163/78/184 164/77/184
f 163/78/185 165/79/185 164/77/185
f 165/80/186 160/80/186 161/81/186 162/81/186
f 165/80/187 162/81/187 164/82/187
f 162/83/188 161/83/188 159/78/188 163/78/188
f 163/78/189 159/78/189 160/79/189 165/79/189
f 166/83/190 168/84/190 169/77/190
f 166/78/191 174/85/191 173/80/191
f 166/79/192 175/86/192 171/68/192
f 166/71/193 171/68/193 170/87/193
f 167/88/194 172/89/194 169/82/194 168/90/194
f 173/80/195 172/89/195 171/68/195 175/86/195
f 169/82/196 172/89/196 173/80/196 174/91/196
f 171/68/197 172/89/197 167/88/197 170/92/197
f 170/87/198 167/93/198 166/71/198
f 168/84/199 166/83/199 167/76/199
f 174/85/200 166/78/200 169/77/200
f 175/86/201 166/79/201 173/80/201
