# Blender 4.0.2
# www.blender.org
mtllib PlayerDash.mtl
o Player
v -1.033029 7.688191 0.148471
v -0.000000 6.691046 0.258348
v 0.000000 8.560151 -0.731238
v -0.000000 7.450522 -0.982339
v -1.753904 7.822490 -1.705716
v 0.000000 8.593427 0.591350
v -0.000000 7.695106 0.974285
v 1.033029 7.688191 0.148471
v 0.920786 6.956426 -1.660646
v 0.147633 11.286185 -0.457999
v 0.500000 9.874297 -0.442547
v 0.338715 11.557492 0.500000
v -0.000000 9.184753 0.649071
v 0.000000 9.678553 -0.609568
v 0.609568 10.252710 -0.517501
v 0.609568 10.049606 0.563593
v 0.000000 10.897688 0.609568
v 0.609568 10.897688 -0.000000
v -0.000000 10.970112 -0.681990
v 0.609568 9.678553 -0.000000
v -0.000000 10.673292 -0.064846
v -0.000000 9.928737 0.865643
v 0.000000 9.448614 -0.000000
v 0.740226 10.288120 -0.000000
v 0.000000 10.288120 -0.839506
v 0.361011 10.167229 0.775229
v 0.306810 10.058709 0.554676
v -0.147633 11.286185 -0.457999
v -0.500000 9.874297 -0.442547
v -0.338715 11.557492 0.500000
v -0.609568 10.252710 -0.517501
v -0.609568 10.049606 0.563593
v -0.609568 10.897688 -0.000000
v -0.609568 9.678553 -0.000000
v -0.740226 10.288120 -0.000000
v -0.361011 10.167229 0.775229
v -0.306810 10.058709 0.554676
v -0.000000 5.666479 0.118623
v -1.000000 4.863400 -0.450168
v -1.233892 5.722989 -0.362141
v 0.000000 6.897201 0.263359
v -0.000000 5.617464 -0.739107
v 1.000000 4.863400 -0.450168
v 1.233892 5.722989 -0.362141
v 1.225032 7.845625 -1.605357
v 1.501619 7.348751 -0.814277
v 1.537141 7.220519 -2.463033
v 1.946070 6.489361 -1.483151
v 0.336839 7.428198 -1.574662
v 0.507605 6.815951 -2.299880
v 0.769325 6.149243 -1.581794
v -1.664404 8.728462 -1.465929
v -2.026851 8.219846 -0.718178
v -2.297313 8.459254 -2.332376
v -2.853234 7.749731 -1.410685
v -1.023473 8.010940 -1.662000
v -1.507918 7.672696 -2.424135
v -1.933769 7.020256 -1.774813
v 2.637651 0.054018 0.644301
v 2.879853 -0.465040 0.385894
v 1.047030 0.951435 -1.065673
v 2.005073 0.001396 -1.054311
v 2.348065 -0.492811 0.794442
v 1.044035 0.013025 -0.581448
v 1.474690 -0.438220 -0.993075
v -2.677845 0.054059 0.794461
v -2.956736 -0.465000 0.576158
v -1.367614 0.951475 -1.138770
v -2.312637 0.001437 -0.980943
v -2.368696 -0.492769 0.898522
v -1.290559 0.013065 -0.660706
v -1.779129 -0.438178 -1.001587
v -1.787915 0.201645 -0.404842
v -1.160879 3.627892 1.719630
v -1.205528 3.273953 2.242687
v -1.157180 3.119728 0.983101
v -1.037707 2.190551 1.453413
v -1.766895 2.304981 1.455597
v 1.548391 0.201178 -0.404985
v 1.069027 3.640223 1.737188
v 1.089097 3.280906 2.258093
v 1.048866 3.137950 0.996894
v 0.876560 2.212838 1.458756
v 1.610523 2.290098 1.470715
v -1.029166 4.709857 -0.350450
v -1.178860 3.696066 1.910100
v -1.206399 3.087086 1.936653
v -1.078724 3.817186 2.399051
v -0.720337 3.255689 1.542185
v -1.724504 3.335854 1.519358
v 1.021373 4.707891 -0.348517
v 1.088170 3.706942 1.922950
v 1.084020 3.097628 1.955174
v 0.987346 3.837622 2.409292
v 0.612994 3.287186 1.552073
v 1.620177 3.315603 1.543501
v 0.594952 7.147686 1.347337
v 0.777416 6.566965 -1.022738
v 1.324766 7.127946 -1.317882
v 0.516276 6.385860 -0.466816
v 1.478891 7.139721 -0.070100
v 0.891248 7.624502 -0.223821
v -1.181704 7.130320 1.195340
v -1.738984 7.266012 -1.183485
v -2.023672 8.048734 -1.271239
v -1.540854 6.867675 -0.722926
v -2.078924 7.812667 -0.037516
v -1.354754 8.054209 -0.183123
v -1.203027 7.134260 1.177549
v -0.312380 7.707978 2.673889
v 0.663386 6.616258 2.761153
v -0.262550 8.263058 2.939561
v 0.028718 7.148745 2.166456
v -0.706343 7.454735 2.823236
v 0.612600 7.139177 1.331037
v 0.228871 8.416409 2.589159
v -1.082934 7.906967 3.002949
v 0.440930 8.989666 2.676245
v -0.370544 7.939017 2.273920
v 0.503676 8.071515 2.806355
v -0.102815 7.523576 2.942980
v 0.750843 7.496891 3.038563
v -0.439937 7.914845 3.770928
v 0.676845 7.914584 3.985434
v -0.048358 8.298067 2.559106
v -0.313377 8.735590 3.238772
v 0.553871 8.838931 3.432691
v 0.371210 7.117822 3.126544
v -0.251141 6.544837 3.278030
v 0.256748 7.805133 3.809728
v -0.591533 7.099874 4.085852
v -0.137013 7.540927 2.567210
v -0.317034 8.179153 3.100002
v -1.048068 7.710482 3.315270
vn 0.4097 0.2013 -0.8897
vn -0.6090 -0.6765 -0.4141
vn -0.5432 -0.4874 0.6836
vn -0.3766 0.9261 -0.0233
vn -0.6983 0.6413 0.3179
vn -0.5938 0.3155 0.7402
vn -0.2121 -0.9772 0.0117
vn -0.5145 0.1893 -0.8363
vn 0.6090 -0.6765 -0.4141
vn 0.5432 -0.4874 0.6836
vn 0.8640 0.5034 -0.0127
vn 0.5300 0.7742 -0.3460
vn 0.5938 0.3155 0.7402
vn -0.2060 -0.9026 0.3779
vn -0.7467 -0.1155 0.6551
vn -0.3011 0.9048 -0.3011
vn -0.0401 -0.8926 0.4490
vn 0.3806 -0.8428 -0.3806
vn 0.3299 -0.8745 -0.3555
vn 0.9296 -0.2468 -0.2738
vn 0.8561 0.3234 -0.4030
vn 0.9412 0.1869 0.2813
vn 0.8654 -0.4185 0.2755
vn 0.5072 0.2412 -0.8274
vn 0.4206 -0.3098 -0.8527
vn -0.6867 0.2385 -0.6867
vn -0.3535 0.8430 0.4055
vn 0.0731 0.2548 0.9642
vn 0.6816 0.1526 0.7157
vn -0.0590 0.1929 0.9794
vn 0.4691 -0.2468 0.8479
vn 0.0158 0.9169 0.3988
vn 0.5763 -0.7805 0.2424
vn 0.7467 -0.1155 0.6551
vn 0.3011 0.9048 -0.3011
vn 0.0401 -0.8926 0.4490
vn -0.3806 -0.8428 -0.3806
vn -0.3299 -0.8745 -0.3555
vn -0.9296 -0.2468 -0.2738
vn -0.8561 0.3234 -0.4030
vn -0.9412 0.1869 0.2813
vn -0.8654 -0.4185 0.2755
vn -0.5072 0.2412 -0.8274
vn -0.4206 -0.3098 -0.8527
vn 0.6867 0.2385 -0.6867
vn 0.3535 0.8430 0.4055
vn -0.0731 0.2548 0.9642
vn -0.6816 0.1526 0.7157
vn 0.0590 0.1929 0.9794
vn -0.4691 -0.2468 0.8479
vn -0.0158 0.9169 0.3988
vn -0.5763 -0.7805 0.2424
vn -0.1845 0.6061 -0.7737
vn -0.3639 -0.1923 0.9114
vn -0.3652 -0.1087 0.9246
vn -0.2906 0.0189 -0.9566
vn 0.6098 -0.7913 0.0452
vn 0.1845 0.6061 -0.7737
vn 0.3639 -0.1923 0.9114
vn 0.3652 -0.1087 0.9246
vn 0.2906 0.0189 -0.9566
vn -0.6098 -0.7913 0.0452
vn 0.8835 0.4681 -0.0174
vn 0.2197 -0.7088 -0.6703
vn -0.9462 -0.3202 0.0475
vn -0.3293 0.7435 0.5821
vn -0.3563 0.6803 -0.6405
vn 0.0994 -0.5786 0.8095
vn -0.5458 -0.1891 0.8163
vn -0.6147 0.7588 0.2155
vn -0.5616 -0.4185 -0.7138
vn 0.7347 -0.6550 -0.1763
vn 0.6652 0.4268 0.6127
vn 0.5260 0.6130 -0.5895
vn -0.2326 -0.6530 0.7208
vn 0.5112 -0.5454 0.6642
vn 0.7176 0.6346 -0.2869
vn -0.4360 -0.1802 -0.8817
vn -0.5721 -0.7793 0.2557
vn 0.6092 -0.1069 0.7857
vn -0.5611 0.4161 0.7155
vn 0.5050 -0.6828 -0.5279
vn 0.0209 -0.9990 -0.0407
vn -0.7531 0.6346 -0.1737
vn 0.2960 -0.1802 -0.9380
vn 0.6045 -0.7793 0.1652
vn -0.4818 -0.1069 0.8697
vn 0.6640 0.4161 0.6213
vn -0.5799 -0.6828 -0.4444
vn -0.0269 -0.9990 -0.0370
vn 0.9964 0.0801 0.0284
vn -0.0911 -0.5956 0.7981
vn -0.8990 0.4292 -0.0871
vn -0.8270 0.3771 -0.4170
vn -0.1011 -0.6586 0.7457
vn 0.9425 -0.0463 -0.3309
vn -0.9913 0.1304 0.0168
vn 0.0507 -0.6049 0.7947
vn 0.9206 0.3836 -0.0728
vn 0.8502 0.3375 -0.4040
vn 0.0582 -0.6679 0.7419
vn -0.9394 0.0038 -0.3428
vn 0.1373 -0.5470 0.8258
vn -0.0606 -0.8887 -0.4545
vn -0.2804 -0.4781 0.8323
vn -0.7427 0.6407 0.1946
vn -0.0498 -0.7959 -0.6034
vn 0.9169 0.3745 0.1381
vn -0.1770 -0.5315 0.8284
vn 0.0215 -0.8948 -0.4459
vn 0.2435 -0.4840 0.8405
vn 0.7717 0.6037 0.2000
vn 0.0176 -0.8026 -0.5962
vn -0.8987 0.4214 0.1219
vn 0.6576 -0.7527 -0.0316
vn 0.6474 0.7572 -0.0871
vn -0.8127 0.4044 -0.4195
vn -0.9487 0.3042 -0.0866
vn 0.5456 0.7678 0.3359
vn 0.5005 -0.8057 0.3167
vn -0.9102 -0.4072 -0.0757
vn -0.2813 0.9448 0.1682
vn 0.8785 0.1482 -0.4542
vn 0.9820 -0.0750 -0.1736
vn -0.1573 0.8111 0.5634
vn -0.7670 -0.6005 0.2258
vn 0.8729 0.4851 0.0521
vn -0.5187 -0.8331 -0.1924
vn 0.3122 0.0729 0.9472
vn -0.8734 0.4543 0.1751
vn -0.1819 -0.9534 0.2406
vn 0.5073 0.5768 -0.6403
vn -0.5899 0.8021 -0.0931
vn 0.1109 -0.9917 0.0647
vn -0.1313 0.4512 0.8827
vn 0.9970 0.0721 0.0280
vn -0.1868 -0.8366 0.5149
vn -0.3111 0.5398 -0.7822
vn -0.0753 -0.9138 0.3991
vn -0.1982 0.5178 0.8322
vn 0.0192 0.8441 -0.5359
vn 0.0857 -0.4473 -0.8903
vn -0.9403 -0.0828 -0.3300
vn 0.9899 0.1408 0.0152
vn 0.6914 0.2951 -0.6594
vn 0.6144 -0.5038 0.6072
vn -0.3014 0.6837 0.6646
vn -0.5099 0.4620 -0.7257
vn 0.3445 -0.5712 -0.7451
vn 0.7880 0.5021 -0.3565
vn -0.8242 -0.5648 0.0408
vn -0.6240 -0.4053 -0.6681
vt 0.375000 0.500000
vt 0.440405 0.500000
vt 0.375000 0.625000
vt 0.500000 0.625000
vt 0.625000 0.625000
vt 0.625000 0.750000
vt 0.500000 0.750000
vt 0.625000 0.875000
vt 0.561728 0.875000
vt 0.250000 0.625000
vt 0.375000 0.750000
vt 0.500000 0.875000
vt 0.625000 0.500000
vt 0.750000 0.500000
vt 0.750000 0.625000
vt 0.750000 0.750000
vt 0.522410 0.825377
vt 0.509034 0.820007
vt 0.250000 0.500000
vt 0.250000 0.750000
vt 0.500000 0.500000
vt 0.500000 0.375000
vt 0.625000 0.375000
vt 0.375000 0.375000
vt 0.500000 0.816380
vt 0.375000 0.375000
vt 0.625000 0.375000
vt 0.250000 0.500000
vt 0.625000 0.875000
vt 0.375000 0.000000
vt 0.625000 0.000000
vt 0.625000 0.250000
vt 0.375000 0.250000
vt 0.625000 0.645984
vt 0.544393 0.750000
vt 0.625000 1.000000
vt 0.375000 1.000000
vt 0.125000 0.500000
vt 0.125000 0.750000
vt 0.875000 0.500000
vt 0.753578 0.750000
vt 0.625000 0.878578
vt 1.000000 0.750000
vt 1.000000 1.000000
vt 0.666667 1.000000
vt 0.666667 0.750000
vt 0.333333 1.000000
vt 0.333333 0.750000
vt -0.000000 1.000000
vt -0.000000 0.750000
vt 0.333333 0.500000
vt 0.666667 0.500000
vt 1.000000 0.500000
s 0
usemtl Material
f 16/7/17 26/17/17 27/18/17
f 27/18/32 22/25/32 16/7/32
f 22/12/33 27/18/33 26/17/33
f 32/7/36 37/18/36 36/17/36
f 37/18/51 32/7/51 22/25/51
f 22/12/52 36/17/52 37/18/52
usemtl Green
f 6/10/5 5/3/5 1/11/5
f 3/1/8 9/3/8 4/2/8
f 8/7/10 7/9/10 2/8/10
f 25/22/24 19/23/24 10/13/24 15/21/24
f 17/16/26 12/6/26 18/5/26
f 12/6/29 26/17/29 16/7/29
f 22/25/31 13/11/31 16/7/31
f 14/19/37 23/10/37 34/3/37 29/1/37
f 31/21/40 35/4/40 33/5/40 28/13/40
f 33/5/46 21/15/46 19/14/46
f 17/8/49 30/6/49 36/17/49
f 40/1/54 39/6/54 38/11/54
f 41/26/58 44/1/58 42/27/58
f 42/29/62 43/6/62 38/11/62
f 45/30/63 46/31/63 48/32/63 47/33/63
f 52/30/70 54/33/70 55/32/70 53/31/70
f 58/34/76 56/35/76 53/42/76
f 61/38/81 64/1/81 63/11/81 59/39/81
f 65/13/82 62/40/82 60/41/82
f 68/33/85 71/1/85 72/13/85 69/32/85
f 70/35/87 66/37/87 67/36/87
f 72/34/90 70/35/90 67/42/90
f 73/51/94 78/48/94 76/50/94
f 82/43/97 83/46/97 81/45/97 80/44/97
f 88/43/103 86/44/103 87/45/103 89/46/103
f 85/51/106 90/48/106 88/50/106
f 95/46/110 96/48/110 93/47/110
f 91/51/112 94/50/112 96/48/112
f 100/43/115 98/44/115 99/45/115 101/46/115
f 97/52/119 101/46/119 102/48/119
f 108/48/123 106/50/123 104/49/123 105/47/123
f 103/52/125 108/48/125 107/46/125
f 112/43/127 110/44/127 111/45/127 113/46/127
f 113/46/128 111/47/128 114/48/128
f 115/51/136 118/50/136 120/48/136
f 115/52/137 120/48/137 119/46/137
f 123/33/140 124/32/140 127/13/140 126/1/140
f 125/35/142 122/36/142 121/37/142
f 133/1/148 132/11/148 134/34/148
f 134/13/151 129/41/151 131/40/151
usemtl Yellow
f 1/7/3 2/8/3 7/9/3
f 5/3/7 4/2/7 1/4/7
f 8/4/9 2/6/9 4/5/9
f 6/10/12 8/11/12 9/3/12
f 15/21/21 10/13/21 18/5/21 24/4/21
f 14/24/25 25/22/25 15/21/25 11/1/25
f 22/12/28 26/17/28 17/8/28
f 28/13/34 33/5/34 19/14/34
f 33/5/35 17/16/35 21/15/35
f 34/3/42 13/11/42 32/7/42 35/4/42
f 25/22/43 31/21/43 28/13/43 19/23/43
f 30/6/48 32/7/48 36/17/48
f 40/1/56 42/27/56 39/13/56
f 41/28/60 38/11/60 44/1/60
f 50/1/65 51/34/65 49/11/65
f 51/13/68 48/40/68 46/41/68
f 54/38/74 52/39/74 56/11/74 57/1/74
f 58/13/75 53/41/75 55/40/75
f 61/33/78 62/32/78 65/13/78 64/1/78
f 65/34/83 60/42/83 63/35/83
f 68/38/88 66/39/88 70/11/88 71/1/88
f 76/43/91 74/44/91 75/45/91 77/46/91
f 73/52/95 77/46/95 78/48/95
f 79/51/100 82/50/100 84/48/100
f 89/46/104 87/47/104 90/48/104
f 85/53/108 88/43/108 89/46/108
f 91/52/113 96/48/113 95/46/113
f 97/51/118 102/48/118 100/50/118
f 103/51/124 106/50/124 108/48/124
f 109/52/131 113/46/131 114/48/131
f 120/48/135 118/50/135 116/49/135 117/47/135
f 127/13/144 124/40/144 122/41/144
f 130/33/147 133/1/147 134/13/147 131/32/147
f 132/35/149 128/37/149 129/36/149
usemtl Pink
f 3/1/1 4/2/1 5/3/1
f 3/1/4 5/3/4 6/10/4
f 7/9/13 8/7/13 6/12/13
f 10/13/15 19/14/15 18/5/15
f 18/5/16 21/15/16 17/16/16
f 14/19/18 11/1/18 20/3/18 23/10/18
f 20/3/23 24/4/23 16/7/23 13/11/23
f 23/10/38 13/20/38 34/3/38
f 29/1/39 34/3/39 35/4/39 31/21/39
f 35/4/41 32/7/41 30/6/41 33/5/41
f 17/16/45 33/5/45 30/6/45
f 22/12/47 17/8/47 36/17/47
f 41/26/53 42/27/53 40/1/53
f 44/1/59 38/11/59 43/6/59
f 44/1/61 43/13/61 42/27/61
f 47/38/67 50/1/67 49/11/67 45/39/67
f 51/34/69 46/42/69 49/35/69
f 57/1/72 56/11/72 58/34/72
f 56/35/73 52/37/73 53/36/73
f 64/1/79 65/34/79 63/11/79
f 63/35/80 60/36/80 59/37/80
f 66/30/84 68/33/84 69/32/84 67/31/84
f 71/1/86 70/11/86 72/34/86
f 78/48/93 75/47/93 74/49/93 76/50/93
f 73/53/96 76/43/96 77/46/96
f 84/48/99 82/50/99 80/49/99 81/47/99
f 79/52/101 84/48/101 83/46/101
f 85/52/107 89/46/107 90/48/107
f 94/43/109 95/46/109 93/45/109 92/44/109
f 101/46/116 99/47/116 102/48/116
f 97/53/120 100/43/120 101/46/120
f 107/46/122 108/48/122 105/47/122
f 103/53/126 107/46/126 106/43/126
f 109/51/130 114/48/130 112/50/130
f 118/43/133 119/46/133 117/45/133 116/44/133
f 121/30/139 122/31/139 124/32/139 123/33/139
f 126/1/141 127/34/141 125/11/141
f 127/34/145 122/42/145 125/35/145
f 130/38/150 128/39/150 132/11/150 133/1/150
usemtl Violet
f 1/4/2 4/5/2 2/6/2
f 7/9/6 6/12/6 1/7/6
f 3/1/11 6/10/11 9/3/11
f 9/3/14 8/4/14 4/2/14
f 23/10/19 20/3/19 13/20/19
f 11/1/20 15/21/20 24/4/20 20/3/20
f 24/4/22 18/5/22 12/6/22 16/7/22
f 18/5/27 19/14/27 21/15/27
f 17/8/30 26/17/30 12/6/30
f 14/24/44 29/1/44 31/21/44 25/22/44
f 22/25/50 32/7/50 13/11/50
f 41/28/55 40/1/55 38/11/55
f 42/29/57 38/11/57 39/6/57
f 47/33/64 48/32/64 51/13/64 50/1/64
f 49/35/66 46/36/66 45/37/66
f 54/33/71 57/1/71 58/13/71 55/32/71
f 59/30/77 60/31/77 62/32/77 61/33/77
f 72/13/89 67/41/89 69/40/89
f 77/46/92 75/47/92 78/48/92
f 83/46/98 84/48/98 81/47/98
f 79/53/102 83/46/102 82/43/102
f 90/48/105 87/47/105 86/49/105 88/50/105
f 96/48/111 94/50/111 92/49/111 93/47/111
f 91/53/114 95/46/114 94/43/114
f 102/48/117 99/47/117 98/49/117 100/50/117
f 106/43/121 107/46/121 105/45/121 104/44/121
f 114/48/129 111/47/129 110/49/129 112/50/129
f 109/53/132 112/43/132 113/46/132
f 119/46/134 120/48/134 117/47/134
f 115/53/138 119/46/138 118/43/138
f 123/38/143 126/1/143 125/11/143 121/39/143
f 128/30/146 130/33/146 131/32/146 129/31/146
f 134/34/152 132/35/152 129/42/152
o Sword
v 0.032454 8.847744 4.278442
v 0.552303 8.930855 4.333960
v -0.438545 9.135946 4.045956
v 0.166890 16.697361 7.381041
v -0.033531 5.125559 2.325857
v -0.087554 9.326367 3.646524
v 0.451532 9.318113 3.561368
v 0.021118 8.588778 4.029054
v 0.311917 8.630166 4.057798
v -0.239662 8.753879 3.901359
v -0.043882 8.856624 3.677155
v 0.256177 8.846879 3.627414
vn -0.3269 -0.3425 0.8808
vn -0.4997 0.4051 -0.7656
vn -0.1598 -0.0754 -0.9843
vn 0.0312 -0.6916 0.7216
vn 0.8610 -0.4008 -0.3132
vn 0.9926 0.0836 -0.0876
vn -0.6160 -0.5354 0.5778
vn -0.5817 -0.3515 0.7335
vn -0.7821 0.2103 -0.5866
vn 0.9895 -0.0274 -0.1419
vn -0.0259 -0.4408 0.8972
vn -0.7200 -0.1134 -0.6846
vn -0.1433 0.3367 -0.9307
vt 0.375000 0.000000
vt 0.625000 0.000000
vt 0.625000 0.250000
vt 0.375000 0.250000
vt 0.625000 0.500000
vt 0.375000 0.500000
vt 0.753578 0.750000
vt 0.875000 0.500000
s 0
usemtl Yellow
f 135/54/153 136/55/153 138/56/153 137/57/153
f 137/57/154 138/56/154 141/58/154 140/59/154
f 140/59/155 141/58/155 146/58/155 145/59/155
f 136/55/156 135/54/156 142/54/156 143/55/156
f 141/58/157 136/60/157 143/60/157 146/58/157
f 141/58/158 138/61/158 136/60/158
f 135/54/159 137/57/159 144/57/159 142/54/159
f 142/54/160 144/57/160 139/54/160
f 144/57/161 145/59/161 139/57/161
f 146/58/162 143/60/162 139/58/162
f 143/55/163 142/54/163 139/55/163
f 137/57/164 140/59/164 145/59/164 144/57/164
f 145/59/165 146/58/165 139/59/165
o Cube.007
v -0.731616 7.965831 3.461380
v -1.208199 7.172343 1.583975
v -0.435462 7.489225 3.698628
v -1.396222 8.017414 2.551836
v -0.417493 7.490954 3.438585
v -0.856380 7.970551 2.872447
v -1.283324 7.162675 2.537313
v -0.610013 7.411133 2.863883
v -0.793487 8.567513 3.344581
v -1.083136 8.395967 3.479847
v -2.243110 10.053894 1.918566
v -1.107513 8.396306 2.975698
v -0.357066 6.925883 3.480349
v -0.825637 6.433172 2.580732
v -0.443330 6.823710 2.893366
v -0.019846 6.419479 3.383760
v -0.353918 6.371277 3.516778
v -0.172626 4.305149 2.023423
v -0.366621 6.339203 3.013220
v 0.569433 7.860911 5.133426
v -0.390045 7.488807 4.462407
v 0.026653 7.466514 4.442897
v 0.157923 7.165255 4.208197
v -0.092018 7.748010 4.443748
v -0.175048 8.074915 4.179865
v 0.299138 7.748288 4.694032
v 0.372920 7.751363 3.925655
v 0.267347 7.556520 4.271728
v 0.159425 7.847627 4.263501
vn -0.7901 -0.1430 0.5961
vn -0.9884 -0.1292 -0.0792
vn 0.8151 0.3658 -0.4492
vn 0.8455 0.4661 -0.2606
vn 0.3954 0.7286 -0.5593
vn 0.8338 0.5486 0.0613
vn -0.0477 0.6669 0.7436
vn -0.8360 -0.5472 0.0401
vn 0.5100 0.4748 -0.7172
vn 0.7400 0.0812 -0.6677
vn 0.9560 0.1475 0.2536
vn -0.8641 -0.2915 0.4104
vn -0.7068 -0.3743 0.6003
vn -0.8430 -0.5331 -0.0718
vn 0.8664 0.2234 -0.4466
vn 0.9515 0.1717 -0.2552
vn 0.7756 -0.3269 -0.5401
vn 0.9914 0.1111 0.0692
vn 0.3797 -0.5198 0.7653
vn -0.9934 -0.1104 0.0321
vn 0.7039 -0.0636 -0.7074
vn 0.6296 0.3877 -0.6732
vn 0.8276 0.5040 0.2471
vn -0.8563 -0.3131 0.4108
vn -0.3526 -0.6659 0.6575
vn 0.8107 -0.5801 -0.0793
vn 0.5865 0.7571 -0.2880
vn -0.7085 0.3255 0.6262
vn 0.0302 0.6486 -0.7605
vn -0.5182 -0.8548 -0.0291
vn -0.9470 0.3132 -0.0709
vn 0.4616 -0.5169 -0.7209
vn -0.5743 0.6919 0.4376
vn -0.0222 -0.8605 0.5089
vn 0.9419 -0.2226 -0.2516
vn 0.2356 0.9637 -0.1257
vt 0.375000 0.000000
vt 0.500000 0.000000
vt 0.500000 0.125000
vt 0.375000 0.125000
vt 0.625000 0.125000
vt 0.500000 0.625000
vt 0.625000 0.750000
vt 0.500000 0.750000
vt 0.375000 0.625000
vt 0.375000 0.750000
vt 0.625000 0.875000
vt 0.500000 0.875000
vt 0.250000 0.625000
vt 0.250000 0.750000
vt 0.625000 0.000000
vt 0.625000 0.250000
vt 0.375000 0.250000
vt 0.375000 0.500000
vt 0.625000 0.500000
vt 0.753578 0.750000
vt 0.875000 0.500000
vt 0.375000 0.000000
vt 0.625000 0.129147
vt 0.625000 0.376290
vt 0.625000 0.624943
vt 0.625000 0.884972
vt 0.875000 0.750000
vt 0.749987 0.624987
vt 0.875000 0.620853
vt 0.748710 0.500000
vt 0.759972 0.750000
vt 0.625000 1.000000
s 0
usemtl Green
f 147/62/166 150/63/166 153/64/166 149/65/166
f 150/63/167 148/66/167 153/64/167
f 154/67/168 148/68/168 152/69/168
f 151/70/169 154/67/169 152/69/169 147/71/169
f 152/69/170 148/72/170 150/73/170
f 149/74/171 151/70/171 147/75/171
f 155/76/172 157/77/172 156/78/172
f 156/78/173 157/77/173 158/79/173
f 158/80/174 155/81/174 152/81/174 150/80/174
f 158/80/175 157/82/175 155/81/175
f 155/83/176 156/78/176 147/78/176 152/83/176
f 156/78/177 158/79/177 150/79/177 147/78/177
f 159/62/178 149/65/178 153/64/178 160/63/178
f 160/63/179 153/64/179 148/66/179
f 154/67/180 161/69/180 148/68/180
f 151/70/181 159/71/181 161/69/181 154/67/181
f 161/69/182 160/73/182 148/72/182
f 149/74/183 159/75/183 151/70/183
f 162/76/184 163/78/184 164/77/184
f 163/78/185 165/79/185 164/77/185
f 165/80/186 160/80/186 161/81/186 162/81/186
f 165/80/187 162/81/187 164/82/187
f 162/83/188 161/83/188 159/78/188 163/78/188
f 163/78/189 159/78/189 160/79/189 165/79/189
f 166/83/190 168/84/190 169/77/190
f 166/78/191 174/85/191 173/80/191
f 166/79/192 175/86/192 171/68/192
f 166/71/193 171/68/193 170/87/193
f 167/88/194 172/89/194 169/82/194 168/90/194
f 173/80/195 172/89/195 171/68/195 175/86/195
f 169/82/196 172/89/196 173/80/196 174/91/196
f 171/68/197 172/89/197 167/88/197 170/92/197
f 170/87/198 167/93/198 166/71/198
f 168/84/199 166/83/199 167/76/199
f 174/85/200 166/78/200 169/77/200
f 175/86/201 166/79/201 173/80/201
