# Blender 4.0.2
# www.blender.org
mtllib PlayerAttackSword.mtl
o Player
v -1.033029 7.773142 0.220782
v -0.000000 6.975027 -0.386988
v 0.000000 9.011241 0.184559
v -0.000000 8.380474 -0.762257
v -2.170182 8.033617 2.187164
v 0.000000 8.123639 1.165634
v -0.000000 7.208887 0.823802
v 1.033029 7.773142 0.220782
v 0.200836 7.485531 -1.483106
v 0.147633 11.185796 0.446889
v 0.500000 9.773881 0.434182
v 0.338715 11.437945 1.410107
v 0.000000 9.062706 1.511834
v -0.000000 9.581505 0.263292
v 0.609568 10.153713 0.366790
v 0.609568 9.929091 1.443619
v 0.000000 10.776088 1.506496
v 0.609568 10.788243 0.897049
v -0.000000 10.874252 0.216639
v 0.609568 9.569350 0.872739
v -0.000000 10.565185 0.827742
v -0.000000 9.802223 1.743198
v -0.000000 9.339458 0.868153
v 0.740226 10.178797 0.884894
v -0.000000 10.195537 0.045555
v 0.361011 10.042470 1.657557
v 0.306810 9.938371 1.434885
v -0.147633 11.185796 0.446889
v -0.500000 9.773881 0.434182
v -0.338715 11.437945 1.410107
v -0.609568 10.153713 0.366790
v -0.609568 9.929091 1.443619
v -0.609568 10.788243 0.897049
v -0.609568 9.569350 0.872739
v -0.740226 10.178797 0.884894
v -0.361011 10.042470 1.657557
v -0.306810 9.938370 1.434885
v -0.000000 6.108031 -0.697403
v -1.000000 5.495749 -1.467837
v -1.233892 6.296555 -1.143257
v 0.000000 7.249368 -0.214726
v -0.000000 6.300502 -1.534695
v 1.000000 5.495749 -1.467837
v 1.233892 6.296555 -1.143257
v -0.018517 8.391018 -1.347927
v 0.916520 8.237053 -1.121671
v -0.149358 7.948026 -2.353122
v 1.099579 7.699759 -2.151858
v -0.278686 7.555137 -0.903304
v -0.399896 7.059829 -1.721795
v 0.556996 6.749435 -1.592725
v -1.939388 8.900826 1.902596
v -1.343699 8.615275 2.618701
v -2.960616 8.711423 2.283383
v -2.260851 8.311613 3.289598
v -1.888173 8.012979 1.486448
v -2.759306 7.729577 1.787710
v -2.273638 7.312433 2.574324
v 1.119409 0.054132 2.552386
v 1.473548 -0.464927 2.547680
v 1.248295 0.951548 0.220546
v 1.904507 0.001511 0.918660
v 0.810412 -0.492697 2.447873
v 0.897352 0.013137 0.554196
v 1.492571 -0.438107 0.579006
v -3.417664 0.054079 -1.814847
v -3.399683 -0.464981 -2.168560
v -1.082633 0.951497 -1.856215
v -1.755652 0.001458 -2.538140
v -3.324810 -0.492750 -1.502149
v -1.429205 0.013087 -1.518029
v -1.431680 -0.438158 -2.113759
v -1.871500 0.224215 -1.738948
v -2.035510 3.889344 0.045889
v -2.383554 3.617513 0.499573
v -1.712168 3.280087 -0.524177
v -1.960196 2.424418 0.028227
v -2.567596 2.571907 -0.364362
v 1.291612 0.292842 1.058106
v 1.553120 4.351850 0.739090
v 1.776269 4.352147 1.331592
v 1.271595 3.537216 0.498604
v 1.309880 3.089471 1.445650
v 1.992714 3.009458 1.177041
v -0.948876 5.297450 -1.381863
v -2.192503 3.970951 0.269092
v -2.212082 3.366180 0.190418
v -2.390066 4.021076 0.740502
v -1.593414 3.558470 0.166669
v -2.410554 3.695518 -0.406740
v 0.947061 5.260164 -1.316143
v 1.691209 4.540551 0.962755
v 1.622959 3.957856 1.130471
v 1.809474 4.764356 1.409628
v 1.058706 4.173298 0.894904
v 1.974227 3.993856 0.514219
v 2.416246 7.572082 0.606409
v 0.789999 7.113090 -1.163459
v 0.608228 7.874374 -1.461463
v 1.181901 6.835809 -0.739702
v 1.685894 8.014917 -0.829216
v 1.114289 8.077408 -0.306406
v 0.644850 7.417860 3.180839
v -1.721431 7.543145 2.570263
v -1.866755 8.366792 2.526796
v -1.251308 7.138373 2.728964
v -0.802038 8.252743 3.185750
v -0.598664 8.243794 2.435733
v 0.614932 7.428286 3.187688
v 2.429854 7.681908 3.131382
v 2.813872 6.319986 2.745005
v 2.775969 8.189368 3.069206
v 2.081638 7.029701 2.757284
v 2.307620 7.584888 3.597524
v 2.408295 7.574411 0.575604
v 3.131804 8.292892 2.099337
v 3.088237 7.087163 2.933549
v 3.179217 8.874243 2.301723
v 2.708056 7.581361 2.126552
v 3.503613 8.156652 1.808064
v 3.049488 7.486858 2.766640
v 3.905947 7.533424 2.820400
v 2.717983 8.164689 3.385422
v 3.839387 8.293260 3.523769
v 3.048207 8.043260 2.102881
v 2.781283 8.706572 2.563724
v 3.647225 8.912135 2.654785
v 2.938577 8.013450 2.805708
v 3.208915 7.402437 2.265189
v 3.504739 7.923894 3.595442
v 3.929492 7.093554 2.944798
v 2.340650 7.478311 3.131702
v 2.769495 7.317063 3.848429
v 3.090462 6.599499 3.421246
vn -0.6634 0.6227 -0.4149
vn -0.6090 -0.2046 -0.7663
vn -0.5432 -0.8244 0.1592
vn 0.2741 0.7131 0.6452
vn 0.1381 -0.9683 0.2082
vn -0.5938 -0.2816 0.7537
vn -0.7383 0.4650 -0.4886
vn 0.8643 0.4186 -0.2788
vn 0.6090 -0.2046 -0.7663
vn 0.5432 -0.8244 0.1592
vn 0.9960 0.0659 0.0596
vn 0.1236 0.9668 -0.2235
vn 0.5938 -0.2816 0.7537
vn -0.7289 -0.5212 0.4440
vn -0.7467 -0.1285 0.6527
vn -0.3011 0.9107 -0.2830
vn -0.0401 -0.9014 0.4312
vn 0.3806 -0.8350 -0.3973
vn 0.3299 -0.8673 -0.3729
vn 0.9296 -0.2413 -0.2787
vn 0.8561 0.3314 -0.3965
vn 0.9412 0.1813 0.2850
vn 0.8654 -0.4239 0.2671
vn 0.5072 0.2577 -0.8224
vn 0.4206 -0.2927 -0.8587
vn -0.6867 0.2521 -0.6818
vn -0.3535 0.8348 0.4222
vn 0.0731 0.2355 0.9691
vn 0.6816 0.1383 0.7186
vn -0.0590 0.1734 0.9831
vn 0.4691 -0.2637 0.8429
vn 0.0158 0.9088 0.4170
vn 0.5763 -0.7851 0.2268
vn 0.7467 -0.1285 0.6527
vn 0.3011 0.9107 -0.2830
vn 0.0401 -0.9014 0.4312
vn -0.3806 -0.8350 -0.3973
vn -0.3299 -0.8673 -0.3729
vn -0.9296 -0.2413 -0.2787
vn -0.8561 0.3314 -0.3965
vn -0.9412 0.1813 0.2850
vn -0.8654 -0.4239 0.2671
vn -0.5072 0.2577 -0.8224
vn -0.4206 -0.2927 -0.8587
vn 0.6867 0.2521 -0.6818
vn 0.3535 0.8348 0.4222
vn -0.0731 0.2355 0.9691
vn -0.6816 0.1383 0.7186
vn 0.0590 0.1734 0.9831
vn -0.4691 -0.2637 0.8429
vn -0.0158 0.9088 0.4170
vn -0.5763 -0.7851 0.2268
vn -0.1845 0.7980 -0.5737
vn -0.3639 -0.4392 0.8214
vn -0.3652 -0.3626 0.8574
vn -0.2906 0.2853 -0.9133
vn 0.6098 -0.7724 -0.1776
vn 0.1845 0.7980 -0.5737
vn 0.3639 -0.4392 0.8214
vn 0.3652 -0.3626 0.8574
vn 0.2906 0.2853 -0.9133
vn -0.6098 -0.7724 -0.1776
vn 0.2428 0.8764 -0.4159
vn -0.0108 -0.5402 -0.8415
vn -0.3259 -0.7867 0.5243
vn -0.1262 0.4962 0.8590
vn -0.9605 0.2781 -0.0103
vn 0.8910 -0.3180 0.3242
vn 0.3624 -0.3598 0.8598
vn -0.0252 0.9222 0.3859
vn -0.8494 -0.3317 0.4105
vn 0.0997 -0.8523 -0.5135
vn 0.7889 0.2975 -0.5376
vn -0.3946 0.3592 -0.8458
vn 0.6181 -0.4628 0.6355
vn 0.8124 -0.5770 -0.0837
vn 0.7044 0.6346 0.3181
vn 0.3329 -0.1802 -0.9256
vn -0.5810 -0.7793 -0.2348
vn -0.1436 -0.1069 0.9838
vn -0.9046 0.4161 0.0920
vn 0.7306 -0.6828 -0.0022
vn 0.0438 -0.9990 -0.0132
vn -0.2914 0.6346 -0.7158
vn 0.9374 -0.1802 -0.2979
vn 0.2129 -0.7793 0.5894
vn -0.9885 -0.1069 0.1066
vn -0.1258 0.4161 0.9005
vn 0.0296 -0.6828 -0.7300
vn 0.0148 -0.9990 -0.0433
vn 0.8412 0.0367 0.5395
vn -0.5570 -0.4685 0.6857
vn -0.6693 0.4536 -0.5884
vn -0.4444 0.3508 -0.8243
vn -0.5458 -0.5380 0.6424
vn 0.9657 -0.1378 0.2201
vn -0.9164 0.3149 0.2471
vn 0.3606 -0.0491 0.9314
vn 0.8158 0.0803 -0.5728
vn 0.6280 -0.1285 -0.7675
vn 0.3496 -0.1308 0.9277
vn -0.9992 0.0009 0.0408
vn -0.3376 -0.6575 0.6736
vn 0.2335 -0.8165 -0.5279
vn -0.6876 -0.5674 0.4531
vn -0.7757 0.6107 -0.1594
vn 0.3327 -0.6929 -0.6397
vn 0.6714 0.3383 0.6594
vn 0.1010 -0.3462 0.9327
vn -0.2712 -0.9394 -0.2095
vn 0.4940 -0.3842 0.7800
vn 0.8829 0.4238 -0.2022
vn -0.3343 -0.8524 -0.4021
vn -0.7142 0.6132 0.3375
vn 0.5495 -0.2504 -0.7971
vn -0.0362 0.9868 -0.1576
vn -0.8635 -0.1402 0.4845
vn -0.6222 -0.2879 0.7280
vn 0.2546 0.9530 0.1644
vn 0.7766 -0.3706 -0.5094
vn -0.4952 -0.1062 0.8622
vn 0.0976 0.9951 0.0146
vn -0.0129 -0.1686 -0.9856
vn 0.2675 -0.3915 -0.8804
vn 0.4962 0.8592 0.1243
vn -0.1766 -0.3115 0.9337
vn 0.5787 0.1507 -0.8015
vn -0.5751 -0.6029 0.5530
vn 0.9682 -0.0236 0.2490
vn -0.2232 0.7338 0.6417
vn -0.0596 -0.8254 0.5614
vn -0.1743 0.3517 -0.9197
vn -0.4756 0.3146 0.8215
vn 0.2993 -0.7444 -0.5969
vn 0.6505 0.2235 0.7259
vn 0.4033 0.6354 -0.6586
vn 0.5552 -0.8252 -0.1036
vn -0.9320 0.3154 0.1787
vn -0.0113 -0.6786 0.7345
vn -0.1998 0.8006 0.5649
vn -0.0452 0.5577 -0.8288
vn 0.0817 -0.7637 -0.6404
vn -0.9444 -0.2443 -0.2200
vn 0.9805 0.1727 -0.0938
vn 0.6522 0.0314 -0.7574
vn 0.6536 0.6439 -0.3978
vn 0.5567 -0.2771 0.7831
vn -0.7681 -0.5443 0.3372
vn -0.6563 0.3158 -0.6852
vn -0.4681 0.7680 0.4370
vn 0.1688 -0.8176 -0.5505
vn -0.5648 -0.6496 -0.5090
vt 0.375000 0.500000
vt 0.440405 0.500000
vt 0.375000 0.625000
vt 0.500000 0.625000
vt 0.625000 0.625000
vt 0.625000 0.750000
vt 0.500000 0.750000
vt 0.625000 0.875000
vt 0.561728 0.875000
vt 0.250000 0.625000
vt 0.375000 0.750000
vt 0.500000 0.875000
vt 0.625000 0.500000
vt 0.750000 0.500000
vt 0.750000 0.625000
vt 0.750000 0.750000
vt 0.522410 0.825377
vt 0.509034 0.820007
vt 0.250000 0.500000
vt 0.250000 0.750000
vt 0.500000 0.500000
vt 0.500000 0.375000
vt 0.625000 0.375000
vt 0.375000 0.375000
vt 0.500000 0.816380
vt 0.375000 0.375000
vt 0.625000 0.375000
vt 0.250000 0.500000
vt 0.625000 0.875000
vt 0.375000 0.000000
vt 0.625000 0.000000
vt 0.625000 0.250000
vt 0.375000 0.250000
vt 0.625000 0.645984
vt 0.544393 0.750000
vt 0.625000 1.000000
vt 0.375000 1.000000
vt 0.125000 0.500000
vt 0.125000 0.750000
vt 0.875000 0.500000
vt 0.753578 0.750000
vt 0.625000 0.878578
vt 1.000000 0.750000
vt 1.000000 1.000000
vt 0.666667 1.000000
vt 0.666667 0.750000
vt 0.333333 1.000000
vt 0.333333 0.750000
vt -0.000000 1.000000
vt -0.000000 0.750000
vt 0.333333 0.500000
vt 0.666667 0.500000
vt 1.000000 0.500000
s 0
usemtl Material
f 16/7/17 26/17/17 27/18/17
f 27/18/32 22/25/32 16/7/32
f 22/12/33 27/18/33 26/17/33
f 32/7/36 37/18/36 36/17/36
f 37/18/51 32/7/51 22/25/51
f 22/12/52 36/17/52 37/18/52
usemtl Green
f 6/10/5 5/3/5 1/11/5
f 3/1/8 9/3/8 4/2/8
f 8/7/10 7/9/10 2/8/10
f 25/22/24 19/23/24 10/13/24 15/21/24
f 17/16/26 12/6/26 18/5/26
f 12/6/29 26/17/29 16/7/29
f 22/25/31 13/11/31 16/7/31
f 14/19/37 23/10/37 34/3/37 29/1/37
f 31/21/40 35/4/40 33/5/40 28/13/40
f 33/5/46 21/15/46 19/14/46
f 17/8/49 30/6/49 36/17/49
f 40/1/54 39/6/54 38/11/54
f 41/26/58 44/1/58 42/27/58
f 42/29/62 43/6/62 38/11/62
f 45/30/63 46/31/63 48/32/63 47/33/63
f 52/30/70 54/33/70 55/32/70 53/31/70
f 58/34/76 56/35/76 53/42/76
f 61/38/81 64/1/81 63/11/81 59/39/81
f 65/13/82 62/40/82 60/41/82
f 68/33/85 71/1/85 72/13/85 69/32/85
f 70/35/87 66/37/87 67/36/87
f 72/34/90 70/35/90 67/42/90
f 73/51/94 78/48/94 76/50/94
f 82/43/97 83/46/97 81/45/97 80/44/97
f 88/43/103 86/44/103 87/45/103 89/46/103
f 85/51/106 90/48/106 88/50/106
f 95/46/110 96/48/110 93/47/110
f 91/51/112 94/50/112 96/48/112
f 100/43/115 98/44/115 99/45/115 101/46/115
f 97/52/119 101/46/119 102/48/119
f 108/48/123 106/50/123 104/49/123 105/47/123
f 103/52/125 108/48/125 107/46/125
f 112/43/127 110/44/127 111/45/127 113/46/127
f 113/46/128 111/47/128 114/48/128
f 115/51/136 118/50/136 120/48/136
f 115/52/137 120/48/137 119/46/137
f 123/33/140 124/32/140 127/13/140 126/1/140
f 125/35/142 122/36/142 121/37/142
f 133/1/148 132/11/148 134/34/148
f 134/13/151 129/41/151 131/40/151
usemtl Yellow
f 1/7/3 2/8/3 7/9/3
f 5/3/7 4/2/7 1/4/7
f 8/4/9 2/6/9 4/5/9
f 6/10/12 8/11/12 9/3/12
f 15/21/21 10/13/21 18/5/21 24/4/21
f 14/24/25 25/22/25 15/21/25 11/1/25
f 22/12/28 26/17/28 17/8/28
f 28/13/34 33/5/34 19/14/34
f 33/5/35 17/16/35 21/15/35
f 34/3/42 13/11/42 32/7/42 35/4/42
f 25/22/43 31/21/43 28/13/43 19/23/43
f 30/6/48 32/7/48 36/17/48
f 40/1/56 42/27/56 39/13/56
f 41/28/60 38/11/60 44/1/60
f 50/1/65 51/34/65 49/11/65
f 51/13/68 48/40/68 46/41/68
f 54/38/74 52/39/74 56/11/74 57/1/74
f 58/13/75 53/41/75 55/40/75
f 61/33/78 62/32/78 65/13/78 64/1/78
f 65/34/83 60/42/83 63/35/83
f 68/38/88 66/39/88 70/11/88 71/1/88
f 76/43/91 74/44/91 75/45/91 77/46/91
f 73/52/95 77/46/95 78/48/95
f 79/51/100 82/50/100 84/48/100
f 89/46/104 87/47/104 90/48/104
f 85/53/108 88/43/108 89/46/108
f 91/52/113 96/48/113 95/46/113
f 97/51/118 102/48/118 100/50/118
f 103/51/124 106/50/124 108/48/124
f 109/52/131 113/46/131 114/48/131
f 120/48/135 118/50/135 116/49/135 117/47/135
f 127/13/144 124/40/144 122/41/144
f 130/33/147 133/1/147 134/13/147 131/32/147
f 132/35/149 128/37/149 129/36/149
usemtl Pink
f 3/1/1 4/2/1 5/3/1
f 3/1/4 5/3/4 6/10/4
f 7/9/13 8/7/13 6/12/13
f 10/13/15 19/14/15 18/5/15
f 18/5/16 21/15/16 17/16/16
f 14/19/18 11/1/18 20/3/18 23/10/18
f 20/3/23 24/4/23 16/7/23 13/11/23
f 23/10/38 13/20/38 34/3/38
f 29/1/39 34/3/39 35/4/39 31/21/39
f 35/4/41 32/7/41 30/6/41 33/5/41
f 17/16/45 33/5/45 30/6/45
f 22/12/47 17/8/47 36/17/47
f 41/26/53 42/27/53 40/1/53
f 44/1/59 38/11/59 43/6/59
f 44/1/61 43/13/61 42/27/61
f 47/38/67 50/1/67 49/11/67 45/39/67
f 51/34/69 46/42/69 49/35/69
f 57/1/72 56/11/72 58/34/72
f 56/35/73 52/37/73 53/36/73
f 64/1/79 65/34/79 63/11/79
f 63/35/80 60/36/80 59/37/80
f 66/30/84 68/33/84 69/32/84 67/31/84
f 71/1/86 70/11/86 72/34/86
f 78/48/93 75/47/93 74/49/93 76/50/93
f 73/53/96 76/43/96 77/46/96
f 84/48/99 82/50/99 80/49/99 81/47/99
f 79/52/101 84/48/101 83/46/101
f 85/52/107 89/46/107 90/48/107
f 94/43/109 95/46/109 93/45/109 92/44/109
f 101/46/116 99/47/116 102/48/116
f 97/53/120 100/43/120 101/46/120
f 107/46/122 108/48/122 105/47/122
f 103/53/126 107/46/126 106/43/126
f 109/51/130 114/48/130 112/50/130
f 118/43/133 119/46/133 117/45/133 116/44/133
f 121/30/139 122/31/139 124/32/139 123/33/139
f 126/1/141 127/34/141 125/11/141
f 127/34/145 122/42/145 125/35/145
f 130/38/150 128/39/150 132/11/150 133/1/150
usemtl Violet
f 1/4/2 4/5/2 2/6/2
f 7/9/6 6/12/6 1/7/6
f 3/1/11 6/10/11 9/3/11
f 9/3/14 8/4/14 4/2/14
f 23/10/19 20/3/19 13/20/19
f 11/1/20 15/21/20 24/4/20 20/3/20
f 24/4/22 18/5/22 12/6/22 16/7/22
f 18/5/27 19/14/27 21/15/27
f 17/8/30 26/17/30 12/6/30
f 14/24/44 29/1/44 31/21/44 25/22/44
f 22/25/50 32/7/50 13/11/50
f 41/28/55 40/1/55 38/11/55
f 42/29/57 38/11/57 39/6/57
f 47/33/64 48/32/64 51/13/64 50/1/64
f 49/35/66 46/36/66 45/37/66
f 54/33/71 57/1/71 58/13/71 55/32/71
f 59/30/77 60/31/77 62/32/77 61/33/77
f 72/13/89 67/41/89 69/40/89
f 77/46/92 75/47/92 78/48/92
f 83/46/98 84/48/98 81/47/98
f 79/53/102 83/46/102 82/43/102
f 90/48/105 87/47/105 86/49/105 88/50/105
f 96/48/111 94/50/111 92/49/111 93/47/111
f 91/53/114 95/46/114 94/43/114
f 102/48/117 99/47/117 98/49/117 100/50/117
f 106/43/121 107/46/121 105/45/121 104/44/121
f 114/48/129 111/47/129 110/49/129 112/50/129
f 109/53/132 112/43/132 113/46/132
f 119/46/134 120/48/134 117/47/134
f 115/53/138 119/46/138 118/43/138
f 123/38/143 126/1/143 125/11/143 121/39/143
f 128/30/146 130/33/146 131/32/146 129/31/146
f 134/34/152 132/35/152 129/42/152
o Sword
v 3.153727 9.240177 3.452343
v 3.669649 9.358359 3.442897
v 2.660113 9.392458 3.148853
v 2.950067 17.673779 3.146445
v 3.232514 5.047544 3.156992
v 2.986841 9.419552 2.688945
v 3.522514 9.398348 2.586291
v 3.148809 8.902596 3.328242
v 3.437622 8.963108 3.322882
v 2.875232 8.992383 3.158936
v 3.057626 9.003757 2.902505
v 3.355998 8.986300 2.845282
vn -0.2787 0.0281 0.9600
vn -0.5460 0.0439 -0.8366
vn -0.1871 -0.4706 -0.8623
vn 0.0931 -0.3416 0.9352
vn 0.8714 -0.4597 -0.1712
vn 0.9831 0.0792 -0.1652
vn -0.5662 -0.2811 0.7748
vn -0.5372 -0.0491 0.8420
vn -0.8112 -0.0732 -0.5802
vn 0.9844 -0.0443 -0.1704
vn 0.0277 -0.0438 0.9987
vn -0.7343 -0.4064 -0.5437
vn -0.1919 -0.0714 -0.9788
vt 0.375000 0.000000
vt 0.625000 0.000000
vt 0.625000 0.250000
vt 0.375000 0.250000
vt 0.625000 0.500000
vt 0.375000 0.500000
vt 0.753578 0.750000
vt 0.875000 0.500000
s 0
usemtl Yellow
f 135/54/153 136/55/153 138/56/153 137/57/153
f 137/57/154 138/56/154 141/58/154 140/59/154
f 140/59/155 141/58/155 146/58/155 145/59/155
f 136/55/156 135/54/156 142/54/156 143/55/156
f 141/58/157 136/60/157 143/60/157 146/58/157
f 141/58/158 138/61/158 136/60/158
f 135/54/159 137/57/159 144/57/159 142/54/159
f 142/54/160 144/57/160 139/54/160
f 144/57/161 145/59/161 139/57/161
f 146/58/162 143/60/162 139/58/162
f 143/55/163 142/54/163 139/55/163
f 137/57/164 140/59/164 145/59/164 144/57/164
f 145/59/165 146/58/165 139/59/165
o Cube.007
v 2.919742 8.084096 3.810090
v 0.959881 7.473120 3.401368
v 3.187548 7.538458 3.851391
v 1.823436 8.348011 3.819805
v 2.978982 7.529102 3.695312
v 2.362282 8.121428 3.585873
v 1.719150 7.507527 3.981813
v 2.383682 7.511141 3.557418
v 2.895674 8.667301 3.613155
v 2.829739 8.610149 3.965301
v 1.213924 10.540213 3.522740
v 2.394348 8.609862 3.709966
v 2.945801 6.979345 3.841487
v 1.863136 6.665050 3.867635
v 2.391020 6.903123 3.620497
v 2.949501 6.385417 3.678008
v 2.880475 6.459294 4.026430
v 1.357980 4.433243 3.696303
v 2.445897 6.424575 3.772074
v 4.974195 7.561797 3.733226
v 3.851547 7.536018 4.231550
v 4.045963 7.369299 3.901517
v 3.863763 7.036976 3.762100
v 4.035023 7.674480 3.909805
v 3.828367 8.004974 3.732432
v 4.446553 7.542702 3.739741
v 3.840583 7.505932 3.262981
v 4.042222 7.366498 3.592791
v 4.030896 7.676767 3.584821
vn 0.0677 0.1526 0.9860
vn -0.5984 0.2226 0.7696
vn 0.1075 0.0501 -0.9929
vn 0.2990 0.1368 -0.9444
vn -0.1373 0.5344 -0.8340
vn 0.5775 0.2240 -0.7851
vn 0.7164 0.6549 0.2404
vn -0.4934 -0.2201 0.8415
vn -0.2554 0.2538 -0.9329
vn -0.1645 -0.1944 -0.9670
vn 0.7312 -0.1910 -0.6549
vn -0.1522 0.0360 0.9877
vn 0.0735 -0.0930 0.9929
vn -0.5883 -0.2065 0.7818
vn 0.1111 -0.1012 -0.9886
vn 0.3063 -0.1759 -0.9355
vn -0.1109 -0.5868 -0.8021
vn 0.5884 -0.2407 -0.7719
vn 0.7462 -0.6057 0.2763
vn -0.5043 0.2440 0.8283
vn -0.2419 -0.3181 -0.9167
vn -0.1722 0.1312 -0.9763
vn 0.7223 0.1877 -0.6656
vn -0.1516 0.0130 0.9883
vn 0.2528 -0.4889 0.8349
vn 0.2492 -0.8279 -0.5024
vn 0.1937 0.4993 -0.8445
vn 0.2175 0.5636 0.7969
vn -0.5083 0.5834 -0.6334
vn -0.4417 -0.6204 0.6481
vn -0.4924 0.6228 0.6080
vn -0.4577 -0.6585 -0.5974
vn 0.1928 0.8566 0.4786
vn 0.2642 -0.7893 0.5543
vn 0.2351 -0.5419 -0.8069
vn 0.1853 0.8184 -0.5440
vt 0.375000 0.000000
vt 0.500000 0.000000
vt 0.500000 0.125000
vt 0.375000 0.125000
vt 0.625000 0.125000
vt 0.500000 0.625000
vt 0.625000 0.750000
vt 0.500000 0.750000
vt 0.375000 0.625000
vt 0.375000 0.750000
vt 0.625000 0.875000
vt 0.500000 0.875000
vt 0.250000 0.625000
vt 0.250000 0.750000
vt 0.625000 0.000000
vt 0.625000 0.250000
vt 0.375000 0.250000
vt 0.375000 0.500000
vt 0.625000 0.500000
vt 0.753578 0.750000
vt 0.875000 0.500000
vt 0.375000 0.000000
vt 0.625000 0.129147
vt 0.625000 0.376290
vt 0.625000 0.624943
vt 0.625000 0.884972
vt 0.875000 0.750000
vt 0.749987 0.624987
vt 0.875000 0.620853
vt 0.748710 0.500000
vt 0.759972 0.750000
vt 0.625000 1.000000
s 0
usemtl Green
f 147/62/166 150/63/166 153/64/166 149/65/166
f 150/63/167 148/66/167 153/64/167
f 154/67/168 148/68/168 152/69/168
f 151/70/169 154/67/169 152/69/169 147/71/169
f 152/69/170 148/72/170 150/73/170
f 149/74/171 151/70/171 147/75/171
f 155/76/172 157/77/172 156/78/172
f 156/78/173 157/77/173 158/79/173
f 158/80/174 155/81/174 152/81/174 150/80/174
f 158/80/175 157/82/175 155/81/175
f 155/83/176 156/78/176 147/78/176 152/83/176
f 156/78/177 158/79/177 150/79/177 147/78/177
f 159/62/178 149/65/178 153/64/178 160/63/178
f 160/63/179 153/64/179 148/66/179
f 154/67/180 161/69/180 148/68/180
f 151/70/181 159/71/181 161/69/181 154/67/181
f 161/69/182 160/73/182 148/72/182
f 149/74/183 159/75/183 151/70/183
f 162/76/184 163/78/184 164/77/184
f 163/78/185 165/79/185 164/77/185
f 165/80/186 160/80/186 161/81/186 162/81/186
f 165/80/187 162/81/187 164/82/187
f 162/83/188 161/83/188 159/78/188 163/78/188
f 163/78/189 159/78/189 160/79/189 165/79/189
f 166/83/190 168/84/190 169/77/190
f 166/78/191 174/85/191 173/80/191
f 166/79/192 175/86/192 171/68/192
f 166/71/193 171/68/193 170/87/193
f 167/88/194 172/89/194 169/82/194 168/90/194
f 173/80/195 172/89/195 171/68/195 175/86/195
f 169/82/196 172/89/196 173/80/196 174/91/196
f 171/68/197 172/89/197 167/88/197 170/92/197
f 170/87/198 167/93/198 166/71/198
f 168/84/199 166/83/199 167/76/199
f 174/85/200 166/78/200 169/77/200
f 175/86/201 166/79/201 173/80/201
