# Blender 4.0.2
# www.blender.org
mtllib Stage.mtl
o Floor
v -2.491575 4.545243 -1.965433
v -2.837884 5.562210 -2.314630
v -6.952517 6.863690 -4.532973
v -2.831739 4.802257 -3.011531
v -5.486752 4.733973 -2.197646
v -4.716105 5.623837 -2.398394
v -4.709962 4.863884 -3.095296
v -0.499642 4.481503 -1.965955
v -0.089206 5.474254 -2.315351
v 4.099053 6.510044 -4.535872
v -0.144290 4.716259 -3.012237
v 2.501351 4.478356 -2.199741
v 1.789070 5.415675 -2.400100
v 1.733985 4.657681 -3.096986
v -3.447129 5.118544 -1.660815
v -3.300199 6.109851 -2.172749
v -2.825871 3.066012 -3.143881
v -3.528037 4.369888 -3.479509
v -1.503021 4.271521 -0.717616
v -1.451103 5.914325 -3.199806
v -1.588969 1.593122 -1.635868
v -1.480756 4.994428 -4.026735
v -1.563255 2.409042 -3.141827
v -1.437967 6.317863 -2.352327
v -1.513655 3.963509 -3.683122
v -2.497114 4.440165 -2.691473
v -2.193144 4.372192 -4.058706
v -2.810311 3.784218 -3.409610
v 0.490769 4.992532 -1.661847
v 0.407249 5.991214 -2.173721
v -0.261222 2.983945 -3.144553
v 0.522693 4.240267 -3.480571
v -0.501213 4.376297 -2.691997
v -0.809624 4.327921 -4.059069
v -0.230972 3.701680 -3.410286
v -2.302511 1.776595 0.351207
v -1.941454 4.151619 -1.191862
v -1.474293 1.417329 -0.333199
v -1.512373 3.444027 -1.450568
v -0.619139 1.777804 0.300210
v -1.074859 4.155762 -1.218746
v -4.859035 1.174140 1.127918
v -3.263183 2.749470 0.927219
v -3.790085 1.005962 -0.990228
v -2.848166 2.620686 -0.906746
v -1.416476 0.612324 1.612193
v -1.472051 3.241555 -0.133025
v -1.475683 -2.271505 -0.123309
v -1.507932 2.694572 -1.210932
v -1.532881 0.783708 -1.927092
v -1.422616 3.068389 1.372228
v 1.987575 1.169232 0.902499
v 0.384235 2.746856 0.807130
v 0.781375 1.002684 -1.140740
v -0.150700 2.618752 -0.995558
v -5.038810 2.926990 0.813295
v -5.868254 2.570124 0.427383
v -5.702348 1.365266 2.237527
v -6.663562 1.613072 0.995190
v -4.018391 2.312410 0.210771
v -5.203459 2.060060 -1.013649
v -4.312637 0.995784 1.450576
v -5.776901 1.038556 -0.451790
v 2.148235 2.933825 0.576223
v 2.951152 2.577855 0.137054
v 2.907058 1.375509 1.955912
v 3.783930 1.623120 0.652638
v 1.091535 2.316473 0.043063
v 2.193905 2.064361 -1.256356
v 1.469261 1.002304 1.262686
v 2.805031 1.044765 -0.732008
v -6.508268 -3.384019 -7.444712
v -7.551546 -0.452740 -7.890228
v -8.153870 -2.808816 -7.963138
v -7.491443 -2.449938 -7.365854
v -7.513668 -2.658896 -8.000343
v 3.020716 -3.453503 -7.205325
v 4.733768 -0.765571 -7.727015
v 4.541415 -3.021717 -7.561081
v 4.248210 -2.600646 -7.150428
v 3.810636 -2.822203 -7.662177
v -6.069413 -3.466930 -7.439803
v -7.095439 -0.268356 -9.498219
v -7.264336 -2.722000 -9.152392
v -6.876291 -2.431261 -8.507100
v -6.499139 -2.483738 -9.056404
v 2.700661 -3.501178 -7.682213
v 3.648753 -0.133958 -9.623771
v 3.755793 -2.869039 -9.526889
v 3.467732 -2.543157 -8.846937
v 3.028725 -2.566162 -9.350402
v -5.876218 -3.451740 -8.036741
v -5.603832 -0.559514 -9.899405
v -5.970369 -3.059088 -9.771244
v -6.211246 -2.677906 -9.101775
v -5.549166 -2.752667 -9.154638
v 2.444188 -3.472628 -8.254313
v 2.608970 -0.563208 -9.759255
v 2.377306 -3.098097 -9.994080
v 2.722306 -2.735399 -9.360887
v 2.054533 -2.753916 -9.339200
v -4.824564 1.435836 1.345377
v -5.822634 1.391774 0.560003
v -5.915808 -3.531130 -2.431140
v -5.178361 1.281630 0.420308
v -5.147046 -0.892166 0.743677
v -5.965966 -0.364110 0.044708
v -5.316415 -0.494846 -0.043184
v -6.313671 -4.202957 -7.967763
v -4.652536 -2.929586 -8.388790
v -7.099501 -3.290756 -6.677464
v -5.551383 -5.179392 -5.326262
v -4.666182 -4.020360 -5.750044
v -6.383503 -4.121240 -5.238669
v 1.863922 1.475334 0.836941
v 2.912338 1.404778 0.272901
v 2.804560 -3.539699 -2.677654
v 2.260010 1.291276 0.181690
v 2.151093 -0.855637 0.228875
v 3.024792 -0.354145 -0.239685
v 2.371093 -0.487894 -0.278707
v 2.902459 -4.226926 -8.219812
v 1.213337 -2.964436 -8.553117
v 3.751988 -3.306328 -6.976705
v 2.290999 -5.199800 -5.538082
v 1.377171 -4.047176 -5.916112
v 3.120368 -4.136603 -5.498808
v -2.847833 2.519241 -3.252669
v -3.057694 2.565656 -2.956329
v -2.810928 3.743644 -3.488695
v -2.692682 2.419355 -2.983485
v -2.841574 2.816133 -3.504858
v -2.995157 2.948303 -3.200377
v -2.728387 2.940633 -3.175653
v -0.275899 2.485195 -3.252231
v -0.066102 2.333724 -2.902297
v -0.232990 3.661151 -3.489371
v -0.435396 2.347123 -2.984076
v -0.334446 2.706467 -3.494210
v -0.099835 2.855654 -3.201137
v -0.366538 2.865055 -3.176272
v -5.280504 1.531404 0.563199
v -4.855773 2.241166 0.979220
v -6.936020 4.925115 1.510327
v -5.285197 2.333326 0.375480
v -6.925892 2.383090 1.015849
v -6.082932 2.848514 1.287591
v -6.339127 2.808236 0.651730
v 2.375593 1.538291 0.312752
v 1.977823 2.247931 0.754818
v 4.083415 4.936442 1.143989
v 2.366396 2.339928 0.123987
v 4.045588 2.393639 0.654883
v 3.221462 2.857965 0.980864
v 3.435319 2.817163 0.329576
v 1.314164 -1.464417 2.178841
v 0.077867 -2.119260 3.362146
v 0.525162 -3.095215 1.496604
v -0.190070 -3.510941 2.775272
v -1.519839 -1.109690 1.939727
v -1.327541 -3.073537 3.277161
v -1.479019 -1.816435 -0.333475
v -1.264035 -3.829234 2.773668
v -1.320841 -3.371431 1.299453
v -1.386057 -2.393993 3.593080
v -4.237956 -1.969111 2.236052
v -2.879933 -2.388128 3.392625
v -3.181972 -3.432198 1.534805
v -2.377526 -3.709783 2.797813
vn -0.4154 0.5270 0.7414
vn -0.0371 -0.9785 -0.2031
vn 0.0550 0.6751 -0.7357
vn 0.7327 0.4632 -0.4986
vn -0.4048 -0.7877 -0.4643
vn -0.0473 0.2865 0.9569
vn 0.4487 0.4994 0.7412
vn -0.0256 -0.9788 -0.2031
vn -0.0121 0.6772 -0.7357
vn -0.7018 0.5091 -0.4982
vn 0.3534 -0.8120 -0.4645
vn 0.0660 0.2829 0.9569
vn -0.0659 0.5789 0.8127
vn -0.9741 -0.1907 0.1218
vn -0.3545 0.6057 -0.7123
vn -0.7219 -0.3764 0.5806
vn -0.4141 -0.7973 -0.4391
vn -0.1648 -0.3197 -0.9331
vn -0.1408 0.8947 -0.4239
vn -0.1488 -0.3403 -0.9285
vn -0.3561 0.4498 -0.8190
vn 0.4947 0.5234 -0.6938
vn -0.4876 -0.8706 -0.0651
vn -0.2323 0.7665 -0.5988
vn 0.0257 -0.9981 0.0553
vn -0.1855 -0.3374 -0.9229
vn 0.3106 -0.3095 -0.8987
vn 0.1032 0.5735 0.8127
vn 0.9600 -0.2525 0.1213
vn 0.3921 0.5818 -0.7125
vn 0.6967 -0.4218 0.5803
vn 0.3621 -0.8222 -0.4393
vn 0.1435 -0.3295 -0.9332
vn 0.1975 0.8839 -0.4239
vn 0.1262 -0.3491 -0.9285
vn 0.3837 0.4262 -0.8192
vn -0.4606 0.5540 -0.6936
vn 0.4309 -0.9000 -0.0654
vn 0.2805 0.7501 -0.5989
vn -0.0895 -0.9944 0.0554
vn 0.1630 -0.3486 -0.9230
vn -0.3303 -0.2890 -0.8986
vn -0.7261 -0.3158 -0.6107
vn 0.6933 -0.3113 -0.6500
vn -0.0309 0.3267 -0.9446
vn 0.0245 0.5418 0.8402
vn 0.0151 -0.8777 0.4790
vn -0.1631 0.1705 0.9718
vn -0.7462 0.5817 -0.3239
vn -0.2771 0.9274 -0.2513
vn -0.5704 -0.7100 0.4129
vn -0.3767 -0.4762 -0.7946
vn -0.3016 0.2888 -0.9087
vn -0.1973 0.9732 0.1184
vn 0.2269 0.1703 0.9589
vn 0.7241 0.5806 -0.3723
vn 0.2613 0.9270 -0.2690
vn 0.5953 -0.7109 0.3745
vn 0.3229 -0.4767 -0.8176
vn 0.2416 0.2884 -0.9265
vn 0.2060 0.9729 0.1052
vn -0.5058 0.6960 0.5096
vn -0.2743 -0.9537 0.1235
vn 0.6250 -0.6086 -0.4888
vn 0.0744 0.8983 -0.4330
vn 0.5766 0.4433 0.6863
vn -0.8081 0.2562 -0.5304
vn 0.5369 0.6977 0.4742
vn 0.2837 -0.9530 0.1065
vn -0.6547 -0.6105 -0.4457
vn -0.1045 0.8975 -0.4284
vn -0.5311 0.4433 0.7221
vn 0.7710 0.2569 -0.5828
vn -0.7073 0.1595 0.6886
vn 0.0769 -0.5370 -0.8401
vn 0.6547 0.7108 -0.2570
vn 0.9990 0.0192 -0.0413
vn -0.0693 0.0485 -0.9964
vn -0.4144 -0.5003 0.7602
vn 0.8016 -0.0244 0.5974
vn -0.0367 -0.5553 -0.8308
vn -0.5694 0.8108 0.1358
vn -0.7796 0.3660 0.5082
vn 0.1144 -0.0826 -0.9900
vn 0.3329 -0.5293 0.7804
vn -0.8742 0.1263 0.4688
vn 0.3102 -0.7734 -0.5528
vn 0.5641 0.7635 0.3144
vn 0.7957 0.3171 0.5160
vn 0.1686 -0.1489 -0.9744
vn -0.8348 -0.0909 0.5430
vn 0.9279 0.0494 0.3694
vn -0.4335 -0.7470 -0.5040
vn -0.4596 0.8102 0.3637
vn -0.7340 0.2577 0.6283
vn -0.2530 -0.0441 -0.9665
vn 0.8795 -0.1587 0.4487
vn -0.9125 0.1137 -0.3930
vn 0.7415 -0.6446 -0.1862
vn 0.1370 0.8214 0.5537
vn 0.1114 0.3220 0.9401
vn 0.8496 -0.1505 -0.5056
vn -0.8857 -0.4609 -0.0563
vn 0.8865 -0.0383 -0.4611
vn -0.8090 -0.5802 -0.0938
vn -0.0051 0.8328 0.5535
vn 0.0269 0.1817 0.9830
vn -0.8626 0.1243 -0.4904
vn 0.8321 -0.5347 -0.1471
vn -0.7304 -0.4278 0.5325
vn 0.9547 -0.0303 -0.2961
vn -0.1169 0.2738 -0.9546
vn 0.0174 0.6160 -0.7876
vn 0.9753 -0.0196 -0.2199
vn -0.6479 -0.1313 0.7503
vn 0.7985 -0.4744 0.3706
vn -0.7731 -0.6343 -0.0008
vn 0.1166 0.9060 0.4068
vn -0.1128 0.9760 -0.1863
vn -0.7501 -0.6109 0.2534
vn 0.5757 -0.7304 -0.3676
vn -0.5472 0.4893 -0.6791
vn 0.6148 -0.5057 0.6052
vn -0.8854 0.0347 -0.4636
vn 0.0453 0.2675 -0.9625
vn -0.0776 0.6093 -0.7891
vn -0.9396 0.1189 -0.3211
vn 0.4969 -0.1838 0.8481
vn -0.7741 -0.4773 0.4160
vn 0.7757 -0.6298 -0.0412
vn -0.0996 0.9066 0.4101
vn 0.0969 0.9759 -0.1956
vn 0.7664 -0.6057 0.2139
vn -0.5906 -0.7348 -0.3337
vn 0.5065 0.4904 -0.7093
vn -0.8856 0.0373 -0.4629
vn 0.8999 -0.1827 -0.3960
vn 0.1081 0.4295 0.8966
vn -0.0761 0.3554 0.9316
vn 0.9483 -0.0258 -0.3163
vn -0.8605 -0.2407 -0.4490
vn -0.3771 -0.9179 -0.1233
vn 0.7980 -0.0818 -0.5971
vn -0.9393 -0.1639 -0.3013
vn -0.0653 0.4279 0.9015
vn 0.0992 0.3497 0.9316
vn -0.9828 0.1052 -0.1517
vn 0.7848 -0.2980 -0.5434
vn 0.0620 -0.9019 -0.4275
vn -0.2060 -0.1876 0.9604
vn -0.3596 -0.2355 -0.9029
vn 0.3851 0.9061 -0.1750
vn 0.8465 0.3870 -0.3656
vn -0.5978 0.1508 -0.7873
vn -0.0182 -0.4903 0.8714
vn 0.2691 -0.1858 0.9450
vn 0.2998 -0.2363 -0.9243
vn -0.3975 0.9052 -0.1506
vn -0.8695 0.3849 -0.3096
vn 0.5444 0.1506 -0.8252
vn 0.0765 -0.4889 0.8690
vn 0.0142 0.8229 0.5680
vn 0.7841 -0.4525 0.4247
vn 0.2052 -0.4586 0.8646
vn 0.4755 0.6274 -0.6166
vn 0.1787 -0.7038 -0.6875
vn 0.2095 -0.9453 -0.2499
vn 0.2152 -0.3964 0.8925
vn -0.1507 0.8079 0.5697
vn -0.6808 -0.5857 0.4398
vn -0.1014 -0.4864 0.8678
vn -0.5934 0.5302 -0.6056
vn -0.0629 -0.7258 -0.6850
vn -0.0407 -0.9681 -0.2473
vn -0.1219 -0.4270 0.8960
vt 0.239087 0.503130
vt 0.287166 0.520938
vt 0.229414 0.607207
vt 0.019211 0.408735
vt 0.074863 0.428636
vt 0.076443 0.485998
vt 0.019211 0.500752
vt 0.213989 0.487448
vt 0.213989 0.581530
vt 0.157314 0.581530
vt 0.157314 0.487448
vt 0.194487 0.834354
vt 0.194487 0.721849
vt 0.276642 0.757490
vt 0.132626 0.905948
vt 0.047410 0.908114
vt 0.056177 0.866938
vt 0.096005 0.941446
vt 0.085862 0.993087
vt 0.034790 0.994661
vt 0.014210 0.946225
vt 0.177195 0.747977
vt 0.121331 0.844437
vt 0.121331 0.729548
vt 0.164745 0.911245
vt 0.192758 0.985030
vt 0.141629 0.985549
vt 0.125362 0.938959
vt 0.254489 0.705985
vt 0.215226 0.692923
vt 0.226172 0.626067
vt 0.265436 0.639130
vt 0.011966 0.715861
vt 0.090351 0.787735
vt 0.011966 0.830750
vt 0.009704 0.931831
vt 0.009704 0.847373
vt 0.047781 0.860816
vt 0.196763 0.935108
vt 0.161572 0.848457
vt 0.224256 0.854636
vt 0.247760 0.908183
vt 0.659100 0.715233
vt 0.659100 0.790296
vt 0.605857 0.781701
vt 0.602214 0.749666
vt 0.783727 0.934096
vt 0.797109 0.904763
vt 0.836743 0.953328
vt 0.826213 0.995540
vt 0.750219 0.508628
vt 0.750219 0.571314
vt 0.691642 0.554801
vt 0.687871 0.519552
vt 0.508704 0.827592
vt 0.508704 0.752889
vt 0.574687 0.729445
vt 0.572989 0.810587
vt 0.927797 0.792149
vt 0.899840 0.762462
vt 0.927797 0.722125
vt 0.992079 0.977156
vt 0.955584 0.995350
vt 0.955584 0.947253
vt 0.898993 0.794927
vt 0.941924 0.827571
vt 0.926180 0.849377
vt 0.961110 0.868603
vt 0.961110 0.820505
vt 0.978176 0.834301
vt 0.829012 0.890496
vt 0.829012 0.827199
vt 0.841299 0.865542
vt 0.546007 0.894441
vt 0.579935 0.871604
vt 0.580347 0.932096
vt 0.516123 0.939057
vt 0.505250 0.858529
vt 0.898338 0.947169
vt 0.877141 0.899023
vt 0.898338 0.861183
vt 0.880095 0.996494
vt 0.880095 0.957535
vt 0.909189 0.985368
vt 0.705798 0.786143
vt 0.762684 0.820576
vt 0.759040 0.852611
vt 0.705798 0.861206
vt 0.851208 0.791206
vt 0.853266 0.716532
vt 0.885131 0.746152
vt 0.878432 0.808479
vt 0.622162 0.877935
vt 0.730257 0.896875
vt 0.723720 0.957987
vt 0.622162 0.986617
vt 0.739576 0.683897
vt 0.802186 0.706295
vt 0.796994 0.787288
vt 0.733238 0.758330
vt 0.879825 0.696409
vt 0.925743 0.643542
vt 0.920400 0.692328
vt 0.992510 0.908515
vt 0.956015 0.938418
vt 0.956015 0.890321
vt 0.947347 0.760236
vt 0.947347 0.699376
vt 0.971174 0.711853
vt 0.938818 0.525215
vt 0.886556 0.548699
vt 0.866947 0.522384
vt 0.851605 0.423743
vt 0.881171 0.453002
vt 0.882554 0.513198
vt 0.546013 0.894663
vt 0.580524 0.932161
vt 0.579837 0.871671
vt 0.505093 0.858936
vt 0.516333 0.939414
vt 0.919319 0.959407
vt 0.919319 0.870540
vt 0.941226 0.909648
vt 0.779727 0.987075
vt 0.729662 0.986171
vt 0.758417 0.928183
vt 0.358116 0.042104
vt 0.358116 0.202896
vt 0.250921 0.202896
vt 0.250921 0.042104
vt 0.143726 0.202896
vt 0.143726 0.042104
vt 0.147822 0.273590
vt 0.080206 0.390704
vt 0.012590 0.273590
vt 0.036532 0.202896
vt 0.036532 0.042104
vt 0.658951 0.218241
vt 0.729168 0.096622
vt 0.588734 0.096622
vt 0.455480 0.207214
vt 0.486805 0.207214
vt 0.514991 0.236970
vt 0.455480 0.236970
vt 0.514991 0.296481
vt 0.455480 0.296481
vt 0.574503 0.296481
vt 0.574503 0.326237
vt 0.514991 0.326237
vt 0.395968 0.296481
vt 0.455480 0.326237
vt 0.395968 0.326237
vt 0.485916 0.326237
vt 0.514991 0.207214
vt 0.080484 0.525364
vt 0.128877 0.525364
vt 0.128877 0.573757
vt 0.080484 0.573757
vt 0.128877 0.622151
vt 0.080484 0.622151
vt 0.128877 0.670544
vt 0.080484 0.670544
vt 0.128877 0.718938
vt 0.080484 0.718938
vt 0.032090 0.622151
vt 0.032090 0.670544
vt 0.177271 0.622151
vt 0.177271 0.670544
vt 0.673495 0.295534
vt 0.745578 0.295534
vt 0.673495 0.331576
vt 0.673495 0.439701
vt 0.745578 0.439701
vt 0.673495 0.475743
vt 0.817662 0.439701
vt 0.745578 0.475743
vt 0.817662 0.403660
vt 0.745578 0.403660
vt 0.745578 0.259492
vt 0.771500 0.119570
vt 0.855186 0.119570
vt 0.771500 0.161413
vt 0.771500 0.286941
vt 0.855186 0.286941
vt 0.771500 0.328784
vt 0.938871 0.286941
vt 0.855186 0.328784
vt 0.938871 0.245098
vt 0.855186 0.245098
vt 0.855186 0.077727
vt 0.411032 0.116738
vt 0.474892 0.116738
vt 0.411032 0.148668
vt 0.296792 0.429017
vt 0.388765 0.429017
vt 0.296792 0.475004
vt 0.480738 0.429017
vt 0.388765 0.475004
vt 0.480738 0.383031
vt 0.388765 0.383031
vt 0.474892 0.084808
vt 0.100300 0.399728
vt 0.100300 0.476625
vt 0.254095 0.399728
vt 0.776150 0.593890
vt 0.776150 0.635202
vt 0.858774 0.593890
vt 0.858774 0.635202
vt 0.941398 0.593890
vt 0.941398 0.552578
vt 0.858774 0.552578
vt 0.254095 0.322830
vt 0.517661 0.466985
vt 0.607774 0.466985
vt 0.517661 0.512041
vt 0.517661 0.647211
vt 0.607774 0.647211
vt 0.607774 0.692268
vt 0.517661 0.692268
vt 0.697888 0.647211
vt 0.697888 0.692268
vt 0.697888 0.602154
vt 0.607774 0.602154
vt 0.517661 0.421928
vt 0.607774 0.421928
vt 0.437153 0.936581
vt 0.466571 0.911884
vt 0.502307 0.976025
vt 0.427678 0.805657
vt 0.432538 0.846436
vt 0.389910 0.866441
vt 0.389910 0.800337
vt 0.424770 0.779283
vt 0.422816 0.724760
vt 0.465830 0.718299
vt 0.465830 0.792074
vt 0.274715 0.882429
vt 0.274715 0.807382
vt 0.329517 0.831157
vt 0.374276 0.870888
vt 0.335520 0.806623
vt 0.374276 0.793041
vt 0.426474 0.987858
vt 0.396757 0.987366
vt 0.421479 0.947870
vt 0.455902 0.964913
vt 0.487579 0.735700
vt 0.465969 0.792074
vt 0.465969 0.718299
vt 0.493034 0.831823
vt 0.448346 0.895561
vt 0.447446 0.815998
vt 0.233947 0.949087
vt 0.269667 0.925923
vt 0.277508 0.981500
vt 0.233065 0.981500
vt 0.293299 0.710303
vt 0.334271 0.703779
vt 0.334271 0.780281
vt 0.291571 0.764005
vt 0.320088 0.988723
vt 0.301442 0.921298
vt 0.358999 0.921298
vt 0.340596 0.986257
vt 0.383631 0.923421
vt 0.400928 0.950848
vt 0.405011 0.745447
vt 0.405011 0.785189
vt 0.369484 0.759106
vt 0.385275 0.716224
vt 0.355263 0.751845
vt 0.334410 0.780281
vt 0.334410 0.703779
vt 0.304343 0.558803
vt 0.354314 0.558803
vt 0.304343 0.583789
vt 0.304343 0.658745
vt 0.354314 0.658745
vt 0.354314 0.683731
vt 0.304343 0.683731
vt 0.404285 0.658745
vt 0.404285 0.683731
vt 0.404285 0.633760
vt 0.354314 0.633760
vt 0.304343 0.533818
vt 0.354314 0.533818
vt 0.375000 0.125000
vt 0.506593 0.125000
vt 0.625000 0.250000
vt 0.375000 0.250000
vt 0.625000 0.500000
vt 0.375000 0.500000
vt 0.875000 0.500000
vt 0.875000 0.625000
vt 0.625000 0.625000
vt 0.125000 0.500000
vt 0.375000 0.625000
vt 0.125000 0.625000
vt 0.502860 0.625000
vt 0.625000 0.125000
s 0
usemtl Yellow
f 5/4/2 7/5/2 4/6/2 1/7/2
f 3/12/4 6/13/4 7/14/4
f 10/36/11 12/37/11 14/38/11
f 15/47/14 16/48/14 18/49/14 17/50/14
f 17/59/17 23/60/17 21/61/17
f 16/65/19 24/66/19 20/67/19
f 25/68/20 17/69/20 28/70/20
f 18/71/21 22/72/21 27/73/21
f 19/85/28 29/86/28 30/87/28 24/88/28
f 29/97/31 19/98/31 21/99/31 31/100/31
f 23/104/33 25/105/33 31/106/33
f 32/113/36 34/114/36 22/115/36
f 32/121/41 31/122/41 35/123/41
f 36/127/43 37/128/43 39/129/43 38/130/43
f 38/130/44 39/129/44 41/131/44 40/132/44
f 39/133/45 37/134/45 41/135/45
f 40/132/46 41/131/46 37/136/46 36/137/46
f 36/138/47 38/139/47 40/140/47
f 42/150/51 44/146/51 48/151/51 46/152/51
f 50/153/53 44/146/53 45/145/53 49/149/53
f 43/143/54 51/142/54 47/154/54
f 46/141/55 52/144/55 53/143/55 51/142/55
f 52/144/56 54/146/56 55/145/56 53/143/56
f 53/143/61 47/154/61 51/142/61
f 58/158/63 59/157/63 63/159/63 62/160/63
f 58/165/66 62/160/66 60/162/66 56/166/66
f 63/159/67 59/167/67 57/168/67 61/161/67
f 64/155/68 66/158/68 67/157/68 65/156/68
f 66/158/69 70/160/69 71/159/69 67/157/69
f 66/165/72 64/166/72 68/162/72 70/160/72
f 74/169/74 75/170/74 73/171/74
f 79/169/80 78/171/80 80/170/80
f 81/173/82 77/176/82 80/175/82
f 78/177/83 81/173/83 80/175/83
f 84/180/86 85/181/86 83/182/86
f 83/188/89 85/186/89 86/184/89
f 88/188/95 91/184/95 90/186/95
f 88/189/96 89/183/96 91/184/96
f 94/191/98 95/192/98 93/193/98
f 94/194/99 96/195/99 92/196/99
f 93/199/101 95/197/101 96/195/101
f 99/202/104 98/203/104 100/204/104
f 99/205/105 97/206/105 101/207/105
f 101/207/106 97/208/106 100/209/106
f 98/210/107 101/207/107 100/209/107
f 106/213/110 107/214/110 104/215/110
f 108/217/112 107/220/112 103/221/112 105/218/112
f 114/217/118 113/220/118 110/221/118 111/218/118
f 104/223/120 114/217/120 112/216/120
f 109/224/121 110/225/121 113/214/121 112/213/121
f 119/216/124 115/219/124 118/218/124 121/217/124
f 125/213/129 117/215/129 126/214/129
f 117/222/132 127/217/132 126/220/132
f 117/223/133 125/216/133 127/217/133
f 132/226/136 133/227/136 130/228/136
f 134/233/138 133/234/138 129/235/138 131/236/138
f 130/237/139 133/238/139 134/239/139
f 137/261/146 141/262/146 140/263/146
f 137/264/147 139/265/147 141/266/147
f 135/267/148 139/268/148 140/269/148 136/270/148
f 146/274/150 147/275/150 144/276/150
f 148/278/152 147/281/152 143/282/152 145/279/152
f 144/284/154 148/278/154 146/277/154
f 142/285/155 143/286/155 147/275/155 146/274/155
f 153/274/156 151/276/156 154/275/156
f 155/278/158 152/279/158 150/282/158 154/281/158
f 151/284/160 153/277/160 155/278/160
f 149/285/161 153/274/161 154/275/161 150/286/161
f 160/287/162 165/288/162 157/289/162 156/290/162
f 156/290/163 157/289/163 159/291/163 158/292/163
f 158/292/166 164/299/166 162/297/166
f 169/291/171 163/295/171 161/294/171 167/293/171
f 166/296/172 160/298/172 162/297/172 168/292/172
usemtl Green
f 3/15/5 7/16/5 5/17/5
f 14/29/9 11/30/9 9/31/9 13/32/9
f 8/39/12 12/40/12 13/41/12 9/42/12
f 19/43/13 24/44/13 16/45/13 15/46/13
f 23/62/18 17/63/18 25/64/18
f 18/79/26 28/80/26 17/81/26
f 29/89/29 31/90/29 32/91/29 30/92/29
f 30/107/34 20/108/34 24/109/34
f 25/124/42 22/125/42 34/126/42
f 55/145/57 49/149/57 47/148/57 53/147/57
f 50/153/60 49/149/60 55/145/60 54/146/60
f 71/159/73 69/161/73 65/168/73 67/167/73
f 73/178/78 76/173/78 74/172/78
f 72/179/79 75/170/79 74/169/79
f 77/179/85 79/169/85 80/170/85
f 84/183/87 86/184/87 82/185/87
f 89/180/92 88/182/92 90/181/92
f 93/200/102 96/195/102 94/194/102
f 98/211/108 99/205/108 101/207/108
f 104/223/114 108/217/114 106/216/114
f 102/224/115 103/225/115 107/214/115 106/213/115
f 104/222/119 113/220/119 114/217/119
f 121/217/125 118/218/125 116/221/125 120/220/125
f 117/223/127 119/216/127 121/217/127
f 125/216/130 122/219/130 124/218/130 127/217/130
f 122/224/134 125/213/134 126/214/134 123/225/134
f 128/243/141 129/244/141 133/245/141 132/246/141
f 139/250/143 137/251/143 140/252/143
f 146/277/151 148/278/151 145/279/151 142/280/151
f 156/296/165 158/292/165 162/297/165 160/298/165
f 164/299/167 158/292/167 159/291/167 163/295/167
f 160/287/169 166/290/169 167/289/169 165/288/169
f 167/289/175 161/300/175 165/288/175
usemtl Violet
f 1/18/6 2/19/6 6/20/6 5/21/6
f 10/33/10 14/34/10 13/35/10
f 18/51/15 16/52/15 20/53/15 22/54/15
f 15/55/16 17/56/16 21/57/16 19/58/16
f 25/82/27 27/83/27 22/84/27
f 31/101/32 21/102/32 23/103/32
f 46/141/48 51/142/48 43/143/48 42/144/48
f 45/145/50 43/147/50 47/148/50 49/149/50
f 44/146/52 50/153/52 48/151/52
f 52/150/58 46/152/58 48/151/58 54/146/58
f 56/155/62 57/156/62 59/157/62 58/158/62
f 62/160/64 63/159/64 61/161/64 60/162/64
f 68/162/71 64/164/71 65/163/71 69/161/71
f 76/173/76 75/175/76 72/176/76
f 73/177/77 75/175/77 76/173/77
f 82/190/91 85/181/91 84/180/91
f 89/183/93 87/185/93 91/184/93
f 96/195/100 95/197/100 92/198/100
f 92/201/103 95/192/103 94/191/103
f 104/222/113 107/220/113 108/217/113
f 112/213/116 113/214/116 104/215/116
f 109/219/122 111/218/122 110/221/122
f 115/224/128 119/213/128 120/214/128 116/225/128
f 122/219/135 123/221/135 124/218/135
f 130/240/140 134/241/140 132/242/140
f 128/247/142 131/248/142 129/249/142
f 139/253/144 135/254/144 138/255/144 141/256/144
f 153/277/157 149/280/157 152/279/157 155/278/157
f 157/289/168 165/288/168 161/300/168
f 164/299/174 163/295/174 169/291/174 168/292/174
usemtl Pink
f 5/1/1 6/2/1 3/3/1
f 7/8/3 6/9/3 2/10/3 4/11/3
f 12/22/7 10/23/7 13/24/7
f 12/25/8 8/26/8 11/27/8 14/28/8
f 32/93/30 22/94/30 20/95/30 30/96/30
f 25/110/35 35/111/35 31/112/35
f 42/144/49 43/143/49 45/145/49 44/146/49
f 54/146/59 48/151/59 50/153/59
f 60/162/65 61/161/65 57/163/65 56/164/65
f 70/160/70 68/162/70 69/161/70 71/159/70
f 74/172/75 76/173/75 72/174/75
f 79/172/81 77/174/81 81/173/81
f 78/178/84 79/172/84 81/173/84
f 86/184/88 85/186/88 82/187/88
f 83/189/90 86/184/90 84/183/90
f 91/184/94 87/187/94 90/186/94
f 87/190/97 89/180/97 90/181/97
f 97/212/109 99/202/109 100/204/109
f 106/216/111 108/217/111 105/218/111 102/219/111
f 112/216/117 114/217/117 111/218/117 109/219/117
f 119/213/123 117/215/123 120/214/123
f 117/222/126 121/217/126 120/220/126
f 127/217/131 124/218/131 123/221/131 126/220/131
f 132/229/137 134/230/137 131/231/137 128/232/137
f 141/257/145 138/258/145 136/259/145 140/260/145
f 135/271/149 136/272/149 138/273/149
f 144/283/153 147/281/153 148/278/153
f 151/283/159 155/278/159 154/281/159
f 159/291/164 157/293/164 161/294/164 163/295/164
f 166/290/170 168/292/170 169/291/170 167/289/170
f 168/292/173 162/297/173 164/299/173
usemtl Purple
f 26/74/22 28/75/22 18/76/22
f 26/74/23 27/77/23 25/78/23
f 28/75/24 26/74/24 25/78/24
f 27/77/25 26/74/25 18/76/25
f 33/116/37 32/117/37 35/118/37
f 33/116/38 25/119/38 34/120/38
f 35/118/39 25/119/39 33/116/39
f 34/120/40 32/117/40 33/116/40
o Cube.004
v -6.496014 -2.397574 -1.474679
v -6.551129 -1.329781 -1.344864
v -1.564022 -3.284914 -1.087402
v -1.564022 -1.329781 -0.726594
v -7.773749 -3.496698 -5.201769
v -8.402566 -1.329781 -5.201769
v -1.564022 -1.329781 -5.201769
v -1.453447 -6.805954 -5.182553
v -6.496014 -2.397574 -8.928860
v -6.551129 -1.329781 -9.058674
v -1.564023 -3.284914 -9.316137
v -1.397386 -1.329781 -9.676945
v 3.367970 -2.397574 -1.474679
v 3.423085 -1.329781 -1.344865
v 4.645705 -4.032959 -5.201770
v 5.274521 -1.329781 -5.201770
v 3.367970 -2.397574 -8.928860
v 3.423085 -1.329781 -9.058674
v -6.867007 -1.654252 -1.129753
v -1.564022 -1.951224 -0.547343
v -8.650555 -2.022103 -5.201769
v -6.867007 -1.654252 -9.273787
v -1.564023 -1.951224 -9.856195
v 3.738962 -1.654252 -1.129753
v 5.522511 -2.022103 -5.201770
v 3.738962 -1.654252 -9.273787
v -3.668087 -1.689037 -9.519720
v -3.697447 -2.295866 -9.621889
v -5.096803 -2.336244 -9.144779
v -5.387729 -1.329781 -9.202906
v -5.625778 -1.723762 -9.410107
v -5.423985 -1.470235 -9.238924
v -4.621514 -3.780053 -9.076052
v -3.176404 -3.990996 -7.244889
v 1.136649 -1.799984 -9.559589
v 0.797529 -1.329781 -9.384174
v 1.161791 -4.395317 -8.582312
v -0.474351 -2.697232 -9.230572
v -0.090547 -3.988148 -7.310144
v 2.534734 -3.223051 -6.461280
v 2.516296 -3.798919 -5.201770
v 4.335790 -2.288819 -7.911170
v 3.869697 -2.829166 -7.465347
v -7.866137 -1.860320 -6.992672
v -3.672149 -4.687108 -5.201769
v -5.834724 -4.693884 -6.063497
v 0.134161 -4.812055 -5.201770
v -1.312350 -1.933940 -10.153913
v 0.545856 -1.933940 -9.861143
v -1.564023 -9.955769 -10.153913
v 0.797529 -9.955769 -9.861143
v -6.867007 -12.132557 -1.129753
v -8.650555 -12.500408 -5.201769
v -0.001556 -3.641882 -0.547343
v 2.176497 -3.344911 -1.129753
v -0.001556 -22.282354 -0.547343
v 2.176497 -21.985384 -1.129753
v 4.272729 -1.675783 -1.869019
v 5.230325 -1.675783 -3.863879
v 4.272729 -20.284639 -1.869019
v 5.230325 -20.284639 -3.863879
vn -0.0940 0.4097 0.9074
vn -0.0000 1.0000 -0.0000
vn -0.2227 -0.8968 0.3822
vn -0.7906 0.5101 0.3388
vn -0.1348 0.1709 -0.9760
vn -0.2429 -0.8968 -0.3698
vn -0.6286 0.7495 -0.2076
vn 0.0940 0.4097 0.9074
vn 0.2523 -0.8972 0.3623
vn 0.7906 0.5101 0.3388
vn 0.1033 0.3221 -0.9411
vn 0.6691 -0.7428 -0.0226
vn 0.7193 0.6946 0.0084
vn 0.5742 -0.6669 -0.4748
vn 0.2653 -0.3619 -0.8937
vn 0.8043 -0.4174 0.4229
vn 0.1328 -0.4085 0.9030
vn -0.7697 -0.4906 -0.4085
vn -0.1155 -0.5123 -0.8510
vn -0.7724 -0.4962 0.3965
vn -0.1328 -0.4085 0.9030
vn -0.1151 -0.4648 -0.8779
vn -0.1183 0.2752 -0.9541
vn -0.0586 0.3166 -0.9468
vn -0.2528 -0.5601 -0.7889
vn -0.1477 -0.0955 -0.9844
vn -0.1135 0.3033 -0.9461
vn -0.0556 0.5887 -0.8064
vn -0.1135 0.2937 -0.9491
vn -0.4379 -0.6901 -0.5762
vn -0.1223 -0.4816 -0.8678
vn -0.0669 -0.0694 -0.9953
vn 0.1390 -0.9653 -0.2209
vn -0.2276 -0.7842 0.5773
vn 0.1683 -0.3459 -0.9230
vn -0.5990 -0.7149 -0.3608
vn 0.0872 0.4963 -0.8638
vn 0.1219 -0.5272 -0.8409
vn 0.4264 -0.7089 -0.5618
vn 0.3660 -0.8512 -0.3762
vn 0.1284 -0.9008 0.4147
vn 0.0555 -0.9524 -0.2999
vn -0.1015 -0.9233 0.3704
vn -0.0994 -0.9044 -0.4150
vn 0.6471 -0.7325 -0.2113
vn 0.8535 0.3220 -0.4097
vn -0.0743 -0.8908 -0.4483
vn 0.1223 -0.4673 -0.8756
vn 0.8110 -0.3536 -0.4661
vn 0.8599 0.3080 -0.4070
vn -0.7917 -0.4708 -0.3893
vn -0.7471 -0.5477 -0.3767
vn -0.8795 0.3150 -0.3568
vn -0.7902 0.4814 -0.3793
vn -0.6364 -0.6698 -0.3826
vn -0.5943 -0.6177 0.5150
vn 0.1201 -0.9482 -0.2939
vn -0.6041 -0.6841 -0.4088
vn 0.7420 -0.5938 -0.3111
vn 0.6866 -0.5420 0.4846
vn 0.4711 -0.6652 -0.5793
vn 0.0051 -0.3523 -0.9359
vn 0.1137 0.6059 -0.7874
vn 0.1374 -0.0000 -0.9905
vn 0.9160 -0.0000 -0.4012
vn -0.1538 -0.0000 -0.9881
vn -0.2583 -0.0000 -0.9661
vn -0.4869 -0.8416 -0.2337
vn -0.9015 -0.0000 -0.4328
vt 0.546588 0.125009
vt 0.625000 0.125009
vt 0.625000 0.250000
vt 0.546588 0.250000
vt -0.001232 0.499703
vt 0.135638 0.216044
vt 0.508002 0.171269
vt 0.508002 0.500718
vt 0.125000 0.500000
vt 0.250000 0.500000
vt 0.250000 0.558738
vt 0.125000 0.624991
vt 0.625000 0.375000
vt 0.546588 0.375000
vt 0.546588 0.175294
vt 0.579670 0.177743
vt 0.508002 0.830192
vt 0.220117 0.794702
vt 0.134492 0.783912
vt 0.125000 0.547505
vt 0.184081 0.584129
vt 0.222197 0.535483
vt 0.546588 0.320024
vt 0.546588 0.250000
vt 1.005635 0.501734
vt 0.869910 0.217525
vt 0.250000 0.580172
vt 0.250000 0.557321
vt 0.625000 0.184196
vt 0.546588 0.188664
vt 0.868764 0.785393
vt 0.675430 0.808966
vt 0.209634 0.552360
vt 0.125000 0.555911
vt 0.546587 0.250000
vt 0.546587 0.291829
vt 0.375000 0.250000
vt 0.375000 0.299084
vt 0.375000 0.125009
vt 0.375000 0.152624
vt 0.375000 0.375000
vt 0.474825 0.197725
vt 0.625000 0.220842
vt 0.607278 0.221751
vt 0.546588 0.220744
vt 0.375000 0.202495
vt 0.250000 0.624991
vt 0.375000 0.194089
vt 0.182430 0.587649
vt 0.125000 0.597376
vt 0.174084 0.500000
vt 0.681942 0.973121
vt 0.419445 0.973121
vt 0.419445 0.914569
vt 0.681942 0.914569
vt 0.419445 0.137127
vt 0.681942 0.137127
vt 0.682705 0.999585
vt 0.361577 0.999585
vt 0.361577 0.173243
vt 0.682705 0.173243
vt 0.596951 0.994318
vt 0.418428 0.994318
vt 0.418428 0.913629
vt 0.596951 0.913629
vt 0.418428 0.023978
vt 0.596951 0.023978
vt 0.006462 0.012500
vt 0.495199 0.012500
vt 0.468186 0.997264
vt 0.574861 0.997264
vt 0.574861 0.002154
vt 0.468186 0.002154
s 0
usemtl Green
f 188/304/179 171/303/179 175/313/179 190/314/179
f 192/301/180 197/315/180 196/316/180
f 178/309/181 202/320/181 203/321/181 215/322/181
f 191/304/182 213/323/182 179/303/182
f 193/324/185 194/314/185 185/313/185 183/303/185
f 186/309/187 209/333/187 206/334/187
f 195/335/188 187/303/188 211/336/188
f 180/339/190 192/301/190 207/340/190
f 178/337/193 174/341/193 213/323/193
f 179/303/198 199/343/198 201/344/198
f 197/315/200 198/342/200 200/345/200
f 202/346/207 198/342/207 180/339/207
f 174/310/209 215/322/209 214/311/209
f 208/349/215 209/333/215 210/328/215 216/327/215
f 206/334/216 209/333/216 208/349/216
f 210/328/219 209/333/219 184/310/219
f 212/338/220 211/336/220 194/314/220
f 211/336/221 187/303/221 185/313/221
f 194/314/224 184/341/224 212/338/224
f 175/313/228 213/323/228 190/314/228
f 214/311/230 203/321/230 177/347/230
f 204/330/237 206/348/237 207/340/237
usemtl Pink
f 186/337/189 195/335/189 211/336/189 212/338/189
f 170/337/195 188/304/195 190/314/195 174/341/195
f 178/337/201 198/342/201 202/346/201
f 196/316/202 181/302/202 192/301/202
f 201/344/203 200/345/203 191/304/203 179/303/203
f 177/347/205 203/321/205 180/312/205
f 206/348/210 204/330/210 186/337/210
f 207/350/214 208/349/214 180/312/214
f 213/323/227 191/304/227 178/337/227
f 214/311/232 215/322/232 203/321/232
f 216/327/234 177/347/234 208/349/234
usemtl Purple
f 189/301/176 173/302/176 171/303/176 188/304/176
f 170/309/178 174/310/178 214/311/178 172/312/178
f 189/301/183 193/324/183 183/303/183 173/302/183
f 182/309/184 172/312/184 216/327/184 210/328/184
f 182/337/191 184/341/191 194/314/191 193/324/191
f 172/339/192 182/337/192 193/324/192 189/301/192
f 172/339/196 189/301/196 188/304/196 170/337/196
f 210/328/218 184/310/218 182/309/218
f 172/312/231 214/311/231 177/347/231
f 216/327/235 172/312/235 177/347/235
usemtl Violet
f 192/301/186 181/302/186 205/329/186 204/330/186
f 196/316/199 197/315/199 200/345/199 201/344/199
f 200/345/206 198/342/206 191/304/206
f 206/334/211 208/349/211 207/350/211
f 212/351/222 184/310/222 209/333/222
f 186/337/223 204/330/223 195/335/223
f 213/323/226 174/341/226 190/314/226
f 180/312/236 208/349/236 177/347/236
usemtl Yellow
f 180/339/194 198/342/194 197/315/194 192/301/194
f 191/304/197 198/342/197 178/337/197
f 201/344/204 199/343/204 181/302/204 196/316/204
f 180/312/208 203/321/208 202/320/208
f 204/330/212 205/329/212 187/303/212 195/335/212
f 207/340/213 192/301/213 204/330/213
f 209/333/217 186/309/217 212/351/217
f 185/313/225 194/314/225 211/336/225
f 179/303/229 213/323/229 175/313/229
f 215/322/233 174/310/233 178/309/233
usemtl Water
f 175/305/177 171/306/177 173/307/177 176/308/177
f 175/305/177 176/308/177 181/317/177 199/318/177 179/319/177
f 185/325/177 176/308/177 173/307/177 183/326/177
f 185/325/177 187/331/177 205/332/177 181/317/177 176/308/177
f 181/352/238 205/353/238 218/354/238 217/355/238
f 217/355/239 218/354/239 220/356/239 219/357/239
f 190/358/240 188/359/240 221/360/240 222/361/240
f 189/362/241 193/363/241 224/364/241 223/365/241
f 223/365/242 224/364/242 226/366/242 225/367/242
f 183/368/243 185/369/243 228/369/243 227/368/243
f 227/370/244 228/371/244 230/372/244 229/373/244
